<svg xmlns="http://www.w3.org/2000/svg" xmlns:xlink="http://www.w3.org/1999/xlink" viewBox="0 0 404.92 383.9"><defs><style>.cls-1{fill:none;}.cls-2{isolation:isolate;}.cls-3{clip-path:url(#clip-path);}.cls-4{opacity:0.14;}.cls-5{fill:#00b9be;}.cls-6{fill:url(#linear-gradient);}.cls-7{fill:url(#linear-gradient-2);}.cls-8{fill:url(#linear-gradient-3);}.cls-9{fill:url(#linear-gradient-4);}.cls-10,.cls-11{fill:#fff;}.cls-10{opacity:0.11;}.cls-12{fill:url(#linear-gradient-7);}.cls-13{fill:url(#linear-gradient-8);}.cls-14{opacity:0.25;mix-blend-mode:multiply;}.cls-15{fill:#b9e1f9;}.cls-16{fill:url(#linear-gradient-9);}.cls-17{fill:url(#linear-gradient-10);}.cls-18{fill:url(#linear-gradient-11);}.cls-19{fill:url(#linear-gradient-12);}.cls-20{fill:url(#linear-gradient-13);}.cls-21{fill:url(#linear-gradient-14);}.cls-22{fill:url(#linear-gradient-15);}.cls-23{fill:url(#linear-gradient-16);}.cls-24{fill:url(#linear-gradient-17);}.cls-25{fill:url(#linear-gradient-18);}.cls-26{fill:url(#linear-gradient-19);}.cls-27{fill:url(#linear-gradient-20);}.cls-28{fill:url(#linear-gradient-21);}.cls-29{fill:url(#linear-gradient-22);}.cls-30{fill:url(#linear-gradient-23);}.cls-31{fill:url(#linear-gradient-24);}.cls-32{fill:url(#linear-gradient-25);}.cls-33{fill:url(#linear-gradient-26);}.cls-34{fill:url(#linear-gradient-27);}.cls-35{fill:url(#linear-gradient-28);}.cls-36{fill:url(#linear-gradient-29);}.cls-37{fill:url(#linear-gradient-30);}.cls-38{fill:url(#linear-gradient-31);}.cls-39{fill:url(#linear-gradient-32);}.cls-40{fill:url(#linear-gradient-33);}.cls-41{fill:url(#linear-gradient-34);}.cls-42{fill:url(#linear-gradient-35);}.cls-43{fill:url(#linear-gradient-36);}.cls-44{fill:url(#linear-gradient-37);}.cls-45{fill:url(#linear-gradient-38);}.cls-46{fill:url(#linear-gradient-39);}.cls-47{fill:url(#linear-gradient-40);}.cls-48{fill:url(#linear-gradient-41);}.cls-49{fill:url(#linear-gradient-42);}.cls-50{fill:url(#linear-gradient-43);}.cls-51{fill:url(#linear-gradient-44);}.cls-52{fill:url(#linear-gradient-45);}.cls-53{fill:url(#linear-gradient-46);}.cls-54{fill:url(#linear-gradient-47);}.cls-55{fill:url(#linear-gradient-48);}.cls-56{fill:url(#linear-gradient-49);}.cls-57{fill:url(#linear-gradient-50);}.cls-58{fill:url(#linear-gradient-51);}.cls-59{fill:url(#linear-gradient-52);}.cls-60{fill:url(#linear-gradient-53);}.cls-61{fill:url(#linear-gradient-54);}.cls-62{fill:url(#linear-gradient-55);}.cls-63{fill:url(#linear-gradient-56);}.cls-64{fill:url(#linear-gradient-57);}.cls-65{fill:url(#linear-gradient-58);}.cls-66{fill:url(#linear-gradient-59);}.cls-67{fill:url(#linear-gradient-60);}.cls-68{fill:url(#linear-gradient-61);}.cls-69{fill:url(#linear-gradient-62);}.cls-70{fill:url(#linear-gradient-63);}.cls-71{fill:url(#linear-gradient-64);}.cls-72{fill:url(#linear-gradient-65);}.cls-73{fill:url(#linear-gradient-66);}.cls-74{fill:url(#linear-gradient-67);}.cls-75{fill:url(#linear-gradient-68);}.cls-76{fill:url(#linear-gradient-69);}.cls-77{fill:url(#linear-gradient-70);}.cls-78{fill:url(#linear-gradient-71);}.cls-79{fill:url(#linear-gradient-72);}.cls-80{fill:url(#linear-gradient-73);}.cls-81{fill:url(#linear-gradient-74);}.cls-82{fill:url(#linear-gradient-75);}.cls-83{fill:url(#linear-gradient-76);}.cls-84{fill:url(#linear-gradient-77);}.cls-85{fill:url(#linear-gradient-78);}.cls-86{fill:#0f2e60;}</style><clipPath id="clip-path" transform="translate(-17.93 -45.32)"><rect class="cls-1" width="423.21" height="446.29"/></clipPath><linearGradient id="linear-gradient" x1="287.78" y1="38.42" x2="287.78" y2="409.56" gradientUnits="userSpaceOnUse"><stop offset="0" stop-color="#a2ebff"/><stop offset="0.05" stop-color="#a8ecfb"/><stop offset="0.48" stop-color="#d6f0de"/><stop offset="0.81" stop-color="#f2f3cd"/><stop offset="0.99" stop-color="#fdf4c6"/></linearGradient><linearGradient id="linear-gradient-2" x1="279.7" y1="38.42" x2="279.7" y2="409.56" xlink:href="#linear-gradient"/><linearGradient id="linear-gradient-3" x1="401.88" y1="38.42" x2="401.88" y2="409.56" xlink:href="#linear-gradient"/><linearGradient id="linear-gradient-4" x1="332.43" y1="38.42" x2="332.43" y2="409.56" xlink:href="#linear-gradient"/><linearGradient id="linear-gradient-7" x1="400.62" y1="160.57" x2="400.62" y2="185.4" gradientUnits="userSpaceOnUse"><stop offset="0" stop-color="#fff" stop-opacity="0.2"/><stop offset="0.24" stop-color="#fdfeff" stop-opacity="0.21"/><stop offset="0.47" stop-color="#f7fbff" stop-opacity="0.26"/><stop offset="0.68" stop-color="#edf6ff" stop-opacity="0.33"/><stop offset="0.89" stop-color="#dfeeff" stop-opacity="0.43"/><stop offset="1" stop-color="#d6eaff" stop-opacity="0.5"/></linearGradient><linearGradient id="linear-gradient-8" x1="278.55" y1="164.28" x2="278.55" y2="177.16" xlink:href="#linear-gradient-7"/><linearGradient id="linear-gradient-9" x1="32.11" y1="272.66" x2="32.11" y2="272.5" gradientUnits="userSpaceOnUse"><stop offset="0" stop-color="#b9e1f9"/><stop offset="1" stop-color="#a2ebd3"/></linearGradient><linearGradient id="linear-gradient-10" x1="226.81" y1="252.97" x2="226.81" y2="206.84" xlink:href="#linear-gradient-9"/><linearGradient id="linear-gradient-11" x1="114.57" y1="320.23" x2="114.57" y2="299.31" xlink:href="#linear-gradient-9"/><linearGradient id="linear-gradient-12" x1="59.9" y1="265" x2="59.9" y2="255.59" xlink:href="#linear-gradient-9"/><linearGradient id="linear-gradient-13" x1="42.41" y1="288.54" x2="42.41" y2="270.64" xlink:href="#linear-gradient-9"/><linearGradient id="linear-gradient-14" x1="162.72" y1="313.42" x2="162.72" y2="227.81" xlink:href="#linear-gradient-9"/><linearGradient id="linear-gradient-15" x1="75.87" y1="264.77" x2="75.87" y2="261.66" xlink:href="#linear-gradient-9"/><linearGradient id="linear-gradient-16" x1="112.01" y1="260.3" x2="112.01" y2="278.16" gradientUnits="userSpaceOnUse"><stop offset="0" stop-color="#fff" stop-opacity="0.7"/><stop offset="0.25" stop-color="#fdfeff" stop-opacity="0.69"/><stop offset="0.48" stop-color="#f7fbff" stop-opacity="0.66"/><stop offset="0.7" stop-color="#ecf5ff" stop-opacity="0.61"/><stop offset="0.92" stop-color="#def" stop-opacity="0.53"/><stop offset="1" stop-color="#d6eaff" stop-opacity="0.5"/></linearGradient><linearGradient id="linear-gradient-17" x1="35.62" y1="267.72" x2="35.62" y2="272.51" xlink:href="#linear-gradient-16"/><linearGradient id="linear-gradient-18" x1="51.38" y1="263.25" x2="51.38" y2="272.59" xlink:href="#linear-gradient-16"/><linearGradient id="linear-gradient-19" x1="142.33" y1="261.63" x2="142.33" y2="263.99" xlink:href="#linear-gradient-16"/><linearGradient id="linear-gradient-20" x1="82.88" y1="263.26" x2="82.88" y2="279.2" xlink:href="#linear-gradient-16"/><linearGradient id="linear-gradient-21" x1="183.92" y1="268.54" x2="183.92" y2="279.01" xlink:href="#linear-gradient-16"/><linearGradient id="linear-gradient-22" x1="360.39" y1="295.54" x2="360.39" y2="236.61" xlink:href="#linear-gradient-9"/><linearGradient id="linear-gradient-23" x1="367.23" y1="234.79" x2="367.23" y2="202.37" xlink:href="#linear-gradient-9"/><linearGradient id="linear-gradient-24" x1="275.41" y1="309.11" x2="275.41" y2="254.65" xlink:href="#linear-gradient-9"/><linearGradient id="linear-gradient-25" x1="320.88" y1="234.41" x2="320.88" y2="236.61" xlink:href="#linear-gradient-16"/><linearGradient id="linear-gradient-26" x1="411.25" y1="221.86" x2="411.25" y2="242.06" xlink:href="#linear-gradient-16"/><linearGradient id="linear-gradient-27" x1="373.09" y1="230.5" x2="373.09" y2="242.11" xlink:href="#linear-gradient-16"/><linearGradient id="linear-gradient-28" x1="399.23" y1="222.47" x2="399.23" y2="224.99" xlink:href="#linear-gradient-16"/><linearGradient id="linear-gradient-29" x1="183.03" y1="325.53" x2="183.03" y2="313.42" gradientUnits="userSpaceOnUse"><stop offset="0.23" stop-color="#01a7c2"/><stop offset="0.42" stop-color="#37b4c6"/><stop offset="0.6" stop-color="#63bfca"/><stop offset="0.77" stop-color="#82c7cc"/><stop offset="0.9" stop-color="#95cbcd"/><stop offset="1" stop-color="#9ccdce"/></linearGradient><linearGradient id="linear-gradient-30" x1="197.05" y1="314.03" x2="197.05" y2="309.11" xlink:href="#linear-gradient-29"/><linearGradient id="linear-gradient-31" x1="384.25" y1="326.4" x2="384.25" y2="278.95" xlink:href="#linear-gradient-29"/><linearGradient id="linear-gradient-32" x1="349.77" y1="328.82" x2="349.77" y2="328.66" xlink:href="#linear-gradient-29"/><linearGradient id="linear-gradient-33" x1="334.32" y1="329.88" x2="334.32" y2="327.15" xlink:href="#linear-gradient-29"/><linearGradient id="linear-gradient-34" x1="326.61" y1="331.62" x2="326.61" y2="326.41" xlink:href="#linear-gradient-29"/><linearGradient id="linear-gradient-35" x1="323.17" y1="331.51" x2="323.17" y2="325.89" xlink:href="#linear-gradient-29"/><linearGradient id="linear-gradient-36" x1="336.55" y1="329.63" x2="336.55" y2="327.35" xlink:href="#linear-gradient-29"/><linearGradient id="linear-gradient-37" x1="332.59" y1="330.59" x2="332.59" y2="326.99" xlink:href="#linear-gradient-29"/><linearGradient id="linear-gradient-38" x1="257.21" y1="331.29" x2="257.21" y2="314.03" xlink:href="#linear-gradient-29"/><linearGradient id="linear-gradient-39" x1="340.38" y1="329.73" x2="340.38" y2="327.72" xlink:href="#linear-gradient-29"/><linearGradient id="linear-gradient-40" x1="338.49" y1="329.74" x2="338.49" y2="327.54" xlink:href="#linear-gradient-29"/><linearGradient id="linear-gradient-41" x1="347.08" y1="330.41" x2="347.08" y2="328.37" xlink:href="#linear-gradient-29"/><linearGradient id="linear-gradient-42" x1="344.9" y1="330.57" x2="344.9" y2="328.14" xlink:href="#linear-gradient-29"/><linearGradient id="linear-gradient-43" x1="328.37" y1="330.7" x2="328.37" y2="326.55" xlink:href="#linear-gradient-29"/><linearGradient id="linear-gradient-44" x1="342.2" y1="330.4" x2="342.2" y2="327.91" xlink:href="#linear-gradient-29"/><linearGradient id="linear-gradient-45" x1="330.94" y1="330.84" x2="330.94" y2="326.81" xlink:href="#linear-gradient-29"/><linearGradient id="linear-gradient-46" x1="343.65" y1="330.36" x2="343.65" y2="328.1" xlink:href="#linear-gradient-29"/><linearGradient id="linear-gradient-47" x1="388.47" y1="326.81" x2="388.47" y2="323.43" xlink:href="#linear-gradient-29"/><linearGradient id="linear-gradient-48" x1="291.45" y1="328.67" x2="291.45" y2="278.98" xlink:href="#linear-gradient-29"/><linearGradient id="linear-gradient-49" x1="162.28" y1="351.96" x2="162.28" y2="348.84" xlink:href="#linear-gradient-29"/><linearGradient id="linear-gradient-50" x1="171.75" y1="352.33" x2="171.75" y2="351.68" xlink:href="#linear-gradient-29"/><linearGradient id="linear-gradient-51" x1="164.57" y1="351.62" x2="164.57" y2="349.64" xlink:href="#linear-gradient-29"/><linearGradient id="linear-gradient-52" x1="100.96" y1="353.82" x2="100.96" y2="353.47" xlink:href="#linear-gradient-29"/><linearGradient id="linear-gradient-53" x1="166.33" y1="352.63" x2="166.33" y2="350.23" xlink:href="#linear-gradient-29"/><linearGradient id="linear-gradient-54" x1="103.81" y1="354.08" x2="103.81" y2="350.22" xlink:href="#linear-gradient-29"/><linearGradient id="linear-gradient-55" x1="103.76" y1="350.22" x2="103.76" y2="349.88" xlink:href="#linear-gradient-29"/><linearGradient id="linear-gradient-56" x1="114.98" y1="329.59" x2="114.98" y2="310.35" xlink:href="#linear-gradient-29"/><linearGradient id="linear-gradient-57" x1="125.04" y1="354.26" x2="125.04" y2="331.47" xlink:href="#linear-gradient-29"/><linearGradient id="linear-gradient-58" x1="168.11" y1="351.76" x2="168.11" y2="350.66" xlink:href="#linear-gradient-29"/><linearGradient id="linear-gradient-59" x1="173.8" y1="352.35" x2="173.8" y2="352.27" xlink:href="#linear-gradient-29"/><linearGradient id="linear-gradient-60" x1="169.25" y1="351.9" x2="169.25" y2="350.98" xlink:href="#linear-gradient-29"/><linearGradient id="linear-gradient-61" x1="159" y1="352.5" x2="159" y2="320.23" xlink:href="#linear-gradient-29"/><linearGradient id="linear-gradient-62" x1="227.86" y1="345.78" x2="227.86" y2="344.77" xlink:href="#linear-gradient-29"/><linearGradient id="linear-gradient-63" x1="324.66" y1="332.18" x2="324.66" y2="331.49" xlink:href="#linear-gradient-29"/><linearGradient id="linear-gradient-64" x1="322.81" y1="333.42" x2="322.81" y2="331.38" xlink:href="#linear-gradient-29"/><linearGradient id="linear-gradient-65" x1="320.36" y1="331.93" x2="320.36" y2="331.27" xlink:href="#linear-gradient-29"/><linearGradient id="linear-gradient-66" x1="326.7" y1="332.64" x2="326.7" y2="331.6" xlink:href="#linear-gradient-29"/><linearGradient id="linear-gradient-67" x1="266.61" y1="343.08" x2="266.61" y2="342.06" xlink:href="#linear-gradient-29"/><linearGradient id="linear-gradient-68" x1="318.59" y1="332.45" x2="318.59" y2="331.17" xlink:href="#linear-gradient-29"/><linearGradient id="linear-gradient-69" x1="305.46" y1="333.51" x2="305.46" y2="330.47" xlink:href="#linear-gradient-29"/><linearGradient id="linear-gradient-70" x1="303.94" y1="334.03" x2="303.94" y2="330.39" xlink:href="#linear-gradient-29"/><linearGradient id="linear-gradient-71" x1="301.58" y1="334.37" x2="301.58" y2="330.24" xlink:href="#linear-gradient-29"/><linearGradient id="linear-gradient-72" x1="299.49" y1="334.72" x2="299.49" y2="330.15" xlink:href="#linear-gradient-29"/><linearGradient id="linear-gradient-73" x1="252.02" y1="345.57" x2="252.02" y2="325.53" xlink:href="#linear-gradient-29"/><linearGradient id="linear-gradient-74" x1="307.77" y1="332.82" x2="307.77" y2="330.59" xlink:href="#linear-gradient-29"/><linearGradient id="linear-gradient-75" x1="314.89" y1="333.53" x2="314.89" y2="330.96" xlink:href="#linear-gradient-29"/><linearGradient id="linear-gradient-76" x1="316.84" y1="332.34" x2="316.84" y2="331.08" xlink:href="#linear-gradient-29"/><linearGradient id="linear-gradient-77" x1="309.5" y1="332.39" x2="309.5" y2="330.69" xlink:href="#linear-gradient-29"/><linearGradient id="linear-gradient-78" x1="311.91" y1="332.49" x2="311.91" y2="330.8" xlink:href="#linear-gradient-29"/></defs><title>Asset 4</title><g class="cls-2"><g id="Layer_2" data-name="Layer 2"><g id="OBJECTS"><g class="cls-3"><g class="cls-4"><path class="cls-5" d="M152.7,201.3a135.12,135.12,0,0,0,20.42-34.8c9.11-22.63,8.7-46.76,24.28-66.72C210.26,83.29,229.19,72,249,66.55,276.44,59,305.54,61,333.74,64.77s56.34,9.36,84.78,8.88q2.15,0,4.33-.15V45.68c-18.26,10.25-41.22,13.89-62.52,12.8C327,56.77,294.54,46.26,261.18,45.37s-70.57,11-85.48,40.85c-5.9,11.8-7.88,25-9.24,38-1.15,11-3.89,21.28-5.23,32.06-3.64,29.28-19.34,52.76-40,72.08,1.08-.64,2.17-1.28,3.24-1.94A114.52,114.52,0,0,0,152.7,201.3Z" transform="translate(-17.93 -45.32)"/></g><g class="cls-4"><path class="cls-5" d="M422.85,393.46l-1.87.37a765.8,765.8,0,0,1-85.76,11.5q-10.94.84-21.89,1.37c-29.94,1.44-60.54,1-89.17-7.56q-3.09-.93-6.15-2c-15.93-5.5-30.91-13.64-46.85-19-2-.68-4-1.33-6.1-1.91-22.9-6.49-49.25-6.74-67.35-21.62-.92-.76-1.83-1.55-2.72-2.39-.27-.26-.53-.52-.8-.79-2.89-3-5.31-6.72-4.81-10.76.27-2.18,1.37-4.16,1.93-6.28a12.79,12.79,0,0,0,.41-2.92,13.44,13.44,0,0,0-.1-1.88c-.68-6-5.19-11.54-10.58-14.67a47.48,47.48,0,0,0-11.23-4.43c-3.7-1-7.49-1.88-11.17-3a80,80,0,0,1-18.46-8.2C38,298,35.88,296.57,33.83,295a22.9,22.9,0,0,1-6.33-6.5c-3.38,2-6.65,4.34-8.38,7.82-4.66,9.36,5.09,20.16,15.26,22.56,14.77,3.48,32.24-3,44.08,9.26,2.74,2.84,4.85,6.56,4.77,10.5-.14,6.63-6.17,10.84-5.5,17.69A18.71,18.71,0,0,0,87,370.31c4,2.21,8.53,3.14,13,4,15.23,2.89,47.38,1.54,61.67,7.77,31.59,13.77,46,31.22,79.84,38.7a363.78,363.78,0,0,0,92.87,8.17,373.13,373.13,0,0,0,88.46-14.27Z" transform="translate(-17.93 -45.32)"/></g><g class="cls-4"><path class="cls-5" d="M293.92,203.34c1.88-1.85,4-3.84,6.59-4,1.38-.09,2.79.34,4.13,0,1.6-.38,2.76-1.74,3.8-3l16.33-20.08c-2-.3-4-.58-6-.77A79.91,79.91,0,0,0,295,176.67c-8.07,1.64-10.19-1.16-17.56-3.58-5.42-1.78-11.5,1-17.1.31-6.2-.82-12.28-2.92-18.62-1.95-3,.46-5.89,1.59-8.91,1.47a7.52,7.52,0,0,1-4.36-1.5c-2.49-2,.16-3.43,2.29-3.79a64.92,64.92,0,0,1,22.46-.33c6.67,1.1,15,.17,21.47-1.42,9.13-2.23,16.22-2,25.48-.11,9.71,2,19.57,3.89,29.45,4.48L338.82,159c.57-.69,1.45-1.44,2.23-1.12l3.25-4.65a34.72,34.72,0,1,1,10-5.72l1.81,12c2.47-1.76,6-.2,8.19,1.85s4.19,4.71,7.13,5.47c1.29.33,2.67.26,4,.64a7.74,7.74,0,0,1,3,1.78,31.76,31.76,0,0,0,8.69-.82c3.61-.91,6.94-2.66,10.4-4a54,54,0,0,1,25.38-3.54V73.49q-2.18.11-4.33.15c-28.44.48-56.59-5.09-84.78-8.87S276.44,59,249,66.55C229.19,72,210.26,83.29,197.39,99.78c-15.58,20-15.16,44.1-24.28,66.72a135.12,135.12,0,0,1-20.42,34.8,60.59,60.59,0,0,0,6.87,8.25,23.78,23.78,0,0,0,12.22,5.91l3.1-2.73c3.43,7.78,11.24,11.16,18.49,15.08,0,0,0-.06.06-.09.58-1.21-.16-2.66,0-4,.37-2.29,3.13-3.08,5.36-3.52,10.83-2.15,24.25-13.77,29.91-13.37s13.65,14.26,22,17.77a59.88,59.88,0,0,1,9.45,5.11,75.7,75.7,0,0,0,7-4.18A207.64,207.64,0,0,0,293.92,203.34Z" transform="translate(-17.93 -45.32)"/></g><path class="cls-6" d="M293.92,203.34c1.88-1.85,4-3.84,6.59-4,1.38-.09,2.79.34,4.13,0,1.6-.38,2.76-1.74,3.8-3l16.33-20.08c-2-.3-4-.58-6-.77A79.91,79.91,0,0,0,295,176.67c-8.07,1.64-10.19-1.16-17.56-3.58-5.42-1.78-11.5,1-17.1.31-6.2-.82-12.28-2.92-18.62-1.95-3,.46-5.89,1.59-8.91,1.47a7.52,7.52,0,0,1-4.36-1.5c-2.49-2,.16-3.43,2.29-3.79a64.92,64.92,0,0,1,22.46-.33c6.67,1.1,15,.17,21.47-1.42,9.13-2.23,16.22-2,25.48-.11,9.71,2,19.57,3.89,29.45,4.48L338.82,159c.57-.69,1.45-1.44,2.23-1.12l3.25-4.65a34.72,34.72,0,1,1,10-5.72l1.81,12c2.47-1.76,6-.2,8.19,1.85s4.19,4.71,7.13,5.47c1.29.33,2.67.26,4,.64a7.74,7.74,0,0,1,3,1.78,31.76,31.76,0,0,0,8.69-.82c3.61-.91,6.94-2.66,10.4-4a54,54,0,0,1,25.38-3.54V73.49q-2.18.11-4.33.15c-28.44.48-56.59-5.09-84.78-8.87S276.44,59,249,66.55C229.19,72,210.26,83.29,197.39,99.78c-15.58,20-15.16,44.1-24.28,66.72a135.12,135.12,0,0,1-20.42,34.8,60.59,60.59,0,0,0,6.87,8.25,23.78,23.78,0,0,0,12.22,5.91l3.1-2.73c3.43,7.78,11.24,11.16,18.49,15.08,0,0,0-.06.06-.09.58-1.21-.16-2.66,0-4,.37-2.29,3.13-3.08,5.36-3.52,10.83-2.15,24.25-13.77,29.91-13.37s13.65,14.26,22,17.77a59.88,59.88,0,0,1,9.45,5.11,75.7,75.7,0,0,0,7-4.18A207.64,207.64,0,0,0,293.92,203.34Z" transform="translate(-17.93 -45.32)"/><g class="cls-4"><path class="cls-5" d="M313.33,406.7q11-.53,21.89-1.37l-111.06-6.19C252.79,407.71,283.4,408.14,313.33,406.7Z" transform="translate(-17.93 -45.32)"/></g><path class="cls-7" d="M313.33,406.7q11-.53,21.89-1.37l-111.06-6.19C252.79,407.71,283.4,408.14,313.33,406.7Z" transform="translate(-17.93 -45.32)"/><g class="cls-4"><path class="cls-5" d="M393.7,185.4c1.13,1.06,2.27,2.11,3.44,3.12,4.06,3.52,4.14,4.08,8,.75a34.8,34.8,0,0,0,4.94-5.63c-4.28.52-8.56,1.09-12.88,1.5Q395.45,185.31,393.7,185.4Z" transform="translate(-17.93 -45.32)"/></g><path class="cls-8" d="M393.7,185.4c1.13,1.06,2.27,2.11,3.44,3.12,4.06,3.52,4.14,4.08,8,.75a34.8,34.8,0,0,0,4.94-5.63c-4.28.52-8.56,1.09-12.88,1.5Q395.45,185.31,393.7,185.4Z" transform="translate(-17.93 -45.32)"/><g class="cls-4"><path class="cls-5" d="M353.69,143.16l.65,4.33a34.51,34.51,0,1,0-10,5.72l6.58-9.4Zm-21.26.47a23,23,0,1,1,23-23A23,23,0,0,1,332.43,143.62Z" transform="translate(-17.93 -45.32)"/></g><path class="cls-9" d="M353.69,143.16l.65,4.33a34.51,34.51,0,1,0-10,5.72l6.58-9.4Zm-21.26.47a23,23,0,1,1,23-23A23,23,0,0,1,332.43,143.62Z" transform="translate(-17.93 -45.32)"/><path class="cls-10" d="M353.69,143.16l.65,4.33a34.51,34.51,0,1,0-10,5.72l6.58-9.4Zm-21.26.47a23,23,0,1,1,23-23A23,23,0,0,1,332.43,143.62Z" transform="translate(-17.93 -45.32)"/><g class="cls-4"><path class="cls-5" d="M332.43,97.62a23,23,0,1,0,23,23A23,23,0,0,0,332.43,97.62Zm0,37a14,14,0,1,1,14-14A14,14,0,0,1,332.43,134.62Z" transform="translate(-17.93 -45.32)"/></g><path class="cls-9" d="M332.43,97.62a23,23,0,1,0,23,23A23,23,0,0,0,332.43,97.62Zm0,37a14,14,0,1,1,14-14A14,14,0,0,1,332.43,134.62Z" transform="translate(-17.93 -45.32)"/><path class="cls-10" d="M332.43,97.62a23,23,0,1,0,23,23A23,23,0,0,0,332.43,97.62Zm0,37a14,14,0,1,1,14-14A14,14,0,0,1,332.43,134.62Z" transform="translate(-17.93 -45.32)"/><path class="cls-10" d="M332.43,97.62a23,23,0,1,0,23,23A23,23,0,0,0,332.43,97.62Zm0,37a14,14,0,1,1,14-14A14,14,0,0,1,332.43,134.62Z" transform="translate(-17.93 -45.32)"/><g class="cls-4"><path class="cls-5" d="M332.43,106.62a14,14,0,1,0,14,14A14,14,0,0,0,332.43,106.62Zm0,23.75a9.75,9.75,0,1,1,9.75-9.75A9.75,9.75,0,0,1,332.43,130.37Z" transform="translate(-17.93 -45.32)"/></g><path class="cls-9" d="M332.43,106.62a14,14,0,1,0,14,14A14,14,0,0,0,332.43,106.62Zm0,23.75a9.75,9.75,0,1,1,9.75-9.75A9.75,9.75,0,0,1,332.43,130.37Z" transform="translate(-17.93 -45.32)"/><path class="cls-10" d="M332.43,106.62a14,14,0,1,0,14,14A14,14,0,0,0,332.43,106.62Zm0,23.75a9.75,9.75,0,1,1,9.75-9.75A9.75,9.75,0,0,1,332.43,130.37Z" transform="translate(-17.93 -45.32)"/><path class="cls-10" d="M332.43,106.62a14,14,0,1,0,14,14A14,14,0,0,0,332.43,106.62Zm0,23.75a9.75,9.75,0,1,1,9.75-9.75A9.75,9.75,0,0,1,332.43,130.37Z" transform="translate(-17.93 -45.32)"/><path class="cls-10" d="M332.43,106.62a14,14,0,1,0,14,14A14,14,0,0,0,332.43,106.62Zm0,23.75a9.75,9.75,0,1,1,9.75-9.75A9.75,9.75,0,0,1,332.43,130.37Z" transform="translate(-17.93 -45.32)"/><circle class="cls-11" cx="314.5" cy="75.3" r="9.75"/><path class="cls-12" d="M397.47,164.39c-3.46,1.38-6.79,3.13-10.4,4a31.76,31.76,0,0,1-8.69.82,26.59,26.59,0,0,1,2.33,2.5,164.54,164.54,0,0,0,13,13.64q1.75-.09,3.49-.26c4.32-.41,8.6-1,12.88-1.5,1.48-2,2.9-4.07,4.34-5.85l1.43,5.16q3.37-5.1,7-10V160.85A54,54,0,0,0,397.47,164.39Z" transform="translate(-17.93 -45.32)"/><path class="cls-13" d="M300.18,165.78c-9.27-1.92-16.35-2.12-25.48.11-6.52,1.59-14.81,2.51-21.47,1.42a64.92,64.92,0,0,0-22.46.33c-2.12.36-4.78,1.76-2.29,3.79a7.52,7.52,0,0,0,4.36,1.5c3,.12,5.92-1,8.91-1.47,6.33-1,12.42,1.13,18.62,1.95,5.6.74,11.68-2.08,17.1-.31,7.37,2.42,9.49,5.22,17.56,3.58a79.91,79.91,0,0,1,23.72-1.21c2,.2,4,.47,6,.77l4.86-6C319.76,169.66,309.9,167.79,300.18,165.78Z" transform="translate(-17.93 -45.32)"/><g class="cls-14"><path class="cls-15" d="M75.76,261.66c16-9.6,31.8-20.55,45.47-33.32-18.56,11-38.92,18.34-58.53,27.24,3.85,1.76,8.08,2.92,11.66,5.2C74.83,261.08,75.29,261.38,75.76,261.66Z" transform="translate(-17.93 -45.32)"/></g><g class="cls-14"><path class="cls-15" d="M345.64,169.92c5.14-.59,10.22-1.7,15.39-1.81,5.77-.12,11.61,1,17.36,1.14a7.74,7.74,0,0,0-3-1.78c-1.28-.38-2.66-.3-4-.64-2.94-.76-4.9-3.42-7.13-5.47s-5.72-3.62-8.19-1.85l-1.81-12a34.62,34.62,0,0,1-10,5.72L341,157.85l.14.06c.81.49-.87,1.77-.76.83l.62-.88c-.78-.32-1.67.42-2.23,1.12l-9.18,11.29A91.57,91.57,0,0,0,345.64,169.92Z" transform="translate(-17.93 -45.32)"/></g><g class="cls-14"><path class="cls-15" d="M422.85,242.23v-.17l-.26-.06Z" transform="translate(-17.93 -45.32)"/></g><g class="cls-14"><path class="cls-15" d="M77.85,262.66a27.53,27.53,0,0,0,3.29.59l.08,0a230.13,230.13,0,0,1,61.6-1.63,16.65,16.65,0,0,0,2.41-2c1.95-2,3.29-4.67,5.64-6.15s5.22-1.55,7.48-3c3.57-2.36,4.93-7.76,9-8.9,1.45-.4,3.15-.21,4.31-1.19a10.93,10.93,0,0,0,1.59-2.24c1.15-1.63,3.07-2.47,4.88-3.23l13.1-5.52a4,4,0,0,0,2.11-1.53c-7.26-3.92-15.06-7.3-18.49-15.08l-3.1,2.73a23.78,23.78,0,0,1-12.22-5.91,60.59,60.59,0,0,1-6.87-8.25,114.52,114.52,0,0,1-28.23,25.1c-1.07.67-2.16,1.3-3.24,1.94-13.66,12.77-29.5,23.72-45.47,33.32A9.69,9.69,0,0,0,77.85,262.66Z" transform="translate(-17.93 -45.32)"/></g><g class="cls-14"><path class="cls-15" d="M341.19,157.91l-.14-.06-.62.88C340.32,159.68,342,158.4,341.19,157.91Z" transform="translate(-17.93 -45.32)"/></g><g class="cls-14"><path class="cls-15" d="M320.41,239.67c1.1-1,2.16-2,3.19-3.06q-3.59-.43-7.15-1c2.83-2.3,5.71-.44,8.81-.78h.06c6.36-6.9,12.11-14.69,21-17.12a9,9,0,0,0,5.57,4.49c9,2.38,14.69-5.44,19.42-11.72,11.78-15.65,8.79-5.53,20.36,5,2.41,2.2,5.12,4.55,8,7a97.13,97.13,0,0,1,18.7-.29c1.5.12,3,.27,4.5.34v-40c-4.29.18-8.54.63-12.78,1.14a34.8,34.8,0,0,1-4.94,5.63c-3.85,3.33-3.93,2.76-8-.75-1.17-1-2.31-2.07-3.44-3.12-7.12.37-14.36-.29-20.66-3.52-4-2-7.61-5.1-12-5.74-3.86-.56-7.7.82-11.54,1.52-8.16,1.47-16.42-.18-24.68-1.41l-16.33,20.08c-1,1.28-2.2,2.64-3.8,3-1.34.32-2.75-.11-4.13,0-2.63.18-4.71,2.18-6.59,4a207.64,207.64,0,0,1-26.74,22.2,75.7,75.7,0,0,1-7,4.18c9.61,6.24,18.06,14.6,28.07,20.29a89.26,89.26,0,0,0,9.64,4.64l11.16-7A86,86,0,0,0,320.41,239.67Z" transform="translate(-17.93 -45.32)"/></g><g class="cls-14"><path class="cls-15" d="M409.84,230.42c1.51-.22,3.26-.72,3.78-2.16a21.06,21.06,0,0,0-11-3.26l6.54,5.51Z" transform="translate(-17.93 -45.32)"/></g><g class="cls-14"><path class="cls-15" d="M110.08,277.34c-1,.24-2.06.53-3.09.82,3.37,2.46,7.32,5.18,10.18,5.36,2.65.16,4.91-3.56,7-6.65A43.18,43.18,0,0,0,110.08,277.34Z" transform="translate(-17.93 -45.32)"/></g><g class="cls-14"><path class="cls-15" d="M110.47,268.44c3.58,2.35,8.22,2.05,12.5,1.87,2.48-.11,5-.14,7.43-.13a54.9,54.9,0,0,1,7.74-5.68L139,264q-9.57.6-19.16.79C116.31,264.84,112.07,265.28,110.47,268.44Z" transform="translate(-17.93 -45.32)"/></g><g class="cls-14"><path class="cls-15" d="M353.69,143.16l-2.81.64-6.58,9.4a34.62,34.62,0,0,0,10-5.72Z" transform="translate(-17.93 -45.32)"/></g><g class="cls-14"><path class="cls-15" d="M414.41,177.79c-1.44,1.78-2.86,3.85-4.34,5.85,4.24-.51,8.49-1,12.78-1.14v-9.58q-3.63,4.92-7,10Z" transform="translate(-17.93 -45.32)"/></g><g class="cls-14"><path class="cls-15" d="M380.72,171.75a26.59,26.59,0,0,0-2.33-2.5c-5.74-.15-11.58-1.26-17.36-1.14-5.17.11-10.26,1.22-15.39,1.81a91.57,91.57,0,0,1-16,.34l-4.86,6c8.26,1.23,16.53,2.89,24.68,1.41,3.84-.69,7.68-2.08,11.54-1.52,4.43.64,8.06,3.7,12,5.74,6.3,3.23,13.54,3.89,20.66,3.52A164.54,164.54,0,0,1,380.72,171.75Z" transform="translate(-17.93 -45.32)"/></g><path class="cls-16" d="M32.17,272.5l-.18.15.24-.15Z" transform="translate(-17.93 -45.32)"/><path class="cls-17" d="M228.78,206.85c-5.66-.4-19.08,11.21-29.91,13.37-2.23.44-5,1.23-5.36,3.52-.21,1.33.53,2.78,0,4,0,0,0,.06-.06.09a41.11,41.11,0,0,1,9.35,6.4c7.57,7.39,18.28,25,31.14,16.49,2.88-1.91,5.12-5.11,7.47-8,4.41-5.51,12-9.18,18.9-12.94a59.88,59.88,0,0,0-9.45-5.11C242.43,221.11,234.43,207.25,228.78,206.85Z" transform="translate(-17.93 -45.32)"/><path class="cls-18" d="M101.4,311.3c19.73,1.69,39.18,5.65,58.72,8.93,9.64-2.06,19.24-4.36,28.81-6.81L40.21,299.31a80,80,0,0,0,18.46,8.2c3.68,1.1,7.46,1.94,11.17,3A269.57,269.57,0,0,1,101.4,311.3Z" transform="translate(-17.93 -45.32)"/><path class="cls-19" d="M53.61,264.57c3.31-.9,6.16-1.72,9.66-1.1,1.8.32,3.55.94,5.37,1.18a14.82,14.82,0,0,0,1.89.12q2.62-1.53,5.24-3.1c-.47-.28-.93-.58-1.4-.88-3.58-2.28-7.81-3.44-11.66-5.2-5.19,2.36-10.34,4.82-15.37,7.49-1.1.58-2.19,1.19-3.29,1.8H45.3C48.12,264.89,50.91,265.3,53.61,264.57Z" transform="translate(-17.93 -45.32)"/><path class="cls-20" d="M57.16,272.3l1.62-.89c-7.11-2.13-14.85.84-22.36,1.15-1.39.06-2.79,0-4.18-.06l-.24.15c-3.8,3.36-6.62,7.55-5.8,12.35a10.64,10.64,0,0,0,1.31,3.54l1.83-1.07C38.5,282.22,47.89,277.37,57.16,272.3Z" transform="translate(-17.93 -45.32)"/><path class="cls-21" d="M33.83,295c2.05,1.53,4.19,2.95,6.38,4.27l148.72,14.1q8.14-2.09,16.25-4.3,15.59-8,30.83-16.7c19.45-11.09,38.41-23,57.38-34.9l4.56-2.86A89.26,89.26,0,0,1,288.3,250c-10-5.69-18.46-14-28.07-20.29-6.88,3.76-14.49,7.43-18.9,12.94-2.34,2.93-4.58,6.13-7.47,8-12.86,8.5-23.57-9.1-31.14-16.49a41.11,41.11,0,0,0-9.35-6.4,4,4,0,0,1-2.11,1.53l-13.1,5.52c-1.82.77-3.73,1.61-4.88,3.23a10.93,10.93,0,0,1-1.59,2.24c-1.16,1-2.86.79-4.31,1.19-4.11,1.13-5.47,6.54-9,8.9-2.26,1.49-5.19,1.6-7.48,3s-3.7,4.15-5.64,6.15a16.65,16.65,0,0,1-2.41,2l2.85.32c-.26,1.34-2,1.73-3.34,1.83L139,264l-.86.51a54.9,54.9,0,0,0-7.74,5.68c17.17.1,34.32,2.7,51.5,2.46,18.41-.26,36.66-3.79,55.07-4.09,2.33,0,4.86,0,6.65,1.54-7.72.24-15.21,2.46-22.82,3.79-15.41,2.69-31.19,1.71-46.79,2.91-11.29.86-22.57,2.87-33.86,2-5.31-.39-10.65-1.4-16-1.94-2.14,3.09-4.39,6.81-7,6.65-2.86-.17-6.8-2.9-10.18-5.36a21.84,21.84,0,0,1-6.08,1c-4.26-.06-5.13-2.72-7.94-5-6.26-5-15.93-1-22.78-.3a15.92,15.92,0,0,1-5.57-.24c-1.69-.44-3.22-1.34-4.85-1.94-.33-.12-.65-.22-1-.32l-1.62.89c-9.27,5.07-18.66,9.92-27.83,15.18l-1.83,1.07A22.9,22.9,0,0,0,33.83,295Z" transform="translate(-17.93 -45.32)"/><path class="cls-22" d="M77.22,263.94q2-.36,4-.68l-.08,0a27.53,27.53,0,0,1-3.29-.59,9.69,9.69,0,0,1-2.08-1q-2.62,1.57-5.24,3.1A37.35,37.35,0,0,0,77.22,263.94Z" transform="translate(-17.93 -45.32)"/><path class="cls-23" d="M81.21,263.26a24.13,24.13,0,0,1,7,3c4.91,2.74,9.62,5.81,14.37,8.81,1.18.75,2.7,1.89,4.36,3.1,1-.28,2.06-.58,3.09-.82a43.18,43.18,0,0,1,14.12-.47,24,24,0,0,1,1.94-2.53,56.09,56.09,0,0,1,4.26-4.15c-2.48,0-5,0-7.43.13-4.28.18-8.92.48-12.5-1.87,1.59-3.16,5.84-3.6,9.37-3.66q9.59-.18,19.16-.79c1.29-.76,2.59-1.5,3.81-2.36A230.13,230.13,0,0,0,81.21,263.26Z" transform="translate(-17.93 -45.32)"/><path class="cls-24" d="M39.07,267.72l-1.37.8a40.66,40.66,0,0,0-5.53,4h.07C34.57,271,36.84,269.39,39.07,267.72Z" transform="translate(-17.93 -45.32)"/><path class="cls-25" d="M36.42,272.56c7.51-.31,15.25-3.29,22.36-1.15q5.83-3.21,11.74-6.64a14.82,14.82,0,0,1-1.89-.12c-1.82-.24-3.56-.85-5.37-1.18-3.5-.63-6.35.19-9.66,1.1-2.69.73-5.48.32-8.31.32H44q-2.51,1.39-5,2.85c-2.23,1.67-4.5,3.28-6.83,4.78C33.63,272.58,35,272.62,36.42,272.56Z" transform="translate(-17.93 -45.32)"/><path class="cls-26" d="M142.32,263.78c1.37-.1,3.07-.48,3.34-1.83l-2.85-.32c-1.22.85-2.52,1.6-3.81,2.36Z" transform="translate(-17.93 -45.32)"/><path class="cls-27" d="M88.26,266.24a24.13,24.13,0,0,0-7-3q-2,.32-4,.68a37.35,37.35,0,0,1-6.7.82q-5.9,3.44-11.74,6.64c.33.1.66.19,1,.32,1.63.61,3.16,1.5,4.85,1.94a15.92,15.92,0,0,0,5.57.24c6.86-.66,16.52-4.74,22.78.3,2.82,2.27,3.68,4.93,7.94,5a21.84,21.84,0,0,0,6.08-1c-1.66-1.21-3.18-2.35-4.36-3.1C97.87,272.06,93.17,269,88.26,266.24Z" transform="translate(-17.93 -45.32)"/><path class="cls-28" d="M126.15,274.34a24,24,0,0,0-1.94,2.53c5.31.54,10.65,1.55,16,1.94,11.29.84,22.57-1.17,33.86-2,15.59-1.19,31.38-.22,46.79-2.91,7.61-1.33,15.1-3.54,22.82-3.79-1.79-1.49-4.33-1.57-6.65-1.54-18.41.3-36.66,3.83-55.07,4.09-17.19.24-34.34-2.36-51.5-2.46A56.09,56.09,0,0,0,126.15,274.34Z" transform="translate(-17.93 -45.32)"/><path class="cls-29" d="M345.64,279c26.75-.47,53.69,4.09,77.21,16.56V242.23l-.26-.23c-.42-.09-.84-.19-1.25-.3-3.9-1.07-7.56-3.17-11.6-3.47-5-.38-9.25,2.29-14,2.62-5.59.39-11.35-.05-17,.23l-21,1a1.09,1.09,0,0,1,.44-1.47,3.53,3.53,0,0,1,1.67-.35,19,19,0,0,0,5.1-1c.5-.17,1.07-.46,1.13-1,.1-.84-1.06-1.14-1.91-1.12-7,.17-13.93.29-21,.43a142.28,142.28,0,0,1-19.64-1c-1,1.06-2.09,2.09-3.19,3.06a86,86,0,0,1-11.32,8l-11.16,7c4.67,2,9.44,3.69,14.12,5.62A167.46,167.46,0,0,1,345.64,279Z" transform="translate(-17.93 -45.32)"/><path class="cls-30" d="M361,233c4,.19,7.94.55,11.86,0,2.55-.37,5-1.13,7.55-1.61,9.43-1.8,19.23.3,28.75-.9L402.61,225h-.37c-2.37,0-5.34.11-6.38-2,1.26-.19,2.53-.35,3.79-.49-2.89-2.47-5.59-4.82-8-7-11.56-10.54-8.58-20.66-20.36-5-4.73,6.28-10.43,14.1-19.42,11.72a9,9,0,0,1-5.57-4.49c-8.86,2.43-14.61,10.22-21,17.12,3.89-.43,7.79-.83,11.7-1.15A185.33,185.33,0,0,1,361,233Z" transform="translate(-17.93 -45.32)"/><path class="cls-31" d="M329.26,279.87c5.43-.49,10.9-.8,16.38-.89a167.46,167.46,0,0,0-33.59-18.7c-4.68-1.93-9.45-3.66-14.12-5.62l-4.56,2.86c-19,11.9-37.93,23.8-57.38,34.9q-15.23,8.69-30.83,16.7c9.95-2.71,19.86-5.53,29.74-8.37C265.93,291.86,297.14,282.79,329.26,279.87Z" transform="translate(-17.93 -45.32)"/><path class="cls-32" d="M325.26,234.8c-3.1.34-6-1.52-8.81.78q3.56.61,7.15,1c.58-.6,1.15-1.21,1.72-1.82Z" transform="translate(-17.93 -45.32)"/><path class="cls-33" d="M418.35,222.18a97.13,97.13,0,0,0-18.7.29l3,2.52a21.06,21.06,0,0,1,11,3.26c-.51,1.44-2.26,1.95-3.78,2.16l-.69.08c4.42,3.72,9,7.59,13.44,11.5l.26.06V222.52C421.35,222.45,419.85,222.3,418.35,222.18Z" transform="translate(-17.93 -45.32)"/><path class="cls-34" d="M380.39,231.4c-2.53.48-5,1.24-7.55,1.61-3.92.57-7.91.21-11.86,0a185.33,185.33,0,0,0-24,.61c-3.9.32-7.8.72-11.7,1.15-.57.61-1.14,1.22-1.72,1.82a142.28,142.28,0,0,0,19.64,1c7.06-.14,13.95-.26,21-.43.84,0,2,.28,1.91,1.12-.06.53-.63.82-1.13,1a19,19,0,0,1-5.1,1,3.53,3.53,0,0,0-1.67.35,1.09,1.09,0,0,0-.44,1.47l21-1c5.63-.28,11.39.17,17-.23,4.76-.33,9-3,14-2.62,4,.31,7.69,2.4,11.6,3.47.41.11.83.21,1.25.3-4.46-3.91-9-7.78-13.44-11.5C399.62,231.7,389.83,229.6,380.39,231.4Z" transform="translate(-17.93 -45.32)"/><path class="cls-35" d="M402.24,225h.37l-3-2.52c-1.27.14-2.53.3-3.79.49C396.9,225.09,399.87,225,402.24,225Z" transform="translate(-17.93 -45.32)"/><path class="cls-36" d="M171.47,322c11.42,1.69,22.93,2.74,34.48,3.5l-12.08-10.72,1.56-.78-6.5-.62c-9.57,2.45-19.17,4.75-28.81,6.81C163.9,320.86,167.68,321.48,171.47,322Z" transform="translate(-17.93 -45.32)"/><path class="cls-37" d="M205.17,309.11q-8.11,2.21-16.25,4.3l6.5.62Q200.31,311.6,205.17,309.11Z" transform="translate(-17.93 -45.32)"/><path class="cls-38" d="M345.64,279a170.61,170.61,0,0,1,36.53,35.55,53.86,53.86,0,0,1,5.3,8.16l.18-.62.18,1.36a26.18,26.18,0,0,1,1.19,3,5.71,5.71,0,0,1,1-4.37,7.72,7.72,0,0,0,.13,3.93,12.82,12.82,0,0,1,1.33-4.82,16.26,16.26,0,0,0,.58,4.33,7.28,7.28,0,0,0-.32-5.77,27,27,0,0,1,3,4.45,13,13,0,0,1,0-4.91,10.9,10.9,0,0,0,1.16,4.14,9.49,9.49,0,0,1,1.33-5.52,12.08,12.08,0,0,0,.11,4.79,18.3,18.3,0,0,1,1.11-4.22,9.22,9.22,0,0,0,.49,4.14l2.58-5.07a9.43,9.43,0,0,0-.21,4.46,22.22,22.22,0,0,1,1.56-5,6.36,6.36,0,0,0,.61,4l1.32-3.79.19,2.67a6.83,6.83,0,0,0,.48-4.67,6.47,6.47,0,0,0-.22-.71,6.47,6.47,0,0,1,.22.71l1.17,3.74a24.6,24.6,0,0,1,.8-5.41q0,2.44.11,4.88a11.51,11.51,0,0,0,1.85-4.72,11.05,11.05,0,0,0,1.25,3.51,10.19,10.19,0,0,1,1.43-5.27,12.5,12.5,0,0,0-.17,3.69c0,.28.1.6.36.71.44.2.82-.36,1-.81l1.59-4.73a7.4,7.4,0,0,0,.68,4.52,31.8,31.8,0,0,0,1.73-5.3,21.73,21.73,0,0,0-.31,4.11l1.18-4.13a20.34,20.34,0,0,0,.79,3.86,9.52,9.52,0,0,0,.7-4.74l.93,2.92c.12.37.28.8.66.93.62.21,1.12-.51,1.35-1.1.09-.24.17-.49.26-.73V295.54C399.34,283.07,372.39,278.51,345.64,279Z" transform="translate(-17.93 -45.32)"/><path class="cls-39" d="M349.83,328.67h-.13l.14.16Z" transform="translate(-17.93 -45.32)"/><path class="cls-40" d="M334.28,329.88a10.89,10.89,0,0,0,.55-2.63l-1-.1q0,.93,0,1.87C333.79,329.38,333.91,329.87,334.28,329.88Z" transform="translate(-17.93 -45.32)"/><path class="cls-41" d="M326.48,331.6l.45,0c.14-1.52.28-3.67.41-5.08l-1.39-.13A13.46,13.46,0,0,0,326.48,331.6Z" transform="translate(-17.93 -45.32)"/><path class="cls-42" d="M323.22,331.43a16.31,16.31,0,0,1,.72-4.91q0,1.58.13,3.15a5.29,5.29,0,0,0,.36,1.82l.46,0a11.44,11.44,0,0,1,1-5.11l-5.39-.51c1.06,1.64,1.36,3.62,1.93,5.5Z" transform="translate(-17.93 -45.32)"/><path class="cls-43" d="M337.18,327.47l-1.28-.12q.14,1.15.4,2.28A6.25,6.25,0,0,0,337.18,327.47Z" transform="translate(-17.93 -45.32)"/><path class="cls-44" d="M332.19,330.59c.71-.69.66-2.25.86-3.51l-.91-.09A32.13,32.13,0,0,0,332.19,330.59Z" transform="translate(-17.93 -45.32)"/><path class="cls-45" d="M298.1,330.12a3.88,3.88,0,0,1,.66-1.15,11.72,11.72,0,0,0,.06,1.18l1.35.07a1.74,1.74,0,0,1,.19-.51l.15.53,2.14.11a5.91,5.91,0,0,1,1.06-1.6,11.76,11.76,0,0,0-.43,1.63l1.43.07.05-.21.05.22,1.27.07,0-2.64,1.2,2.7,1,.05a8.69,8.69,0,0,1,.71-2.47,11.5,11.5,0,0,0,0,2.51l.93,0a9.82,9.82,0,0,1,1.09-3.14,22.2,22.2,0,0,0,.21,3.21l1.3.07c0-.32.08-.64.13-1a3.66,3.66,0,0,1,1.12-2.34,10.21,10.21,0,0,0,.47,3.39l.93,0a18,18,0,0,1,1.89-3,5.1,5.1,0,0,0-.51,3.08l.49,0a12.9,12.9,0,0,1,1-2.29,16,16,0,0,0,.22,2.35l.57,0,.63-2.39a10.33,10.33,0,0,0,.67,2.46l.36,0c0-1.8,0-3.6-.12-5.4L195.42,314l-1.56.78,12.08,10.72c17.28,1.13,34.64,1.58,51.89,2.48Z" transform="translate(-17.93 -45.32)"/><path class="cls-46" d="M340.92,327.83l-1.08-.1c0,.67.12,1.34.23,2A4,4,0,0,0,340.92,327.83Z" transform="translate(-17.93 -45.32)"/><path class="cls-47" d="M338.5,329.73a.39.39,0,0,0,.2-.23,6.27,6.27,0,0,0,.37-1.85l-1.16-.11a9.64,9.64,0,0,0,.16,1.74C338.11,329.51,338.28,329.81,338.5,329.73Z" transform="translate(-17.93 -45.32)"/><path class="cls-48" d="M347.47,328.45l-.79-.07.8,2C347.47,329.76,347.46,329.1,347.47,328.45Z" transform="translate(-17.93 -45.32)"/><path class="cls-49" d="M345.62,328.27l-1.44-.14.39,2.44A3.89,3.89,0,0,0,345.62,328.27Z" transform="translate(-17.93 -45.32)"/><path class="cls-50" d="M329.28,326.72l-1.82-.17a9.34,9.34,0,0,0,1.1,4.15A15.82,15.82,0,0,1,329.28,326.72Z" transform="translate(-17.93 -45.32)"/><path class="cls-51" d="M341.62,330.4a17.92,17.92,0,0,1,1.27-2.38l-1.08-.1A4.16,4.16,0,0,0,341.62,330.4Z" transform="translate(-17.93 -45.32)"/><path class="cls-52" d="M331.65,326.95l-1.43-.14a10.68,10.68,0,0,0,.64,4A21.48,21.48,0,0,1,331.65,326.95Z" transform="translate(-17.93 -45.32)"/><path class="cls-53" d="M344,328.12l-.28,0-.5,2.26A6.69,6.69,0,0,1,344,328.12Z" transform="translate(-17.93 -45.32)"/><path class="cls-54" d="M389.1,326.81c0-.13-.05-.27-.08-.41a26.18,26.18,0,0,0-1.19-3l.26,1.95C388.18,326,388.45,326.81,389.1,326.81Z" transform="translate(-17.93 -45.32)"/><path class="cls-55" d="M320.42,325.88s0-.06,0-.09l.05.1,5.39.51.09-.19c0,.07,0,.13,0,.2l1.39.13c0-.24,0-.47.07-.66q0,.33.05.67l1.82.17a6.13,6.13,0,0,1,1-1.8c0,.62,0,1.26,0,1.89l1.43.14a9.07,9.07,0,0,1,.54-1.3c0,.45,0,.9-.05,1.35l.91.09a2.4,2.4,0,0,1,.73-1.6q0,.84,0,1.67l1,.1a4.55,4.55,0,0,1,.89-2.36,23.68,23.68,0,0,0,.18,2.46l1.28.12a4.57,4.57,0,0,1,.92-2,9.67,9.67,0,0,0-.2,2l1.16.11a2.57,2.57,0,0,1,.72-1.76c0,.61,0,1.22.05,1.83l1.08.1v0a4.75,4.75,0,0,1,2.48-2.75,12.78,12.78,0,0,0-1.61,2.88l1.08.1a18.08,18.08,0,0,1,1.28-1.79l-.41,1.87.28,0c0-.06.07-.13.12-.19l0,.21,1.44.14a9.19,9.19,0,0,0-.21-3.13l1.27,3.23.79.07a20.39,20.39,0,0,1,.2-2.87l-.08-.17.11,0c0,.07,0,.14,0,.22a10.52,10.52,0,0,0,2,3.08h.13l-.19-3.83a4.79,4.79,0,0,0,1.82,3.26,7,7,0,0,0-.12-2.32,2.78,2.78,0,0,0,1.28,1.45,7.4,7.4,0,0,0-.88-4.1,12.54,12.54,0,0,1,3.08,3.67l0-2.67a4,4,0,0,0,1.32,3.22,6,6,0,0,1,1.18-4.78,5.08,5.08,0,0,0,1.2,4.45l.33-4.09a6.91,6.91,0,0,0,2.27,4.47,33.49,33.49,0,0,1,.21-4.94,11.42,11.42,0,0,0,2.42,4.45,6,6,0,0,0-1.06-3.62,13.5,13.5,0,0,1,3.28,3.35,7.27,7.27,0,0,1,.84-4.72,8.24,8.24,0,0,0,1.58,4.6,5.86,5.86,0,0,1,.71-3.33,3.81,3.81,0,0,0,1.65,3.71l.11-2.14a4.49,4.49,0,0,0,1.61,2.2,6.54,6.54,0,0,1,1.33-5.23,6.53,6.53,0,0,0,.84,4.46l.41-3.75a6.35,6.35,0,0,0,1.66,3.46,17.47,17.47,0,0,1,.42-4,5.31,5.31,0,0,0,2,4.18,7.82,7.82,0,0,1,.9-5.5,7.71,7.71,0,0,0,.9,4.81,12.07,12.07,0,0,1,1-5,5.7,5.7,0,0,0,1.29,5,15,15,0,0,0,.19-3.94l.57,3.11a5.61,5.61,0,0,0,.45-3.24,8.66,8.66,0,0,0,2,4.8l.68,0a7.74,7.74,0,0,1,.32-3.37,53.86,53.86,0,0,0-5.3-8.16A170.61,170.61,0,0,0,345.64,279c-5.48.1-10.95.4-16.38.89-32.13,2.92-63.34,12-94.35,20.87-9.88,2.83-19.8,5.65-29.74,8.37q-4.86,2.5-9.75,4.92Z" transform="translate(-17.93 -45.32)"/><path class="cls-56" d="M160.8,350.64a1.45,1.45,0,0,0,.21,1.16l1.19-2.52a13.53,13.53,0,0,0-.06,1.9,1,1,0,0,0,.23.69.26.26,0,0,0,.19.08c.12,0,.19-.14.23-.25a5.53,5.53,0,0,1,1-2.13l-2.63-.74A13.71,13.71,0,0,0,160.8,350.64Z" transform="translate(-17.93 -45.32)"/><path class="cls-57" d="M171.83,352.33l.14-.53-.44-.12A2.28,2.28,0,0,0,171.83,352.33Z" transform="translate(-17.93 -45.32)"/><path class="cls-58" d="M163.92,351.1c0,.2,0,.44.23.51s.46-.28.54-.56a3.92,3.92,0,0,1,.51-1.08l-1.2-.33A11.09,11.09,0,0,0,163.92,351.1Z" transform="translate(-17.93 -45.32)"/><path class="cls-59" d="M101.14,353.82l-.35-.35A.92.92,0,0,0,101.14,353.82Z" transform="translate(-17.93 -45.32)"/><path class="cls-60" d="M165.45,352.63a5.69,5.69,0,0,0,1.77-2.11l-1.07-.29A6.89,6.89,0,0,0,165.45,352.63Z" transform="translate(-17.93 -45.32)"/><path class="cls-61" d="M103.66,352.94a1.65,1.65,0,0,0,.29,1.14l-.13-1.35q.08-1.12.11-2.24a1.24,1.24,0,0,0,0-.25v0A18.89,18.89,0,0,0,103.66,352.94Z" transform="translate(-17.93 -45.32)"/><path class="cls-62" d="M103.63,349.88l.26.34v0C103.86,350,103.78,349.91,103.63,349.88Z" transform="translate(-17.93 -45.32)"/><path class="cls-63" d="M101.4,311.3a269.57,269.57,0,0,0-31.56-.81,47.48,47.48,0,0,1,11.23,4.43c5.39,3.13,9.9,8.71,10.58,14.67,23-1,45.85-4.52,68.48-9.36C140.58,316.95,121.14,313,101.4,311.3Z" transform="translate(-17.93 -45.32)"/><path class="cls-64" d="M95.24,351.12a1.74,1.74,0,0,0,.16,1.13c.37-1.12,1-1.15,1.9-1.93-.29.68-.37.44-.35,1.17,0,.27,0,1.55.22,1.7a7.7,7.7,0,0,1,1.34-3,3.16,3.16,0,0,0,.62-1c.12-.45,0-1,.31-1.34a7.29,7.29,0,0,1-.09,3.32c-.27,1-.76,2.08-.4,3.07l.2-.17a1.1,1.1,0,0,1,0-1,17.82,17.82,0,0,1,2.19-4.42,6.2,6.2,0,0,0-.87,3.68c0,.1,0,.2,0,.29a3.74,3.74,0,0,1,.24-.74,6.43,6.43,0,0,1,1-1.88,6.32,6.32,0,0,0,.35,3.9l-.07-.71a7.71,7.71,0,0,1,2.42-5.73,18.94,18.94,0,0,0-.63,2.71v0l1.7,2.23a7,7,0,0,1,1.23-3.81,5.24,5.24,0,0,0,.22,2.55,12.14,12.14,0,0,1,1.09-2.24L108,350.6c0,.19,0,.46.24.47a8.89,8.89,0,0,1,2.84-4.17,11.87,11.87,0,0,0-.91,3.7c0,.16,0,.36.14.45a8.29,8.29,0,0,1,1.18-2.23,7.88,7.88,0,0,0-.44,2.13.75.75,0,0,0,.08.47.3.3,0,0,0,.42.09.44.44,0,0,0,.1-.27,3.11,3.11,0,0,1,.88-1.76,5.06,5.06,0,0,0,.16,2.33,10,10,0,0,0,1.09-4.58c.32,1.52,1.33,2.85,1.58,4.38a6.27,6.27,0,0,1,2.57-4.67,5.06,5.06,0,0,0-.54,4.58,1.13,1.13,0,0,0,.38-.65,6.61,6.61,0,0,1,2.36-3.23,4.82,4.82,0,0,0-.38,2.93c.2,1.07.76,2.1.89,3.15v-1.65c-.25-1.21.5-2.37,1.23-3.37a6,6,0,0,0-.26,2.12.94.94,0,0,0,.36.81l.24-1.44c.08-.46.2-1,.63-1.19a6.25,6.25,0,0,0,.57,2.43,8.83,8.83,0,0,1,1.95-5.26,9.17,9.17,0,0,0,1.09,5.89,12,12,0,0,0,.19-1.9,2.49,2.49,0,0,1,.75-1.72,12.5,12.5,0,0,0,0,2.28c0,.31.12.7.44.77a5.38,5.38,0,0,1,.74-2.58l-.11,2.06c0,.21,0,.5.26.51s.29-.24.32-.43a10,10,0,0,1,1.46-3.72c-.14.74-.28,1.49-.34,2.24a3.18,3.18,0,0,0,.58,2.5q.31-1.08.53-2.19a3.51,3.51,0,0,0-.11-2.38,8,8,0,0,1,1.8,4.36,3.4,3.4,0,0,0,.22-1.15,2.8,2.8,0,0,1,1.7-2.14c-.13.52-.39,1-.55,1.53a2,2,0,0,0,.08,1.57,5.75,5.75,0,0,1,2.84-2.63,3.06,3.06,0,0,0-1.31,3.07,9.21,9.21,0,0,0,1.07-1.23,2.25,2.25,0,0,1,1.35-.87l-.47,1.59c.19,0,.33-.17.41-.35l1-2.47a9.57,9.57,0,0,1,.78,4,7.45,7.45,0,0,1,1.34-3.18c.07-.09.13-.19.2-.29-.07.09-.13.19-.2.29a1.82,1.82,0,0,0-.19.92,4.72,4.72,0,0,0,.28,1.26,3.59,3.59,0,0,1,.6-1.57q.27.76.51,1.54a7.54,7.54,0,0,1,2.14-3.91,6.63,6.63,0,0,0-.33,4.32,11.35,11.35,0,0,1,1.57-3.16l-.15,2.21c0,.15,0,.33.13.41s.63-.54.73-.73l1.25-2.38c-.22,2-.53,2.82-.62,4.56a5.68,5.68,0,0,0,1-2.84l1,2.15a4,4,0,0,1,.71-2,9.72,9.72,0,0,1,.34,1.12,9.89,9.89,0,0,1,2.15-3.76,12.64,12.64,0,0,0-.73,2.63,3.2,3.2,0,0,0-.05.83.34.34,0,0,0,.07.2.28.28,0,0,0,.37,0,.81.81,0,0,0,.21-.34,10,10,0,0,1,2.66-3.72,11.1,11.1,0,0,0-1.35,4.23c0,.16.05.37.21.37s.17-.11.22-.2c.61-1.14,1.16-2.43,2.32-3.05a15.3,15.3,0,0,0-.53,3.23l0,.71a9.19,9.19,0,0,0,1.17-2.35,10.35,10.35,0,0,0,.7,2q.37-1,.72-1.94a6.33,6.33,0,0,0,.64,1.72,7.74,7.74,0,0,0,.74-1.9,5.11,5.11,0,0,1,.75-1.35c-22.91-6.45-45.64-13.71-69-17.26a12.79,12.79,0,0,1-.41,2.92c-.56,2.12-1.66,4.1-1.93,6.28-.5,4,1.93,7.8,4.81,10.76.57-.72,1.36-3.15,2-3.7A9.79,9.79,0,0,0,95.24,351.12Z" transform="translate(-17.93 -45.32)"/><path class="cls-65" d="M167.88,351.76a2.79,2.79,0,0,0,.6-.9l-.73-.2A9.31,9.31,0,0,1,167.88,351.76Z" transform="translate(-17.93 -45.32)"/><path class="cls-66" d="M173.81,352.35v-.07h0Z" transform="translate(-17.93 -45.32)"/><path class="cls-67" d="M169.26,351.9l.3-.74-.64-.17Q169.07,351.45,169.26,351.9Z" transform="translate(-17.93 -45.32)"/><path class="cls-68" d="M161.39,348c-.09.27-.15.54-.23.82l2.63.74a1.72,1.72,0,0,1,.26-.25c0,.1,0,.21,0,.31l1.2.33A10.3,10.3,0,0,1,167,348a2.12,2.12,0,0,0-.59,1.25,6.05,6.05,0,0,1-.29.93l1.07.29a5.43,5.43,0,0,0,.32-.8,9.33,9.33,0,0,1,.22.94l.73.2a2.72,2.72,0,0,0,.21-.77c.07.3.15.59.24.89l.64.17a8.18,8.18,0,0,1,2-3.16,17.86,17.86,0,0,1-.18,2.2,4,4,0,0,0,.14,1.48l.44.12a5.43,5.43,0,0,1,1.55-2.88,5.48,5.48,0,0,0,.25,3.35h0a15.66,15.66,0,0,0,.45-4.15,15,15,0,0,1,1.54,4c.48-1.06-.17-2.46.56-3.38q.39,1.59.92,3.14l.27-1.76c.09-.58.27-1.28.85-1.45a7.08,7.08,0,0,0,.34,2.94,5.9,5.9,0,0,0,.42-1.61,3.64,3.64,0,0,1,2.06-2.43,12.11,12.11,0,0,0-.24,4.05c.17,0,.25-.18.28-.34a4.08,4.08,0,0,1,2.08-3.1c-.4,1.26-1.17,3-.78,4.26a4.76,4.76,0,0,0,1.47-3.34,7.69,7.69,0,0,1,1.27,2.32,3.16,3.16,0,0,0,.45-1.56,4,4,0,0,1,1.77-2.64,5,5,0,0,0-.14,3.95,6.58,6.58,0,0,1,1.7-3.15l0,1.09a2.34,2.34,0,0,0,.32,1.58,5.32,5.32,0,0,1,2.53-3.63,8.48,8.48,0,0,0-.76,4.31,5.22,5.22,0,0,0,1.13-2.81,23.79,23.79,0,0,1,.88,2.26l.29-.67s0,0,0,0v0c.05,0,.06,0,.07-.06.21-1.33,1.34-2.32,2.4-3.18a17.9,17.9,0,0,0-.54,2.47,2.46,2.46,0,0,0,.17,1.64,6.54,6.54,0,0,1,1.63-3.11,15.7,15.7,0,0,0-.1,3.5v-.18a19.61,19.61,0,0,0,1.19-2,1.31,1.31,0,0,0,.2-.94,5.39,5.39,0,0,1,.81,2l.93-2.6c.45.64-.15,1.67.39,2.24a5.64,5.64,0,0,1,2.53-4.24,4.32,4.32,0,0,0-.44,4.49,6.78,6.78,0,0,1,1-2.66,6.23,6.23,0,0,0,.37,2.25c.28-.12.39-.44.49-.72a5.22,5.22,0,0,1,1.93-2.45,9.61,9.61,0,0,0-.35,2.91c0,.15.05.35.21.36s.23-.12.28-.24a18.53,18.53,0,0,0,.92-2.23l.53,1.93a.7.7,0,0,0,.15.33.26.26,0,0,0,.33,0,.35.35,0,0,0,.09-.21,18.07,18.07,0,0,0,.24-3.16l2,3a5.59,5.59,0,0,1,1.35-3.36,5.72,5.72,0,0,0-.15,3.13,5.29,5.29,0,0,0,.43-1.66c.42.31.05,1.14.51,1.38a5.78,5.78,0,0,1,1.84-2.67c-.1,1.56,1.23,1.65.81,3.15a9,9,0,0,1,1.95-4.32,4.73,4.73,0,0,0,.75,3.33,3.5,3.5,0,0,1,1.23-3,2.84,2.84,0,0,0,.2,2.62,6.8,6.8,0,0,1,1.48-4.06,5.9,5.9,0,0,0,1,3.91,8.76,8.76,0,0,1,.26-2.31c.4.76.85.49,1.34,1.2a1,1,0,0,0,.14-.86l-.37-2.32,2.09,2.5a6.05,6.05,0,0,1,.57-2.32l-20.41-18.11c-11.55-.75-23.06-1.8-34.48-3.5-3.79-.56-7.57-1.17-11.35-1.81-22.62,4.84-45.44,8.34-68.48,9.36a13.44,13.44,0,0,1,.1,1.88c23.38,3.54,46.11,10.81,69,17.26A5.17,5.17,0,0,1,161.39,348Z" transform="translate(-17.93 -45.32)"/><path class="cls-69" d="M228.07,345.78c0-.2,0-.4,0-.61l-.45-.4A3.22,3.22,0,0,0,228.07,345.78Z" transform="translate(-17.93 -45.32)"/><path class="cls-70" d="M324.88,332.18c0-.22,0-.44,0-.66l-.46,0A2.14,2.14,0,0,0,324.88,332.18Z" transform="translate(-17.93 -45.32)"/><path class="cls-71" d="M323.21,333.42c0-.66,0-1.33,0-2l-.82,0A10.86,10.86,0,0,0,323.21,333.42Z" transform="translate(-17.93 -45.32)"/><path class="cls-72" d="M320.54,331.93c0-.21,0-.43,0-.64l-.36,0A4.46,4.46,0,0,0,320.54,331.93Z" transform="translate(-17.93 -45.32)"/><path class="cls-73" d="M326.82,332.64c0-.28.07-.64.1-1l-.45,0C326.58,331.95,326.68,332.3,326.82,332.64Z" transform="translate(-17.93 -45.32)"/><path class="cls-74" d="M266.81,342.06l-.4.58a2.77,2.77,0,0,0,.39.44C266.8,342.74,266.8,342.4,266.81,342.06Z" transform="translate(-17.93 -45.32)"/><path class="cls-75" d="M318.54,332.45l.33-1.25-.57,0C318.38,331.6,318.44,332,318.54,332.45Z" transform="translate(-17.93 -45.32)"/><path class="cls-76" d="M305.36,332.62a1.34,1.34,0,0,0,.5.89,1.85,1.85,0,0,0,.24-1.16l0-1.82-1.27-.07Z" transform="translate(-17.93 -45.32)"/><path class="cls-77" d="M303.16,331.44a4.08,4.08,0,0,0,.79,2.58,31.54,31.54,0,0,1,.76-3.57l-1.43-.07A6.48,6.48,0,0,0,303.16,331.44Z" transform="translate(-17.93 -45.32)"/><path class="cls-78" d="M301.45,333.52c.12.41.38.92.82.84a6,6,0,0,1,.38-4l-2.14-.11Z" transform="translate(-17.93 -45.32)"/><path class="cls-79" d="M300.15,334.72l-.07-3.41a4.47,4.47,0,0,1,.08-1.09l-1.35-.07A11.93,11.93,0,0,0,300.15,334.72Z" transform="translate(-17.93 -45.32)"/><path class="cls-80" d="M227.64,344.77l.45.4a4.34,4.34,0,0,1,.58-2.25,5,5,0,0,0,.54,2.63,6,6,0,0,1,.34-1.47,2.09,2.09,0,0,1,1-1.12,2.57,2.57,0,0,0,.74,2.48,6.93,6.93,0,0,1,1.86-3.58,5.81,5.81,0,0,0,.15,2.95l1.1-2.27c.16-.33.35-1.69.7-1.82.25,1.69.13,3.14,1,4.64l0,.2a7,7,0,0,1,.51-5,5.61,5.61,0,0,0,.8,4,1.82,1.82,0,0,0,1,.83l-.8-.84a3,3,0,0,1,.72-3.81,2.81,2.81,0,0,0,.8,3.37c0-1-.45-2.16.09-3,.23,1.17.57,3.49,1.65,4.06,0-.35-.09-.7-.14-1.05l-.53-3.76c.9,1.5,2.61,2.45,3.34,4a12.23,12.23,0,0,1-.43-5.08,6.77,6.77,0,0,1,.68,2.2,2.61,2.61,0,0,0,1.25,1.87,10.08,10.08,0,0,1-.17-4.29,22.31,22.31,0,0,0,.5,2.24,2.36,2.36,0,0,0,1.1,1.67,16.29,16.29,0,0,0-.18-2.26,3.2,3.2,0,0,1,.47-2.17c.24.72.4,1.46.68,2.16a3.72,3.72,0,0,0,1.34,1.8,8.09,8.09,0,0,0-1.78-5.34c1.74,1.23,3.1,4,3.87,5.91-.06-1.07-.33-2.12-.37-3.19a3.72,3.72,0,0,1,1-2.94,8,8,0,0,0,1,5.57c-.17-1.38-.31-2.91.52-4-.44,3.73.59,3.1,1.26,3.82-.36-2,.33-3.1,1.79-4.51-.4,1.87-.48,2.64.62,4.23-.06-1.77.6-2.55,1.8-3.87a4.7,4.7,0,0,0,.52,3.69,7.7,7.7,0,0,1,1.42-4.33,12.57,12.57,0,0,0-.05,2.49,2,2,0,0,0,.44,1.29,2.49,2.49,0,0,0,.4-1.23,3.17,3.17,0,0,1,.86-2.06c0,1.88-.73,2.48.18,4.14a7.21,7.21,0,0,0,.92-4.66,11,11,0,0,1,1.38,3.49l.25-3.29a9.36,9.36,0,0,0,.86,2.57l.22-.36c.1-.91.06-1.84.23-2.74a5.94,5.94,0,0,1,1.09-2.46c-.19,1.13-.38,4.78.48,6l-.1.15a9.3,9.3,0,0,0,.77,1.55,13.89,13.89,0,0,0-.68-3.63l2,3.1c0-.8-.19-1.6-.19-2.4a2.55,2.55,0,0,1,.93-2.14,5.72,5.72,0,0,0,.9,4,7.27,7.27,0,0,1,1.17-4,16.54,16.54,0,0,1,.17,1.88,2.08,2.08,0,0,0,.88,1.61,11.41,11.41,0,0,0-.53-4.65q1.22,2,2.51,4c0-2,0-4.15,1.35-5.65a16.24,16.24,0,0,0,.1,3.37c.07.54.31,1.2.87,1.22A5.05,5.05,0,0,1,279.1,335c-.12,1.28-.18,2.75.76,3.65a25.58,25.58,0,0,0-.41-5.52l2.39,4.62a16.58,16.58,0,0,1,.41-3.46,5.69,5.69,0,0,1,1.77-3,8.85,8.85,0,0,0-.1,5.5c.86-.92.65-2.41,1.36-3.45q0,1.46.17,2.91a16.39,16.39,0,0,0,.82-2.38,3.62,3.62,0,0,1,1.42-2,18.26,18.26,0,0,0,.07,4.35,10.54,10.54,0,0,1,2-3.51,4.62,4.62,0,0,0-.61,3.16c.23-1.63,1.47-2.92,2.65-4.1a4.82,4.82,0,0,0-.19,3.23l.84-4.32a29.67,29.67,0,0,1,1.67,4.33l.49-2.68a4.27,4.27,0,0,0,1.27,2.56,6.63,6.63,0,0,1,.69-4.34,6.05,6.05,0,0,0,1.48,4.09,13.58,13.58,0,0,1-.25-2.93,5.38,5.38,0,0,1,.34-1.59L257.83,328c-17.24-.9-34.6-1.36-51.89-2.48l20.41,18.11a6.17,6.17,0,0,1,1.31-1.85A7.64,7.64,0,0,0,227.64,344.77Z" transform="translate(-17.93 -45.32)"/><path class="cls-81" d="M308.25,332.82a8.6,8.6,0,0,1,0-2.18l-1-.05Z" transform="translate(-17.93 -45.32)"/><path class="cls-82" d="M315.49,333.53l-.76-1.45q.23-.54.49-1.07l-.93,0A10.28,10.28,0,0,0,315.49,333.53Z" transform="translate(-17.93 -45.32)"/><path class="cls-83" d="M316.74,332.34a12.76,12.76,0,0,1,.35-1.23l-.49,0C316.63,331.5,316.68,331.92,316.74,332.34Z" transform="translate(-17.93 -45.32)"/><path class="cls-84" d="M309.68,332.39c.08-.55.18-1.11.29-1.66l-.93,0A4,4,0,0,0,309.68,332.39Z" transform="translate(-17.93 -45.32)"/><path class="cls-85" d="M311.27,330.9c.09.63.29,1.37.91,1.59a6.42,6.42,0,0,0,.38-1.62l-1.3-.07S311.27,330.87,311.27,330.9Z" transform="translate(-17.93 -45.32)"/><path class="cls-86" d="M347.59,325.41l.08.17c0-.07,0-.14,0-.22Z" transform="translate(-17.93 -45.32)"/><path class="cls-86" d="M103.89,350.22v0Z" transform="translate(-17.93 -45.32)"/><path class="cls-86" d="M193.43,350.2v0S193.42,350.18,193.43,350.2Z" transform="translate(-17.93 -45.32)"/><path class="cls-86" d="M270.22,382.55l-.29-.26a256,256,0,0,1-41,0c-6.51-.61-12.48-3.38-19-4-8.83-.89-18-.09-26.91-.07q-5.94,0-11.89,0c15.94,5.38,30.92,13.51,46.85,19q3.06,1.06,6.15,2l111.06,6.19A765.8,765.8,0,0,0,421,393.83l1.87-.37V378.4A1459,1459,0,0,1,270.22,382.55Z" transform="translate(-17.93 -45.32)"/><path class="cls-86" d="M368.47,366.19c-8.78,1.25-17.61,2-26.45,2.49-14.44,5.86-30,9.25-45.55,11.07-8.56,1-17.51,1.92-26.54,2.54l.29.26a1459,1459,0,0,0,152.63-4.15V352.32A260.56,260.56,0,0,1,368.47,366.19Z" transform="translate(-17.93 -45.32)"/><path class="cls-86" d="M379.24,352.24c-6.12,4.54-13.52,6.81-21,8.41a121,121,0,0,1-16.27,8c8.84-.45,17.67-1.24,26.45-2.49a260.56,260.56,0,0,0,54.38-13.88V335.6L390,332.49C390.11,340.22,385.45,347.63,379.24,352.24Z" transform="translate(-17.93 -45.32)"/><path class="cls-86" d="M387.65,322.07l-.18.62.36.75Z" transform="translate(-17.93 -45.32)"/><path class="cls-86" d="M421.24,312.91c-.38-.13-.55-.55-.66-.93l-.93-2.92a9.52,9.52,0,0,1-.7,4.74,20.34,20.34,0,0,1-.79-3.86L417,314.07a21.73,21.73,0,0,1,.31-4.11,31.8,31.8,0,0,1-1.73,5.3,7.4,7.4,0,0,1-.68-4.52l-1.59,4.73c-.15.45-.53,1-1,.81-.26-.12-.33-.44-.36-.71a12.5,12.5,0,0,1,.17-3.69,10.19,10.19,0,0,0-1.43,5.27,11.05,11.05,0,0,1-1.25-3.51,11.51,11.51,0,0,1-1.85,4.72q-.14-2.44-.11-4.88a24.6,24.6,0,0,0-.8,5.41l-1.17-3.74a6.83,6.83,0,0,1-.48,4.67l-.19-2.67-1.32,3.79a6.36,6.36,0,0,1-.61-4,22.22,22.22,0,0,0-1.56,5,9.43,9.43,0,0,1,.21-4.46L399,322.56a9.22,9.22,0,0,1-.49-4.14,18.3,18.3,0,0,0-1.11,4.22,12.08,12.08,0,0,1-.11-4.79,9.49,9.49,0,0,0-1.33,5.52,10.9,10.9,0,0,1-1.16-4.14,13,13,0,0,0,0,4.91,27,27,0,0,0-3-4.45,7.28,7.28,0,0,1,.32,5.77,16.26,16.26,0,0,1-.58-4.33A12.82,12.82,0,0,0,390.2,326a7.72,7.72,0,0,1-.13-3.93,5.71,5.71,0,0,0-1,4.37,20.81,20.81,0,0,1,.91,4,18.64,18.64,0,0,1,.12,2.09l32.8,3.11V311.07c-.09.24-.16.49-.26.73C422.36,312.4,421.86,313.12,421.24,312.91Z" transform="translate(-17.93 -45.32)"/><path class="cls-86" d="M317.11,328a18,18,0,0,0-1.89,3l1.38.07A5.1,5.1,0,0,1,317.11,328Z" transform="translate(-17.93 -45.32)"/><path class="cls-86" d="M312.69,329.91c-.05.32-.09.64-.13,1l1.72.09a10.21,10.21,0,0,1-.47-3.39A3.66,3.66,0,0,0,312.69,329.91Z" transform="translate(-17.93 -45.32)"/><path class="cls-86" d="M348.34,332.74c6.95.36,14.11.78,20.36,3.83,2.59,1.26,5.14,3.19,5.89,6,1.22,4.53-2.7,8.71-6.44,11.54a105.69,105.69,0,0,1-9.86,6.58c7.44-1.6,14.84-3.87,21-8.41s10.87-12,10.8-19.76l-40.22-3.81v.15l-.14-.16-2.23-.21c0,.66,0,1.31,0,2l-.8-2-1.06-.1a3.89,3.89,0,0,1-1,2.3l-.39-2.44H344a6.69,6.69,0,0,0-.77,2.24l.5-2.26-.87-.08a17.92,17.92,0,0,0-1.27,2.38,4.16,4.16,0,0,1,.19-2.48l-.89-.08a4,4,0,0,1-.85,1.9c-.11-.66-.18-1.33-.23-2l-.77-.07a6.27,6.27,0,0,1-.37,1.85.39.39,0,0,1-.2.23c-.23.08-.39-.21-.44-.45a9.64,9.64,0,0,1-.16-1.74l-.72-.07a6.25,6.25,0,0,1-.88,2.16q-.26-1.13-.4-2.28l-1.07-.1a10.89,10.89,0,0,1-.55,2.63c-.38,0-.49-.49-.49-.86q0-.93,0-1.87l-.74-.07c-.21,1.26-.16,2.82-.86,3.51a32.13,32.13,0,0,1,0-3.59l-.49,0a21.48,21.48,0,0,0-.79,3.89,10.68,10.68,0,0,1-.64-4l-.94-.09a15.82,15.82,0,0,0-.72,4,9.34,9.34,0,0,1-1.1-4.15h-.13c-.14,1.41-.28,3.56-.41,5.08Z" transform="translate(-17.93 -45.32)"/><path class="cls-86" d="M309,328.18a8.69,8.69,0,0,0-.71,2.47l.75,0A11.5,11.5,0,0,1,309,328.18Z" transform="translate(-17.93 -45.32)"/><path class="cls-86" d="M320.54,331.29l1.86.1c-.57-1.87-.86-3.86-1.93-5.5h-.05C320.53,327.68,320.57,329.48,320.54,331.29Z" transform="translate(-17.93 -45.32)"/><path class="cls-86" d="M318.88,331.2l1.3.07a10.33,10.33,0,0,1-.67-2.46Z" transform="translate(-17.93 -45.32)"/><path class="cls-86" d="M317.09,331.11l1.22.06a16,16,0,0,1-.22-2.35A12.9,12.9,0,0,0,317.09,331.11Z" transform="translate(-17.93 -45.32)"/><path class="cls-86" d="M310,330.74l1.3.07a22.2,22.2,0,0,1-.21-3.21A9.82,9.82,0,0,0,310,330.74Z" transform="translate(-17.93 -45.32)"/><path class="cls-86" d="M323.94,326.52a16.31,16.31,0,0,0-.72,4.91l1.21.06a5.29,5.29,0,0,1-.36-1.82Q324,328.09,323.94,326.52Z" transform="translate(-17.93 -45.32)"/><path class="cls-86" d="M326.48,331.6a13.46,13.46,0,0,1-.53-5.19h-.08a11.44,11.44,0,0,0-1,5.11Z" transform="translate(-17.93 -45.32)"/><path class="cls-86" d="M298.1,330.12l.72,0a11.72,11.72,0,0,1-.06-1.18A3.88,3.88,0,0,0,298.1,330.12Z" transform="translate(-17.93 -45.32)"/><path class="cls-86" d="M302.65,330.35l.63,0a11.76,11.76,0,0,1,.43-1.63A5.91,5.91,0,0,0,302.65,330.35Z" transform="translate(-17.93 -45.32)"/><path class="cls-86" d="M300.16,330.22l.34,0-.15-.53A1.74,1.74,0,0,0,300.16,330.22Z" transform="translate(-17.93 -45.32)"/><path class="cls-86" d="M304.71,330.46h.11l-.05-.22Z" transform="translate(-17.93 -45.32)"/><path class="cls-86" d="M306.09,330.53l1.17.06-1.2-2.7Z" transform="translate(-17.93 -45.32)"/><path class="cls-86" d="M320.42,325.79s0,.06,0,.09h.05Z" transform="translate(-17.93 -45.32)"/><path class="cls-86" d="M326,326.21l-.09.19h.08C326,326.34,325.95,326.27,326,326.21Z" transform="translate(-17.93 -45.32)"/><path class="cls-86" d="M344.15,327.93c0,.06-.08.13-.12.19h.15Z" transform="translate(-17.93 -45.32)"/><path class="cls-86" d="M345.41,325.14a9.19,9.19,0,0,1,.21,3.13l1.06.1Z" transform="translate(-17.93 -45.32)"/><path class="cls-86" d="M344.17,326.23a18.08,18.08,0,0,0-1.28,1.79l.87.08Z" transform="translate(-17.93 -45.32)"/><path class="cls-86" d="M339.79,325.9a2.57,2.57,0,0,0-.72,1.76l.77.07C339.8,327.12,339.78,326.51,339.79,325.9Z" transform="translate(-17.93 -45.32)"/><path class="cls-86" d="M343.42,325a4.75,4.75,0,0,0-2.48,2.75v0l.89.08A12.78,12.78,0,0,1,343.42,325Z" transform="translate(-17.93 -45.32)"/><path class="cls-86" d="M389.93,330.4a20.81,20.81,0,0,0-.91-4c0,.14,0,.27.08.41-.65,0-.92-.8-1-1.43l-.26-1.95-.36-.75a7.74,7.74,0,0,0-.32,3.37l-.68,0a8.66,8.66,0,0,1-2-4.8,5.61,5.61,0,0,1-.45,3.24l-.57-3.11a15,15,0,0,1-.19,3.94,5.7,5.7,0,0,1-1.29-5,12.07,12.07,0,0,0-1,5,7.71,7.71,0,0,1-.9-4.81,7.82,7.82,0,0,0-.9,5.5,5.31,5.31,0,0,1-2-4.18,17.47,17.47,0,0,0-.42,4,6.35,6.35,0,0,1-1.66-3.46l-.41,3.75a6.53,6.53,0,0,1-.84-4.46,6.54,6.54,0,0,0-1.33,5.23,4.49,4.49,0,0,1-1.61-2.2l-.11,2.14a3.81,3.81,0,0,1-1.65-3.71,5.86,5.86,0,0,0-.71,3.33,8.24,8.24,0,0,1-1.58-4.6,7.27,7.27,0,0,0-.84,4.72,13.5,13.5,0,0,0-3.28-3.35,6,6,0,0,1,1.06,3.62,11.42,11.42,0,0,1-2.42-4.45,33.49,33.49,0,0,0-.21,4.94,6.91,6.91,0,0,1-2.27-4.47l-.33,4.09a5.08,5.08,0,0,1-1.2-4.45,6,6,0,0,0-1.18,4.78,4,4,0,0,1-1.32-3.22l0,2.67a12.54,12.54,0,0,0-3.08-3.67,7.4,7.4,0,0,1,.88,4.1,2.78,2.78,0,0,1-1.28-1.45,7,7,0,0,1,.12,2.32,4.79,4.79,0,0,1-1.82-3.26l.19,3.83L390,332.49A18.64,18.64,0,0,0,389.93,330.4Z" transform="translate(-17.93 -45.32)"/><path class="cls-86" d="M347.67,325.58a20.39,20.39,0,0,0-.2,2.87l2.23.21A10.52,10.52,0,0,1,347.67,325.58Z" transform="translate(-17.93 -45.32)"/><path class="cls-86" d="M338.11,325.52a4.57,4.57,0,0,0-.92,2l.72.07A9.67,9.67,0,0,1,338.11,325.52Z" transform="translate(-17.93 -45.32)"/><path class="cls-86" d="M332.2,325.65a9.07,9.07,0,0,0-.54,1.3l.49,0C332.16,326.55,332.16,326.09,332.2,325.65Z" transform="translate(-17.93 -45.32)"/><path class="cls-86" d="M327.41,325.88c0,.19,0,.41-.07.66h.13Q327.43,326.22,327.41,325.88Z" transform="translate(-17.93 -45.32)"/><path class="cls-86" d="M330.27,324.93a6.13,6.13,0,0,0-1,1.8l.94.09C330.22,326.18,330.24,325.55,330.27,324.93Z" transform="translate(-17.93 -45.32)"/><path class="cls-86" d="M335.73,324.89a4.55,4.55,0,0,0-.89,2.36l1.07.1A23.68,23.68,0,0,1,335.73,324.89Z" transform="translate(-17.93 -45.32)"/><path class="cls-86" d="M333.79,325.48a2.4,2.4,0,0,0-.73,1.6l.74.07Q333.79,326.32,333.79,325.48Z" transform="translate(-17.93 -45.32)"/><path class="cls-86" d="M210,378.23c6.5.66,12.47,3.43,19,4a256,256,0,0,0,41,0l-19.7-17.48c-50.86-2.19-101.72-7.17-152.51-10.2,18.1,14.88,44.45,15.13,67.35,21.62,2.05.58,4.08,1.23,6.1,1.91q5.94,0,11.89,0C191.93,378.14,201.14,377.34,210,378.23Z" transform="translate(-17.93 -45.32)"/><path class="cls-86" d="M250.15,364.75c-21.38-2.05-42.73-4.69-63.68-9.39-4.23-1-8.45-2-12.65-3.08v.07l0-.08-1.81-.47-.14.53a2.28,2.28,0,0,1-.3-.65l-2-.52-.3.74q-.19-.45-.34-.92l-.45-.12a2.79,2.79,0,0,1-.6.9,9.31,9.31,0,0,0-.13-1.1l-.53-.14a5.69,5.69,0,0,1-1.77,2.11,6.89,6.89,0,0,1,.69-2.41l-.93-.26a3.92,3.92,0,0,0-.51,1.08c-.08.28-.26.65-.54.56s-.23-.31-.23-.51a11.09,11.09,0,0,1,.09-1.46l-.22-.06a5.53,5.53,0,0,0-1,2.13c0,.11-.11.24-.23.25a.26.26,0,0,1-.19-.08,1,1,0,0,1-.23-.69,13.53,13.53,0,0,1,.06-1.9L161,351.81a1.45,1.45,0,0,1-.21-1.16,13.71,13.71,0,0,1,.36-1.8l-.41-.11a5.11,5.11,0,0,0-.75,1.35,7.74,7.74,0,0,1-.74,1.9,6.33,6.33,0,0,1-.64-1.72q-.35,1-.72,1.94a10.35,10.35,0,0,1-.7-2,9.19,9.19,0,0,1-1.17,2.35l0-.71a15.3,15.3,0,0,1,.53-3.23c-1.16.62-1.71,1.91-2.32,3.05,0,.09-.12.19-.22.2s-.22-.21-.21-.37a11.1,11.1,0,0,1,1.35-4.23,10,10,0,0,0-2.66,3.72.81.81,0,0,1-.21.34.28.28,0,0,1-.37,0,.34.34,0,0,1-.07-.2,3.2,3.2,0,0,1,.05-.83,12.64,12.64,0,0,1,.73-2.63,9.89,9.89,0,0,0-2.15,3.76,9.72,9.72,0,0,0-.34-1.12,4,4,0,0,0-.71,2l-1-2.15a5.68,5.68,0,0,1-1,2.84c.1-1.74.4-2.6.62-4.56l-1.25,2.38c-.1.2-.53.85-.73.73s-.14-.26-.13-.41l.15-2.21a11.35,11.35,0,0,0-1.57,3.16,6.63,6.63,0,0,1,.33-4.32,7.54,7.54,0,0,0-2.14,3.91q-.24-.77-.51-1.54a3.59,3.59,0,0,0-.6,1.57,4.72,4.72,0,0,1-.28-1.26,1.82,1.82,0,0,1,.19-.92,7.45,7.45,0,0,0-1.34,3.18,9.57,9.57,0,0,0-.78-4l-1,2.47c-.07.18-.21.39-.41.35l.47-1.59a2.25,2.25,0,0,0-1.35.87,9.21,9.21,0,0,1-1.07,1.23,3.06,3.06,0,0,1,1.31-3.07,5.75,5.75,0,0,0-2.84,2.63,2,2,0,0,1-.08-1.57c.16-.52.41-1,.55-1.53a2.8,2.8,0,0,0-1.7,2.14,3.4,3.4,0,0,1-.22,1.15,8,8,0,0,0-1.8-4.36,3.51,3.51,0,0,1,.11,2.38q-.22,1.1-.53,2.19a3.18,3.18,0,0,1-.58-2.5c.07-.75.21-1.5.34-2.24a10,10,0,0,0-1.46,3.72c0,.19-.12.44-.32.43s-.27-.3-.26-.51l.11-2.06a5.38,5.38,0,0,0-.74,2.58c-.32-.07-.42-.45-.44-.77a12.5,12.5,0,0,1,0-2.28,2.49,2.49,0,0,0-.75,1.72,12,12,0,0,1-.19,1.9,9.17,9.17,0,0,1-1.09-5.89,8.83,8.83,0,0,0-1.95,5.26,6.25,6.25,0,0,1-.57-2.43c-.43.2-.56.73-.63,1.19l-.24,1.44a.94.94,0,0,1-.36-.81,6,6,0,0,1,.26-2.12c-.73,1-1.48,2.16-1.23,3.37v1.65c-.13-1.05-.69-2.08-.89-3.15a4.82,4.82,0,0,1,.38-2.93,6.61,6.61,0,0,0-2.36,3.23,1.13,1.13,0,0,1-.38.65,5.06,5.06,0,0,1,.54-4.58,6.27,6.27,0,0,0-2.57,4.67c-.25-1.53-1.26-2.86-1.58-4.38a10,10,0,0,1-1.09,4.58,5.06,5.06,0,0,1-.16-2.33,3.11,3.11,0,0,0-.88,1.76.44.44,0,0,1-.1.27.3.3,0,0,1-.42-.09.75.75,0,0,1-.08-.47,7.88,7.88,0,0,1,.44-2.13,8.29,8.29,0,0,0-1.18,2.23c-.15-.08-.15-.28-.14-.45a11.87,11.87,0,0,1,.91-3.7,8.89,8.89,0,0,0-2.84,4.17c-.2,0-.25-.27-.24-.47l.09-1.64a12.14,12.14,0,0,0-1.09,2.24,5.24,5.24,0,0,1-.22-2.55,7,7,0,0,0-1.23,3.81l-1.7-2.23a1.24,1.24,0,0,1,0,.25q0,1.12-.11,2.24l.13,1.35a1.65,1.65,0,0,1-.29-1.14,18.89,18.89,0,0,1,.23-2.72l-.26-.34c.15,0,.23.16.26.31a18.94,18.94,0,0,1,.63-2.71,7.71,7.71,0,0,0-2.42,5.73l.07.71a6.32,6.32,0,0,1-.35-3.9,6.43,6.43,0,0,0-1,1.88,3.74,3.74,0,0,0-.24.74c0-.1,0-.2,0-.29a6.2,6.2,0,0,1,.87-3.68,17.82,17.82,0,0,0-2.19,4.42,1.1,1.1,0,0,0,0,1l-.2.17c-.35-1,.14-2.05.4-3.07a7.29,7.29,0,0,0,.09-3.32c-.31.35-.19.89-.31,1.34a3.16,3.16,0,0,1-.62,1,7.7,7.7,0,0,0-1.34,3C97,353,97,351.76,97,351.5c0-.74.06-.49.35-1.17-.91.77-1.54.81-1.9,1.93a1.74,1.74,0,0,1-.16-1.13,9.79,9.79,0,0,1,1-3.39c-.68.55-1.46,3-2,3.7.26.27.53.54.8.79.88.84,1.79,1.63,2.72,2.39,50.79,3,101.65,8,152.51,10.2ZM100.79,353.47l.35.35A.92.92,0,0,1,100.79,353.47Z" transform="translate(-17.93 -45.32)"/><path class="cls-86" d="M342,368.68c-26.69,1.34-53.58-.52-80.26-2.87q-5.2-.46-10.41-1l-1.13,0,19.7,17.48c9-.62,18-1.54,26.54-2.54C312,377.93,327.58,374.54,342,368.68Z" transform="translate(-17.93 -45.32)"/><path class="cls-86" d="M250.15,364.75l.08.07,1.13,0Z" transform="translate(-17.93 -45.32)"/><path class="cls-86" d="M173.53,348.91a5.43,5.43,0,0,0-1.55,2.88l1.81.47A5.48,5.48,0,0,1,173.53,348.91Z" transform="translate(-17.93 -45.32)"/><path class="cls-86" d="M228.07,345.78a3.22,3.22,0,0,1-.43-1l-1.28-1.14a6.05,6.05,0,0,0-.57,2.32l-2.09-2.5.37,2.32a1,1,0,0,1-.14.86c-.49-.7-.94-.44-1.34-1.2a8.76,8.76,0,0,0-.26,2.31,5.9,5.9,0,0,1-1-3.91,6.8,6.8,0,0,0-1.48,4.06,2.84,2.84,0,0,1-.2-2.62,3.5,3.5,0,0,0-1.23,3,4.73,4.73,0,0,1-.75-3.33,9,9,0,0,0-1.95,4.32c.42-1.5-.91-1.59-.81-3.15a5.78,5.78,0,0,0-1.84,2.67c-.46-.24-.09-1.07-.51-1.38a5.29,5.29,0,0,1-.43,1.66,5.72,5.72,0,0,1,.15-3.13,5.59,5.59,0,0,0-1.35,3.36l-2-3a18.07,18.07,0,0,1-.24,3.16.35.35,0,0,1-.09.21.26.26,0,0,1-.33,0,.7.7,0,0,1-.15-.33l-.53-1.93a18.53,18.53,0,0,1-.92,2.23c-.06.12-.15.25-.28.24s-.2-.21-.21-.36a9.61,9.61,0,0,1,.35-2.91,5.22,5.22,0,0,0-1.93,2.45c-.1.28-.21.6-.49.72a6.23,6.23,0,0,1-.37-2.25,6.78,6.78,0,0,0-1,2.66,4.32,4.32,0,0,1,.44-4.49,5.64,5.64,0,0,0-2.53,4.24c-.54-.58.06-1.6-.39-2.24l-.93,2.6a5.39,5.39,0,0,0-.81-2,1.31,1.31,0,0,1-.2.94,19.61,19.61,0,0,1-1.19,2v.18a15.7,15.7,0,0,1,.1-3.5,6.54,6.54,0,0,0-1.63,3.11,2.46,2.46,0,0,1-.17-1.64,17.9,17.9,0,0,1,.54-2.47c-1.06.86-2.2,1.85-2.4,3.18,0,0,0,.08-.07.06l-.29.67a23.79,23.79,0,0,0-.88-2.26,5.22,5.22,0,0,1-1.13,2.81,8.48,8.48,0,0,1,.76-4.31,5.32,5.32,0,0,0-2.53,3.63,2.34,2.34,0,0,1-.32-1.58l0-1.09a6.58,6.58,0,0,0-1.7,3.15,5,5,0,0,1,.14-3.95,4,4,0,0,0-1.77,2.64,3.16,3.16,0,0,1-.45,1.56,7.69,7.69,0,0,0-1.27-2.32,4.76,4.76,0,0,1-1.47,3.34c-.4-1.26.38-3,.78-4.26a4.08,4.08,0,0,0-2.08,3.1c0,.16-.11.36-.28.34a12.11,12.11,0,0,1,.24-4.05,3.64,3.64,0,0,0-2.06,2.43,5.9,5.9,0,0,1-.42,1.61,7.08,7.08,0,0,1-.34-2.94c-.58.17-.76.87-.85,1.45l-.27,1.76q-.53-1.55-.92-3.14c-.73.92-.08,2.32-.56,3.38a15,15,0,0,0-1.54-4,15.66,15.66,0,0,1-.45,4.15c4.2,1.09,8.42,2.13,12.65,3.08,20.95,4.71,42.29,7.34,63.68,9.39l-22.06-19.57C228.08,345.38,228.07,345.58,228.07,345.78Z" transform="translate(-17.93 -45.32)"/><path class="cls-86" d="M171.39,350.2a17.86,17.86,0,0,0,.18-2.2,8.18,8.18,0,0,0-2,3.16l2,.52A4,4,0,0,1,171.39,350.2Z" transform="translate(-17.93 -45.32)"/><path class="cls-86" d="M160.75,348.73l.41.11c.07-.27.14-.55.23-.82A5.17,5.17,0,0,0,160.75,348.73Z" transform="translate(-17.93 -45.32)"/><path class="cls-86" d="M167,348a10.3,10.3,0,0,0-1.81,1.92l.93.26a6.05,6.05,0,0,0,.29-.93A2.12,2.12,0,0,1,167,348Z" transform="translate(-17.93 -45.32)"/><path class="cls-86" d="M168.47,350.86l.45.12c-.09-.29-.18-.59-.24-.89A2.72,2.72,0,0,1,168.47,350.86Z" transform="translate(-17.93 -45.32)"/><path class="cls-86" d="M163.79,349.58l.22.06c0-.1,0-.21,0-.31A1.72,1.72,0,0,0,163.79,349.58Z" transform="translate(-17.93 -45.32)"/><path class="cls-86" d="M167.21,350.52l.53.14a9.33,9.33,0,0,0-.22-.94A5.43,5.43,0,0,1,167.21,350.52Z" transform="translate(-17.93 -45.32)"/><path class="cls-86" d="M355.92,361.14c-21.91,4.33-44.35,4.92-66.67,4.73-12.63-.11-25.27-.48-37.9-1q5.2.49,10.41,1c26.67,2.35,53.57,4.21,80.26,2.87a121,121,0,0,0,16.27-8Z" transform="translate(-17.93 -45.32)"/><path class="cls-86" d="M227.67,341.79a6.17,6.17,0,0,0-1.31,1.85l1.28,1.14A7.64,7.64,0,0,1,227.67,341.79Z" transform="translate(-17.93 -45.32)"/><path class="cls-86" d="M289.25,365.87c22.31.19,44.76-.4,66.67-4.73l2.37-.49a105.69,105.69,0,0,0,9.86-6.58c3.74-2.83,7.66-7,6.44-11.54-.75-2.79-3.29-4.71-5.89-6-6.25-3-13.41-3.46-20.36-3.83l-21.42-1.12c0,.38-.07.74-.1,1-.14-.34-.24-.69-.34-1l-1.58-.08c0,.22,0,.44,0,.66a2.14,2.14,0,0,1-.45-.69l-1.21-.06c0,.66,0,1.33,0,2a10.86,10.86,0,0,1-.81-2l-1.86-.1c0,.21,0,.43,0,.64a4.46,4.46,0,0,1-.36-.66l-1.3-.07-.33,1.25c-.1-.42-.17-.85-.24-1.28l-1.22-.06a12.76,12.76,0,0,0-.35,1.23c-.06-.41-.11-.83-.15-1.26l-1.38-.07q-.26.53-.49,1.07l.76,1.45a10.28,10.28,0,0,1-1.2-2.57l-1.72-.09a6.42,6.42,0,0,1-.38,1.62c-.62-.22-.82-1-.91-1.59,0,0,0-.06,0-.1l-1.3-.07c-.11.55-.2,1.11-.29,1.66a4,4,0,0,1-.64-1.71l-.75,0a8.6,8.6,0,0,0,0,2.18l-1-2.23-1.17-.06,0,1.82a1.85,1.85,0,0,1-.24,1.16,1.34,1.34,0,0,1-.5-.89l-.54-2.15h-.11a31.54,31.54,0,0,0-.76,3.57,4.08,4.08,0,0,1-.79-2.58,6.48,6.48,0,0,1,.12-1.06l-.63,0a6,6,0,0,0-.38,4c-.43.07-.7-.43-.82-.84l-.95-3.28-.34,0a4.47,4.47,0,0,0-.08,1.09l.07,3.41a11.93,11.93,0,0,1-1.34-4.57l-.72,0a5.38,5.38,0,0,0-.34,1.59,13.58,13.58,0,0,0,.25,2.93,6.05,6.05,0,0,1-1.48-4.09,6.63,6.63,0,0,0-.69,4.34,4.27,4.27,0,0,1-1.27-2.56l-.49,2.68a29.67,29.67,0,0,0-1.67-4.33l-.84,4.32a4.82,4.82,0,0,1,.19-3.23c-1.18,1.18-2.41,2.48-2.65,4.1a4.62,4.62,0,0,1,.61-3.16,10.54,10.54,0,0,0-2,3.51,18.26,18.26,0,0,1-.07-4.35,3.62,3.62,0,0,0-1.42,2,16.39,16.39,0,0,1-.82,2.38q-.14-1.45-.17-2.91c-.7,1-.49,2.53-1.36,3.45a8.85,8.85,0,0,1,.1-5.5,5.69,5.69,0,0,0-1.77,3,16.58,16.58,0,0,0-.41,3.46l-2.39-4.62a25.58,25.58,0,0,1,.41,5.52c-.94-.9-.88-2.37-.76-3.65a5.05,5.05,0,0,0-1.17,4.09c-.56,0-.8-.68-.87-1.22a16.24,16.24,0,0,1-.1-3.37c-1.33,1.5-1.38,3.67-1.35,5.65q-1.29-2-2.51-4a11.41,11.41,0,0,1,.53,4.65,2.08,2.08,0,0,1-.88-1.61,16.54,16.54,0,0,0-.17-1.88,7.27,7.27,0,0,0-1.17,4,5.72,5.72,0,0,1-.9-4,2.55,2.55,0,0,0-.93,2.14c0,.8.19,1.6.19,2.4l-2-3.1a13.89,13.89,0,0,1,.68,3.63,9.3,9.3,0,0,1-.77-1.55l.1-.15c-.86-1.2-.67-4.85-.48-6a5.94,5.94,0,0,0-1.09,2.46c-.17.9-.14,1.83-.23,2.74l-.22.36a9.36,9.36,0,0,1-.86-2.57l-.25,3.29a11,11,0,0,0-1.38-3.49,7.21,7.21,0,0,1-.92,4.66c-.91-1.66-.2-2.26-.18-4.14a3.17,3.17,0,0,0-.86,2.06,2.49,2.49,0,0,1-.4,1.23,2,2,0,0,1-.44-1.29,12.57,12.57,0,0,1,.05-2.49,7.7,7.7,0,0,0-1.42,4.33,4.7,4.7,0,0,1-.52-3.69c-1.2,1.32-1.86,2.11-1.8,3.87-1.09-1.59-1-2.36-.62-4.23-1.46,1.41-2.15,2.54-1.79,4.51-.67-.72-1.7-.09-1.26-3.82-.83,1.13-.69,2.66-.52,4a8,8,0,0,1-1-5.57,3.72,3.72,0,0,0-1,2.94c0,1.07.32,2.12.37,3.19-.77-2-2.13-4.68-3.87-5.91a8.09,8.09,0,0,1,1.78,5.34,3.72,3.72,0,0,1-1.34-1.8c-.28-.7-.43-1.45-.68-2.16a3.2,3.2,0,0,0-.47,2.17,16.29,16.29,0,0,1,.18,2.26,2.36,2.36,0,0,1-1.1-1.67,22.31,22.31,0,0,1-.5-2.24,10.08,10.08,0,0,0,.17,4.29,2.61,2.61,0,0,1-1.25-1.87,6.77,6.77,0,0,0-.68-2.2,12.23,12.23,0,0,0,.43,5.08c-.73-1.58-2.44-2.54-3.34-4l.53,3.76c0,.35.1.7.14,1.05-1.08-.57-1.42-2.89-1.65-4.06-.54.89-.11,2-.09,3a2.81,2.81,0,0,1-.8-3.37,3,3,0,0,0-.72,3.81l.8.84a1.82,1.82,0,0,1-1-.83,5.61,5.61,0,0,1-.8-4,7,7,0,0,0-.51,5l0-.2c-.86-1.49-.74-2.95-1-4.64-.35.13-.54,1.49-.7,1.82l-1.1,2.27a5.81,5.81,0,0,1-.15-2.95,6.93,6.93,0,0,0-1.86,3.58,2.57,2.57,0,0,1-.74-2.48,2.09,2.09,0,0,0-1,1.12,6,6,0,0,0-.34,1.47,5,5,0,0,1-.54-2.63,4.34,4.34,0,0,0-.58,2.25l22.06,19.57,1.21.12C264,365.4,276.62,365.76,289.25,365.87Zm-22.44-23.82c0,.34,0,.69,0,1a2.77,2.77,0,0,1-.39-.44Z" transform="translate(-17.93 -45.32)"/><circle class="cls-11" cx="357.3" cy="90.36" r="0.95"/><circle class="cls-11" cx="233.81" cy="105.95" r="0.95"/><circle class="cls-11" cx="349.9" cy="136.34" r="0.95"/><circle class="cls-11" cx="199.44" cy="145.63" r="0.95"/><circle class="cls-11" cx="399.12" cy="156.45" r="0.95"/><circle class="cls-11" cx="161.01" cy="155.5" r="0.95"/><circle class="cls-11" cx="195.05" cy="80.07" r="0.95"/><circle class="cls-11" cx="322.14" cy="99.5" r="0.58"/><circle class="cls-11" cx="182.89" cy="119.84" r="0.58"/><circle class="cls-11" cx="124.15" cy="186.47" r="0.58"/><circle class="cls-11" cx="374.95" cy="115.92" r="0.58"/><circle class="cls-11" cx="169.93" cy="101.21" r="0.58"/><circle class="cls-11" cx="173.7" cy="171.85" r="0.58"/><circle class="cls-11" cx="399.7" cy="89.41" r="0.58"/><circle class="cls-11" cx="253.93" cy="140.57" r="0.58"/><circle class="cls-11" cx="277.24" cy="145.05" r="0.58"/><circle class="cls-11" cx="240.64" cy="171.27" r="0.58"/><path class="cls-86" d="M375,305.08,363.77,273a3.84,3.84,0,0,1,.79-3.82,3,3,0,0,0,.73-1.67c0-.89-.42-1.12-1.74-1.62l-.33-.12.72-1.88.31.12c1.22.46,3.07,1.15,3,3.52a4.82,4.82,0,0,1-1.09,2.79c-.58.85-.83,1.25-.53,2.07l11.17,32Z" transform="translate(-17.93 -45.32)"/><rect class="cls-86" x="321.31" y="278.19" width="4.02" height="39.56" transform="matrix(0.94, -0.33, 0.33, 0.94, -97.85, 77.39)"/><path class="cls-86" d="M296,289.51a23.11,23.11,0,1,0,25.29,20.69A23.13,23.13,0,0,0,296,289.51Zm4.66,21.37,12.62-10.76a19.42,19.42,0,0,1,2,2.92Zm14.89-7.29a19.26,19.26,0,0,1,1.12,2.63l-15.23,4.94Zm-14.87,6.47,10.14-12.39a19.59,19.59,0,0,1,2,2Zm-.83,0,7.54-14.77a19.56,19.56,0,0,1,3,1.94Zm-.29-.78L304.24,294a19.38,19.38,0,0,1,2.65,1.08Zm-.75.36,1.31-16.53a19.23,19.23,0,0,1,3.47.67Zm-.57-.6-1.59-15.94a19.43,19.43,0,0,1,2.86,0Zm-.55.62-5.11-15.78a19.46,19.46,0,0,1,3.47-.71Zm-.75-.35-7.57-14.11a19.28,19.28,0,0,1,2.63-1.12Zm-.28.78L286,297.52a19.42,19.42,0,0,1,2.92-2Zm-.83,0L283.51,300a19.6,19.6,0,0,1,2-2Zm0,.83-14.77-7.54a19.58,19.58,0,0,1,1.94-3Zm-.78.29-15.34-4.63a19.38,19.38,0,0,1,1.08-2.65Zm.35.75L279,310.66a19.24,19.24,0,0,1,.66-3.47Zm-.6.57L279,314.13a19.45,19.45,0,0,1,0-2.86Zm.62.55-15.78,5.12a19.45,19.45,0,0,1-.71-3.47Zm-.35.75-14.11,7.57a19.27,19.27,0,0,1-1.12-2.63Zm.78.27-12.62,10.76a19.42,19.42,0,0,1-2-2.92Zm0,.83-10.14,12.39a19.55,19.55,0,0,1-2-2Zm.83,0-7.54,14.77a19.56,19.56,0,0,1-3-1.94Zm.29.78L292.43,331a19.38,19.38,0,0,1-2.65-1.08Zm.75-.35-1.31,16.53a19.25,19.25,0,0,1-3.47-.67Zm.57.6L300,331.86a19.43,19.43,0,0,1-2.86,0Zm.55-.62L304,331.09a19.45,19.45,0,0,1-3.47.71Zm.75.35,7.57,14.11a19.26,19.26,0,0,1-2.63,1.12Zm.28-.78,10.76,12.62a19.43,19.43,0,0,1-2.92,2Zm.83,0L313.17,325a19.55,19.55,0,0,1-2,2Zm0-.83,14.77,7.54a19.56,19.56,0,0,1-1.94,3Zm.78-.29,15.34,4.63a19.37,19.37,0,0,1-1.08,2.65Zm-.36-.75,16.53,1.31a19.24,19.24,0,0,1-.67,3.47Zm.6-.57,15.94-1.59a19.46,19.46,0,0,1,0,2.86Zm-.62-.55,15.78-5.11a19.46,19.46,0,0,1,.71,3.47Z" transform="translate(-17.93 -45.32)"/><circle class="cls-86" cx="298.34" cy="312.5" r="3.98" transform="translate(-47.52 -14.11) rotate(-5.71)"/><path class="cls-86" d="M373.6,281.76a23.11,23.11,0,1,0,25.29,20.69A23.13,23.13,0,0,0,373.6,281.76Zm4.66,21.37,12.62-10.76a19.42,19.42,0,0,1,2,2.92Zm14.89-7.29a19.26,19.26,0,0,1,1.12,2.63l-15.23,4.94Zm-14.87,6.47,10.14-12.39a19.57,19.57,0,0,1,2,2Zm-.83,0L385,287.59a19.56,19.56,0,0,1,3,1.94Zm-.29-.78,4.63-15.34a19.38,19.38,0,0,1,2.65,1.08Zm-.75.36,1.31-16.53a19.24,19.24,0,0,1,3.47.67Zm-.57-.6-1.59-15.94a19.43,19.43,0,0,1,2.86,0Zm-.55.62-5.11-15.78a19.46,19.46,0,0,1,3.47-.71Zm-.75-.35L367,287.49a19.26,19.26,0,0,1,2.63-1.12Zm-.28.78-10.76-12.61a19.42,19.42,0,0,1,2.92-2Zm-.83,0-12.39-10.14a19.6,19.6,0,0,1,2-2Zm0,.83-14.77-7.54a19.57,19.57,0,0,1,1.94-3Zm-.78.29-15.34-4.63a19.38,19.38,0,0,1,1.08-2.65Zm.35.75-16.53-1.31a19.24,19.24,0,0,1,.67-3.47Zm-.6.57-15.94,1.59a19.46,19.46,0,0,1,0-2.86Zm.62.55-15.78,5.12a19.45,19.45,0,0,1-.72-3.47Zm-.35.75-14.11,7.57a19.25,19.25,0,0,1-1.12-2.63Zm.78.27-12.62,10.76a19.42,19.42,0,0,1-2-2.92Zm0,.83-10.14,12.39a19.57,19.57,0,0,1-2-2Zm.83,0-7.54,14.77a19.55,19.55,0,0,1-3-1.94Zm.29.78L370,323.26a19.38,19.38,0,0,1-2.65-1.08Zm.75-.35-1.31,16.53a19.24,19.24,0,0,1-3.47-.67Zm.57.6,1.59,15.94a19.45,19.45,0,0,1-2.86,0Zm.55-.62,5.11,15.78a19.46,19.46,0,0,1-3.47.71Zm.75.35L384.81,322a19.26,19.26,0,0,1-2.63,1.12Zm.28-.78,10.76,12.62a19.41,19.41,0,0,1-2.92,2Zm.83,0,12.39,10.14a19.56,19.56,0,0,1-2,2Zm0-.83,14.77,7.54a19.55,19.55,0,0,1-1.94,3Zm.78-.29,15.34,4.63a19.37,19.37,0,0,1-1.08,2.65Zm-.36-.75,16.53,1.31a19.22,19.22,0,0,1-.67,3.47Zm.6-.57,15.94-1.59a19.46,19.46,0,0,1,0,2.86Zm-.62-.55,15.78-5.11a19.46,19.46,0,0,1,.71,3.47Z" transform="translate(-17.93 -45.32)"/><circle class="cls-86" cx="375.9" cy="304.75" r="3.98" transform="translate(-46.37 -6.43) rotate(-5.71)"/><path class="cls-86" d="M329.92,317.66h-.23l-31.48-4.15a1,1,0,0,1-.68-1.59l20.16-27.71a1,1,0,0,1,.63-.4l47-8.76a1,1,0,0,1,.94,1.65l-35.65,40.62A1,1,0,0,1,329.92,317.66Zm-29.77-5.93,29.27,3.86,33.38-38-43.72,8.15Z" transform="translate(-17.93 -45.32)"/><circle class="cls-86" cx="329.77" cy="315.92" r="4.34" transform="translate(-47.71 -10.96) rotate(-5.71)"/><path class="cls-86" d="M315.13,322.06a1,1,0,0,1-.43-1.95L329.44,315a1,1,0,0,1,.66,1.9L315.36,322Z" transform="translate(-17.93 -45.32)"/><rect class="cls-86" x="311.56" y="319.72" width="6.98" height="2.68" transform="translate(-48.29 -12.41) rotate(-5.71)"/><path class="cls-86" d="M329.87,316.92a1,1,0,0,1-.32-2L341,312.38a1,1,0,0,1,1.2.76,1,1,0,0,1-.76,1.2L330,316.9Z" transform="translate(-17.93 -45.32)"/><rect class="cls-86" x="337.75" y="312.02" width="6.98" height="2.68" transform="translate(-22.12 -40.69) rotate(-0.77)"/><path class="cls-86" d="M322.63,278.37c-.26-1-15.73-1-16.6.62s.13,5.74,5,6.07C313.53,285.24,323.15,280.27,322.63,278.37Z" transform="translate(-17.93 -45.32)"/><path class="cls-86" d="M357.33,274.5l-.48-2c6.77-1.66,8-3.57,8.21-4.31a2.26,2.26,0,0,0-.83-2.16c-.42-.44-3.09-.84-5.59-.86v-2c1.32,0,5.73.14,7,1.47a4.09,4.09,0,0,1,1.32,4.11C366.29,271.21,363.13,273.07,357.33,274.5Z" transform="translate(-17.93 -45.32)"/><rect class="cls-86" x="356.3" y="271.28" width="5.23" height="2.68" transform="translate(-92.77 104.84) rotate(-21.45)"/><rect class="cls-86" x="355.65" y="262.8" width="5.23" height="2.68" transform="translate(-23.33 -37.83) rotate(-1.19)"/><path class="cls-86" d="M365.6,269.36a8.88,8.88,0,0,0-2.43-.12c-.51.15-3.71,2.59-4.25,2.93-1.82.56-9-4.2-11.15-4.64a2.25,2.25,0,0,1-1.12-.44c-.38-.35-.5-1-1-1.18a.78.78,0,0,1-.16-.08c-.18-.14-.11-.42,0-.61s.23-.43.12-.63a.73.73,0,0,0-.26-.22,1.87,1.87,0,0,1-.82-1.28c-.07-.5.06-1,0-1.5-.15-.89-.91-1.48-1.26-2.27s-.67-1.66-1.12-2.47a16.47,16.47,0,0,0-3.68-4.78l-.32-.88a4.34,4.34,0,0,1,1.61-.06l-.51-1.28s2.74-.43,3-.41c.58,0,1.57.88,2.58,1.06.44.08.61-.18.76-.53s.36-.84.52-1.26a.39.39,0,0,0,0-.17c0-.11-.11-.21-.07-.32a.26.26,0,0,1,.12-.12c.1-.06.5-.17.45-.35s-.06-.08-.09-.12.27-.48.34-.63c-.36,0-.31-.5-.12-.68a1.06,1.06,0,0,1,.45-.21,2.23,2.23,0,0,0,1.26-.63c.4-.57-.59-1.41-.76-2.19a2.87,2.87,0,0,1,.16-1.9,11.48,11.48,0,0,0,1.57.15c.23-.05.62-1.27,1-1.91s-1.27-3.62-2.12-5.3-6.12-2.81-7.84-2.52-5.57.88-5.81,1.25.79.57.54,1.06a4.93,4.93,0,0,1-.59.37,4.19,4.19,0,0,0-.59.59,2.47,2.47,0,0,0-.66,1.43.46.46,0,0,0,.07.31.52.52,0,0,0,.38.15l2,.22a23.11,23.11,0,0,0-.43,3.7,1.61,1.61,0,0,0,.11.8c.16.31.5.49.69.79.39.62-.12,1-.82,1.26l-.31-.85a5.15,5.15,0,0,1-4.24,1.13,28.77,28.77,0,0,0-4.54-.64,11.75,11.75,0,0,0-3.61.89,92.44,92.44,0,0,0-11.23,5,26.44,26.44,0,0,0-3,1.77,30.9,30.9,0,0,0-3.68,3.26c-1.9,1.87-4.6,4.18-5.36,6.82,2.2.26.83,2.4.9,3.83s-.1,2.72-.08,4.08a9.26,9.26,0,0,0,.61,3.65,10.14,10.14,0,0,0,2.46,3,12.83,12.83,0,0,0,3.95,2.88c.67.26,1.39.41,2.08.63l.49.18a83.18,83.18,0,0,1,6.58,5.25,3.7,3.7,0,0,1-.29,1.17c-.26.57-.37,1.13-.58,1.73a23.44,23.44,0,0,1-1.85,3.52,17.47,17.47,0,0,0-2.13,4.74c-.58,2.88-1,5.81-1.45,8.72-.35,2.18-.33,8.2-3.12,8.75a2.55,2.55,0,0,0-.72.18c-.7.37-.51,1.41-.2,2.14a3.39,3.39,0,0,0,1.24,1.72,4.79,4.79,0,0,0,1.91.39,6.84,6.84,0,0,1,4,1.9,1.45,1.45,0,0,0,.57.41,1.31,1.31,0,0,0,.55,0l3.21-.45a4.7,4.7,0,0,0,1.61-.43,1.6,1.6,0,0,0,.9-1.32,5.8,5.8,0,0,1-3.36-1.33,10.49,10.49,0,0,1-2.67-2.26c-1.88-2.5.33-5.45,1.42-7.79,1.93-4.14,3.92-8.4,5.54-12.67.3-.82,1.81-3.56,2.44-3.94a3.18,3.18,0,0,0,1.05-1.15,10.55,10.55,0,0,0,1-2.61c.53-1.82-.3-3.59-1.14-5.13-.14-.26-2.08-3-2.22-3.31l8.14,2.48c2.56.15,5,.44,5,.44a3.43,3.43,0,0,1,.47,1.65c-.06.75-2,6.72-1.87,9.15.18,3,.51,6,.84,9,.15,1.35.25,2.73.49,4.07.19,1,.67,2.27.19,3.29-.27.59-.68,1.09-1,1.67a3.36,3.36,0,0,0-.2,2.69,2.34,2.34,0,0,0,2.13,1.51c1,0,1.91-.85,2.94-1a4.91,4.91,0,0,1,1.57.2c1.91.43,6.42-.12,6.78-1.46.12-.46-.76-1.29-1.17-1.54a4,4,0,0,0-1.34-.43,10.67,10.67,0,0,1-4.73-1.83,2.09,2.09,0,0,1-.63-.74,2.41,2.41,0,0,1-.16-.89c-.14-3.39,1.08-6.9,1.45-10.26.44-3.88,1.1-7.83,1.9-11.66a5.58,5.58,0,0,1,.64-2.22c1.06-1.3.44-3.89,0-5.33-.61-1.8-2.31-2.77-3.88-3.54a28.57,28.57,0,0,0-3.54-1.54c-1.62-.54-14.81-5.26-14.81-5.26a2,2,0,0,1,.82-2c2.61-1.62,6-.49,8.73-1.94.94-.5,1.76-1.9,2.9-1.94.35,0,1.19,1.44,1.36,1.67,1,1.29,2,2.53,2.9,3.86a2.28,2.28,0,0,1,.36.67c.11.41.06.95.44,1.15s.69.07.78.35c.22.69.35.64.94,1a5.88,5.88,0,0,1,1.39,1.62,14.4,14.4,0,0,0,1.71,2.27c.38.2,13.77,2.22,15,2.86s3.67-1.38,3.67-1.38,1.28.42,1.45,1,.53.58.53.58l1.28-1.28,1-2.66S366,269.43,365.6,269.36Z" transform="translate(-17.93 -45.32)"/><path class="cls-86" d="M331.08,259.89c3.09,2.2,6.18,4.41,9.07,6.85a11.56,11.56,0,0,0,4.31,2.73,9.18,9.18,0,0,0,2.84.17c3.19-.19,10.79-2.26,11.52-2.48s1.46.3,2.22.19a2.68,2.68,0,0,0,.75-.28l2.11-1a2.25,2.25,0,0,0-1.88-.63c.14-.51.34-1.52.88-1.78s1.37.37,1.87.57c.17.07.42.09.49-.08s-.05-.25-.14-.35c-.48-.52-.92-1.21-1.63-1.41s-1.33.31-2.07.28-1.34-.44-2.07-.41a2.16,2.16,0,0,0-1.81.94c-.18.31-.27.69-.57.89a1.35,1.35,0,0,1-.57.17q-3.59.5-7.21.71c-1.68.1-3.55.08-4.79-1.06a8.55,8.55,0,0,1-.82-.95c-2.38-2.95-5.9-4.82-8.22-7.82" transform="translate(-17.93 -45.32)"/><path class="cls-86" d="M231.43,324.17l-10-32.42a3.83,3.83,0,0,1,.93-3.79,3,3,0,0,0,.79-1.64c0-.89-.38-1.14-1.68-1.68l-.32-.14.79-1.85.31.13c1.2.5,3,1.26,2.91,3.62a4.81,4.81,0,0,1-1.19,2.75c-.61.82-.87,1.22-.6,2l10,32.37Z" transform="translate(-17.93 -45.32)"/><rect class="cls-86" x="178.13" y="295.43" width="4.01" height="39.52" transform="matrix(0.96, -0.29, 0.29, 0.96, -102.57, 21.5)"/><path class="cls-86" d="M153.21,305.75a23.08,23.08,0,1,0,24.49,21.58A23.11,23.11,0,0,0,153.21,305.75Zm3.88,21.51,13-10.28a19.38,19.38,0,0,1,1.89,3Zm15.14-6.74a19.24,19.24,0,0,1,1,2.67l-15.39,4.37Zm-15.08,5.91,10.57-12a19.58,19.58,0,0,1,2,2.08Zm-.83,0L164.38,312a19.55,19.55,0,0,1,2.88,2Zm-.26-.79,5.18-15.14a19.35,19.35,0,0,1,2.6,1.18Zm-.76.33,1.91-16.45a19.22,19.22,0,0,1,3.44.79Zm-.54-.62-1-16a19.41,19.41,0,0,1,2.86.08Zm-.57.6L149.65,310a19.44,19.44,0,0,1,3.49-.59Zm-.74-.37-7-14.36a19.25,19.25,0,0,1,2.67-1Zm-.3.77-10.28-13a19.4,19.4,0,0,1,3-1.89Zm-.82-.06-12-10.57a19.57,19.57,0,0,1,2.08-2Zm0,.83-14.47-8.06a19.56,19.56,0,0,1,2-2.88Zm-.79.26-15.15-5.18a19.36,19.36,0,0,1,1.18-2.6Zm.33.76-16.45-1.91a19.22,19.22,0,0,1,.79-3.44Zm-.62.54-16,1a19.43,19.43,0,0,1,.08-2.86Zm.6.57-15.94,4.53a19.45,19.45,0,0,1-.59-3.49Zm-.38.74-14.36,7a19.25,19.25,0,0,1-1-2.67Zm.77.3-13,10.28a19.41,19.41,0,0,1-1.89-3Zm-.06.82-10.57,12a19.53,19.53,0,0,1-2-2.08Zm.83,0L145,345.59a19.54,19.54,0,0,1-2.88-2Zm.26.79-5.18,15.15a19.35,19.35,0,0,1-2.6-1.18Zm.76-.33L152.12,348a19.23,19.23,0,0,1-3.44-.79Zm.54.62,1,16a19.42,19.42,0,0,1-2.86-.08Zm.57-.6,4.53,15.94a19.43,19.43,0,0,1-3.49.59Zm.74.37,7,14.36a19.23,19.23,0,0,1-2.67,1Zm.3-.77,10.28,13a19.41,19.41,0,0,1-3,1.89Zm.82.06,12,10.57a19.54,19.54,0,0,1-2.08,2Zm0-.83,14.47,8.06a19.54,19.54,0,0,1-2,2.88Zm.79-.26,15.14,5.18a19.36,19.36,0,0,1-1.18,2.6Zm-.33-.76,16.45,1.91a19.22,19.22,0,0,1-.79,3.44Zm.62-.54,16-1a19.44,19.44,0,0,1-.08,2.86Zm-.6-.57,15.94-4.53a19.45,19.45,0,0,1,.59,3.49Z" transform="translate(-17.93 -45.32)"/><circle class="cls-86" cx="154.66" cy="328.78" r="3.97" transform="translate(-38.37 -34.91) rotate(-3.62)"/><path class="cls-86" d="M230.93,300.83a23.08,23.08,0,1,0,24.49,21.58A23.11,23.11,0,0,0,230.93,300.83Zm3.88,21.51,13-10.28a19.4,19.4,0,0,1,1.89,3Zm15.13-6.74a19.23,19.23,0,0,1,1,2.67l-15.39,4.37Zm-15.08,5.91,10.57-12a19.57,19.57,0,0,1,2,2.08Zm-.83,0,8.06-14.47a19.55,19.55,0,0,1,2.88,2Zm-.26-.79L239,305.6a19.35,19.35,0,0,1,2.6,1.18Zm-.76.33,1.91-16.45a19.22,19.22,0,0,1,3.44.79Zm-.54-.62-1-16a19.44,19.44,0,0,1,2.86.08Zm-.57.6-4.53-15.94a19.44,19.44,0,0,1,3.49-.59Zm-.74-.37-7-14.36a19.26,19.26,0,0,1,2.67-1Zm-.3.77-10.28-13a19.41,19.41,0,0,1,3-1.89Zm-.82-.06-12-10.57a19.58,19.58,0,0,1,2.08-2Zm0,.83-14.47-8.06a19.54,19.54,0,0,1,2-2.88Zm-.79.26-15.15-5.18a19.36,19.36,0,0,1,1.18-2.6Zm.33.76-16.45-1.91a19.22,19.22,0,0,1,.79-3.44Zm-.62.54-16,1a19.44,19.44,0,0,1,.08-2.86Zm.6.57-15.94,4.53a19.45,19.45,0,0,1-.59-3.49Zm-.38.74-14.36,7a19.25,19.25,0,0,1-1-2.67Zm.77.3-13,10.28a19.41,19.41,0,0,1-1.89-3Zm-.06.82-10.57,12a19.52,19.52,0,0,1-2-2.08Zm.83,0-8.06,14.47a19.54,19.54,0,0,1-2.88-2Zm.26.79-5.18,15.15a19.36,19.36,0,0,1-2.6-1.18Zm.76-.33-1.91,16.45a19.22,19.22,0,0,1-3.44-.79Zm.54.62,1,16a19.44,19.44,0,0,1-2.86-.08Zm.57-.6,4.53,15.94a19.44,19.44,0,0,1-3.49.59Zm.74.37,7,14.36a19.25,19.25,0,0,1-2.67,1Zm.3-.77,10.28,13a19.4,19.4,0,0,1-3,1.89Zm.82.06,12,10.57a19.54,19.54,0,0,1-2.08,2Zm0-.83,14.47,8.06a19.54,19.54,0,0,1-2,2.88Zm.79-.26,15.14,5.18a19.35,19.35,0,0,1-1.18,2.6Zm-.33-.76,16.45,1.91a19.2,19.2,0,0,1-.79,3.44Zm.62-.54,16-1a19.44,19.44,0,0,1-.08,2.86Zm-.6-.57,15.94-4.53a19.44,19.44,0,0,1,.59,3.49Z" transform="translate(-17.93 -45.32)"/><circle class="cls-86" cx="232.38" cy="323.87" r="3.97" transform="translate(-37.9 -30.02) rotate(-3.62)"/><path class="cls-86" d="M186,335.08h-.23l-31.27-5.29a1,1,0,0,1-.62-1.61L175,301.23a1,1,0,0,1,.64-.37l47.21-7a1,1,0,0,1,.88,1.68l-37.07,39.25A1,1,0,0,1,186,335.08Zm-29.51-7L185.58,333l34.71-36.76-43.94,6.55Z" transform="translate(-17.93 -45.32)"/><circle class="cls-86" cx="185.92" cy="333.34" r="4.33" transform="translate(-38.59 -32.93) rotate(-3.62)"/><path class="cls-86" d="M171.08,338.94a1,1,0,0,1-.36-2l14.9-4.6a1,1,0,1,1,.59,1.92l-14.9,4.6Z" transform="translate(-17.93 -45.32)"/><rect class="cls-86" x="167.55" y="336.6" width="6.97" height="2.68" transform="translate(-38.91 -33.86) rotate(-3.62)"/><path class="cls-86" d="M185.57,334.31a1,1,0,0,1,.59-1.92l11.41,2.75a1,1,0,0,1,.74,1.21,1,1,0,0,1-1.21.74l-11.41-2.75Z" transform="translate(-17.93 -45.32)"/><rect class="cls-86" x="195.96" y="331.97" width="2.68" height="6.97" transform="translate(-161.09 478.65) rotate(-88.51)"/><path class="cls-86" d="M180.16,295.59c-.22-1-15.67-1.55-16.6,0s-.07,5.73,4.73,6.24C170.83,302.12,180.61,297.51,180.16,295.59Z" transform="translate(-17.93 -45.32)"/><path class="cls-86" d="M214.94,293l-.41-2c6.82-1.41,8.12-3.27,8.36-4a2.26,2.26,0,0,0-.75-2.18c-.4-.45-3-1-5.55-1.06l.09-2c1.32.06,5.72.35,7,1.73a4.08,4.08,0,0,1,1.16,4.15C224,290,220.79,291.78,214.94,293Z" transform="translate(-17.93 -45.32)"/><rect class="cls-86" x="213.99" y="289.84" width="5.22" height="2.68" transform="translate(-102.22 42.97) rotate(-19.36)"/><rect class="cls-86" x="214.92" y="280.07" width="2.68" height="5.22" transform="translate(-87.72 449.15) rotate(-89.1)"/><path class="cls-86" d="M168.5,279.72,167,281.84a20.89,20.89,0,0,0-3.53,6.58c-.62,2.43-.23,5.28,1.62,7a23.4,23.4,0,0,0,2,1.42,13.05,13.05,0,0,1,3.16,3.66,37,37,0,0,0,3.25,3.57,47.36,47.36,0,0,1,5.68,8.27.69.69,0,0,1-.2,1.06,31.38,31.38,0,0,0-5.81,5.94c-1.57,2.37-2.35,5.15-3.39,7.79a9.11,9.11,0,0,1-1.51,2.93c-.66.69-1.5.69-2.31,1.11a1.8,1.8,0,0,0-.87,2.06,3.44,3.44,0,0,0,.88,1.28,9.68,9.68,0,0,0,1.41,1.3c.86.61,1.88.94,2.76,1.5,1.22.78,2.19,2,3.59,2.37a6.34,6.34,0,0,0,3.78-.54c.36-.13.76-.31.88-.68.19-.6-.48-1.08-1-1.39a12.44,12.44,0,0,1-4.08-3.77c-.46-.66-1.11-1.34-.91-2.17s1.36-1.73,1.92-2.42c.77-.94,1.56-1.87,2.25-2.88a115.29,115.29,0,0,1,8.15-10c1.63-.73,2.4-2,2.31-4.15a6.45,6.45,0,0,0-1.07-3.6c-2-3.9-3.29-9-4.69-13.14" transform="translate(-17.93 -45.32)"/><path class="cls-86" d="M170.47,281a19,19,0,0,0-2.83,3.78,7.51,7.51,0,0,0-.92,4.57,10.57,10.57,0,0,0,1.08,3q.86,1.77,1.82,3.48c1.31,2.34,4.69,3.33,6.91,4.44,4.69,2.34,8,5.46,12,8.79,1.47,1.24,1,2.64.65,4.38a25,25,0,0,0-.35,5.6c0,2.71.91,5.33,1.52,8,.21.9.8,2.76.26,3.61s-1.7.7-.82,2.13a7.4,7.4,0,0,0,1.15,1.43,1.64,1.64,0,0,0,.5.37,1.85,1.85,0,0,0,.74.09l4.6-.06a18.59,18.59,0,0,1,3.46.44,2.48,2.48,0,0,0,2.41-.9c.37-.44,1.1-1.63.06-1.73s-2.2-.84-3.3-1.1c-1.26-.3-2.43-.91-3.71-1.13-1.88-.31-.1-14.76.58-18.18.61-3.07,1.43-6.23-1.46-8.43-3.09-2.84-10.94-13.51-19.3-19.14" transform="translate(-17.93 -45.32)"/><path class="cls-86" d="M191.63,273.93a13.44,13.44,0,0,0,3.16-2.58c.91-1,1.85-2.26,3.21-2.35-1.19-1.36-2.13-3.3-3.53-4.44a9.1,9.1,0,0,1-1.5-1.11,10.73,10.73,0,0,0-1.38-1.59.57.57,0,0,0-.35-.15.71.71,0,0,0-.4.22c-1,.85-2.49.86-3.79,1.15-5.52,1.22-10.54,5.07-13.81,9.74-2.32,3.31-4.72,5.27-7.68,8.05-.28.26-.57.59-.5,1a1,1,0,0,0,.24.42c1.92,2.37,5.11,3.23,8.09,4" transform="translate(-17.93 -45.32)"/><path class="cls-86" d="M194.06,267.39a6.6,6.6,0,0,1,2.92-1.31,4.06,4.06,0,0,1,2.77.24,2.87,2.87,0,0,0,.59.25.66.66,0,0,0,.6-.13.75.75,0,0,0,.19-.4c.11-.53,0-1.17.41-1.53a.74.74,0,0,1-.09-.33.74.74,0,0,0,.28-.17.25.25,0,0,0,0-.3c0-.07-.15-.1-.18-.18s.15-.29.32-.35.83-.25.93-.62c.15-.55-.57-.73-.7-1.19a4.75,4.75,0,0,1-.11-.94c0-.14-.15-1.57.08-1.56a10.07,10.07,0,0,0,1.38,0c.2-.06.42-1.16.67-1.75s-1.44-3-2.33-4.42-5.59-1.89-7.06-1.48-4.77,1.27-4.95,1.63.74.43.57.87a4.33,4.33,0,0,1-.48.37,3.68,3.68,0,0,0-.46.57,2.16,2.16,0,0,0-.44,1.31.4.4,0,0,0,.09.26.46.46,0,0,0,.34.09h1.77a20.24,20.24,0,0,0,0,3.26c.06.88.76,1.41,1.14,2.16.28.55-.65,1.25-2.81,1.71" transform="translate(-17.93 -45.32)"/><path class="cls-86" d="M187.85,276.54a5,5,0,0,1,2.48.34,12.34,12.34,0,0,1,2.46,2.77,34.33,34.33,0,0,1,3.94,6.26,2.53,2.53,0,0,0,.48.75c.13.12.28.21.41.33.58.5.74,1.34,1.29,1.87a3.46,3.46,0,0,0,1.5.7c2.82.81,3.33,1,6.16,1.81,2.35.67,5.16,1,7.26,2.31,1.21.77,3.78-1,3.78-1s1.23.55,1.34,1.16.47.63.47.63l1.41-1.14,1.25-2.55s-.46-2.6-.84-2.71a8.87,8.87,0,0,0-2.41-.36c-.52.09-3.95,2.19-4.52,2.47-.39.19-1.39-.46-1.72-.61-1-.47-7.09-4.32-7.93-4.75-.51-.26-2.67-.81-2.9-1.29a3.25,3.25,0,0,1-.31-1.8,52.72,52.72,0,0,1-5.39-8c-.77-1.42-1.35-2.94-2.12-4.36a3.92,3.92,0,0,0-1.54-1.28,21.21,21.21,0,0,0-1.67-1.34,2.43,2.43,0,0,0-.82-.21l-3-.39" transform="translate(-17.93 -45.32)"/><path class="cls-86" d="M192.06,256.48a3.38,3.38,0,0,0-2.23,1,9.43,9.43,0,0,1-2.95,2,7.74,7.74,0,0,1-2,.24,19.11,19.11,0,0,0-3.55.36,7.3,7.3,0,0,0-3.2,1.52,4.8,4.8,0,0,1,2.45-.59c.85,0,1.69.12,2.54.19a14.52,14.52,0,0,0,4.78-.35,10,10,0,0,0,4.23-2.21,3.87,3.87,0,0,0,1.51-3" transform="translate(-17.93 -45.32)"/><path class="cls-86" d="M192.45,256a5.34,5.34,0,0,0-2.51.94,21.49,21.49,0,0,1-3,1.37,7.41,7.41,0,0,1-1.52.42,8.94,8.94,0,0,1-1.32.05l-1.95,0a9.07,9.07,0,0,0,6.5-.08,26.92,26.92,0,0,0,2.71-1.61,5.73,5.73,0,0,1,3-1" transform="translate(-17.93 -45.32)"/><path class="cls-86" d="M191.57,258.22a3.68,3.68,0,0,1-1.38,1.56A9.57,9.57,0,0,1,184,262a4.7,4.7,0,0,0,2.06.13,12.07,12.07,0,0,0,8.49-4.66" transform="translate(-17.93 -45.32)"/><path class="cls-86" d="M194.66,271.93a4.87,4.87,0,0,0-1.45,2.42,7.67,7.67,0,0,1-.48,1.81,3.72,3.72,0,0,1-.95,1.06,20,20,0,0,1-5.62,3.13,10.13,10.13,0,0,0-2.11,1,8.34,8.34,0,0,0-2,2.12c-1,1.35-1.92,3-1.35,4.58a2.85,2.85,0,0,1,.36,1.25c-.06.55-.59.92-1.08,1.18a12,12,0,0,1-4.08,1.28,5.21,5.21,0,0,1-2.7-.25,4.26,4.26,0,0,1-2.33-3.57,9.56,9.56,0,0,1,.85-4.33,33.41,33.41,0,0,1,12-14.63,16.46,16.46,0,0,1,5.46-2.75,2,2,0,0,1,.73-.08,2.22,2.22,0,0,1,.79.32l1.82,1" transform="translate(-17.93 -45.32)"/><path class="cls-86" d="M187.86,276.95c2.92,2.25,5.84,4.5,8.57,7a11.24,11.24,0,0,0,4.09,2.8,8.92,8.92,0,0,0,2.75.26c3.11-.07,10.57-1.82,11.28-2s1.41.35,2.15.26a2.61,2.61,0,0,0,.74-.25l2.09-.94a2.19,2.19,0,0,0-1.81-.68c.15-.49.38-1.46.92-1.69s1.31.41,1.8.62c.17.07.41.1.48-.06s0-.25-.12-.35c-.45-.53-.85-1.21-1.54-1.43s-1.3.26-2,.2-1.28-.47-2-.47a2.1,2.1,0,0,0-1.8.85c-.19.29-.29.66-.59.84a1.31,1.31,0,0,1-.56.14q-3.51.36-7,.44c-1.63,0-3.45,0-4.61-1.2a8.33,8.33,0,0,1-.76-1c-2.21-3-5.57-4.89-7.71-7.89" transform="translate(-17.93 -45.32)"/></g></g></g></g></svg>