<svg xmlns="http://www.w3.org/2000/svg" xmlns:xlink="http://www.w3.org/1999/xlink" viewBox="0 0 752.81 407.55"><defs><style>.cls-1{fill:none;}.cls-2{isolation:isolate;}.cls-3{opacity:0.14;}.cls-4{fill:#00b9be;}.cls-5{clip-path:url(#clip-path);}.cls-6{fill:url(#linear-gradient);}.cls-7,.cls-8{fill:#fff;}.cls-7{opacity:0.11;}.cls-9{fill:url(#linear-gradient-2);}.cls-10{opacity:0.25;mix-blend-mode:multiply;}.cls-11{fill:#b9e1f9;}.cls-12{fill:url(#linear-gradient-3);}.cls-13{fill:url(#linear-gradient-4);}.cls-14{fill:url(#linear-gradient-5);}.cls-15{fill:url(#linear-gradient-6);}.cls-16{fill:url(#linear-gradient-7);}.cls-17{fill:url(#linear-gradient-8);}.cls-18{fill:#0f2e60;}</style><clipPath id="clip-path"><path class="cls-1" d="M580.84,52c-28.44.48-56.59-5.09-84.78-8.87s-57.3-5.75-84.74,1.78C391.5,50.3,372.57,61.61,359.71,78.1c-15.58,20-15.16,44.1-24.28,66.72-9.75,24.22-26.33,46-48.65,59.9-24.27,15.08-52,23.34-77.14,36.68-3.26,1.73-6.47,3.53-9.62,5.44-6.1,3.7-12.71,9.45-11.51,16.48.72,4.25,4.18,7.46,7.64,10A80,80,0,0,0,221,285.83c7.56,2.26,15.57,3.44,22.39,7.41s12.27,11.84,10.26,19.47c-.56,2.12-1.66,4.1-1.93,6.28-.55,4.41,2.39,8.49,5.61,11.56,18.1,17.27,46,17.19,70.06,24,18.27,5.18,35,14.72,53,20.92,30.37,10.49,63.22,11.08,95.32,9.54A765.3,765.3,0,0,0,583.3,372.15q26.91-5.17,53.4-12.26c7.86-2.1,8.59-2.42,8.59-10q0-5.87,0-11.74V20C635.25,43.36,606.22,51.54,580.84,52Z"/></clipPath><linearGradient id="linear-gradient" x1="394.72" y1="16.74" x2="394.72" y2="387.88" gradientUnits="userSpaceOnUse"><stop offset="0" stop-color="#a2ebff"/><stop offset="0.05" stop-color="#a8ecfb"/><stop offset="0.48" stop-color="#d6f0de"/><stop offset="0.81" stop-color="#f2f3cd"/><stop offset="0.99" stop-color="#fdf4c6"/></linearGradient><linearGradient id="linear-gradient-2" x1="265.49" y1="138.87" x2="265.49" y2="165.97" gradientTransform="matrix(-1, 0, 0, 1, 807.63, 0)" gradientUnits="userSpaceOnUse"><stop offset="0" stop-color="#fff" stop-opacity="0.2"/><stop offset="0.24" stop-color="#fdfeff" stop-opacity="0.21"/><stop offset="0.47" stop-color="#f7fbff" stop-opacity="0.26"/><stop offset="0.68" stop-color="#edf6ff" stop-opacity="0.33"/><stop offset="0.89" stop-color="#dfeeff" stop-opacity="0.43"/><stop offset="1" stop-color="#d6eaff" stop-opacity="0.5"/></linearGradient><linearGradient id="linear-gradient-3" x1="303" y1="344.23" x2="303" y2="185.16" gradientUnits="userSpaceOnUse"><stop offset="0" stop-color="#b9e1f9"/><stop offset="1" stop-color="#a2ebd3"/></linearGradient><linearGradient id="linear-gradient-4" x1="292.98" y1="238.61" x2="292.98" y2="257.52" gradientUnits="userSpaceOnUse"><stop offset="0" stop-color="#fff" stop-opacity="0.7"/><stop offset="0.25" stop-color="#fdfeff" stop-opacity="0.69"/><stop offset="0.48" stop-color="#f7fbff" stop-opacity="0.66"/><stop offset="0.7" stop-color="#ecf5ff" stop-opacity="0.61"/><stop offset="0.92" stop-color="#def" stop-opacity="0.53"/><stop offset="1" stop-color="#d6eaff" stop-opacity="0.5"/></linearGradient><linearGradient id="linear-gradient-5" x1="516.39" y1="361.34" x2="516.39" y2="180.69" xlink:href="#linear-gradient-3"/><linearGradient id="linear-gradient-6" x1="556.73" y1="199.13" x2="556.73" y2="221.1" xlink:href="#linear-gradient-4"/><linearGradient id="linear-gradient-7" x1="445.82" y1="347.46" x2="445.82" y2="257.26" gradientUnits="userSpaceOnUse"><stop offset="0.23" stop-color="#01a7c2"/><stop offset="0.42" stop-color="#37b4c6"/><stop offset="0.6" stop-color="#63bfca"/><stop offset="0.77" stop-color="#82c7cc"/><stop offset="0.9" stop-color="#95cbcd"/><stop offset="1" stop-color="#9ccdce"/></linearGradient><linearGradient id="linear-gradient-8" x1="268.57" y1="361.43" x2="268.57" y2="288.67" xlink:href="#linear-gradient-7"/></defs><title>Asset 1</title><g class="cls-2"><g id="Layer_2" data-name="Layer 2"><g id="OBJECTS"><g class="cls-3"><path class="cls-4" d="M610.42,0C593.36,28.67,556,38.51,522.65,36.8S456.85,24.58,423.5,23.69s-70.57,11-85.48,40.85c-5.9,11.8-7.88,25-9.23,38-1.15,11-3.89,21.28-5.23,32.06-7,56.18-58.36,91-104.08,116-9.27,5.07-18.66,9.92-27.83,15.18-4,2.28-8.17,4.79-10.21,8.89-4.66,9.36,5.09,20.16,15.26,22.56,14.77,3.48,32.24-3,44.08,9.26,2.74,2.84,4.85,6.56,4.77,10.5-.14,6.63-6.17,10.84-5.5,17.69a18.71,18.71,0,0,0,9.27,13.93c4,2.21,8.53,3.14,13,4,15.23,2.89,47.38,1.54,61.67,7.77,31.59,13.77,46,31.22,79.84,38.7a363.78,363.78,0,0,0,92.87,8.17c62.25-2.46,124.06-20.55,177.11-53.39a335,335,0,0,0,27.7-19.12c10-7.66,19.63-15.92,27.47-25.76,21.09-26.45,27.34-62.69,22-96.1"/></g><g class="cls-5"><rect class="cls-6" x="140.09" y="16.74" width="509.26" height="371.14"/><circle class="cls-7" cx="494.75" cy="98.94" r="34.67"/><circle class="cls-7" cx="494.75" cy="98.94" r="23"/><circle class="cls-7" cx="494.75" cy="98.94" r="14"/><circle class="cls-8" cx="494.75" cy="98.94" r="9.75"/><path class="cls-9" d="M631.16,140.86c-9.58-4.21-20.57.77-31,.39-4.44-.16-8.78-1.31-13.18-1.9a54,54,0,0,0-27.15,3.36c-3.46,1.38-6.79,3.13-10.4,4-8.45,2.14-17.32-.51-26-.32-5.17.11-10.26,1.22-15.39,1.81-15.18,1.75-30.49-1-45.46-4.14-9.27-1.92-16.35-2.12-25.48.11-6.52,1.59-14.81,2.51-21.47,1.42a64.92,64.92,0,0,0-22.46.33c-2.12.36-4.78,1.76-2.29,3.79a7.52,7.52,0,0,0,4.36,1.5c3,.12,5.92-1,8.91-1.47,6.33-1,12.42,1.13,18.62,1.95,5.6.74,11.68-2.08,17.1-.31,7.37,2.42,9.49,5.22,17.56,3.58a79.91,79.91,0,0,1,23.72-1.21c10.26,1,20.57,4,30.72,2.19,3.84-.69,7.68-2.08,11.54-1.52,4.43.64,8.06,3.7,12,5.74,7.33,3.76,16,4,24.15,3.27,9.42-.89,18.66-2.58,28.16-2.73,13-.2,25.87,2.77,38.82,4.18,22.59,2.46,45.39.15,68-2.16"/><g class="cls-10"><path class="cls-11" d="M157,273.32c9.89-9.71,23.72-14,35.57-21.25,11.41-6.93,21-16.54,32.36-23.55,17.16-10.59,38.33-15.29,52.2-29.92l.86,4.67a17.52,17.52,0,0,0,6.91-9.51c-.65.17-.47,1.28.17,1.51a2.34,2.34,0,0,0,1.9-.47A39.63,39.63,0,0,0,303,176.1c.76-1.84,1.94-4.12,3.92-3.91a4,4,0,0,1,1.89.9c5.28,4,8.18,10.34,13,14.79a23.78,23.78,0,0,0,12.22,5.91l3.1-2.73c5,11.43,19.53,13.35,27.84,21.47,7.57,7.39,18.28,25,31.14,16.49,2.88-1.91,5.12-5.11,7.47-8,6-7.49,17.92-11.58,25.85-17.12a207.64,207.64,0,0,0,26.74-22.2c1.88-1.85,4-3.84,6.59-4,1.38-.09,2.79.34,4.13,0,1.6-.38,2.76-1.74,3.8-3l30.37-37.35c.6-.74,1.56-1.55,2.37-1.06s-.87,1.77-.76.83l10.45-14.93,2.81-.64,2.46,16.35c2.47-1.76,6-.2,8.19,1.85s4.19,4.71,7.13,5.47c1.29.33,2.67.26,4,.64,2.21.65,3.8,2.53,5.3,4.28a156.4,156.4,0,0,0,16.42,16.77c4.06,3.52,4.14,4.08,8,.75,3.52-3,6.35-7.86,9.29-11.49l1.43,5.16a230.74,230.74,0,0,1,14.7-19.87c6.51,7.23,10.5,16.33,14.38,25.26L616.92,189a61,61,0,0,0,6-8.66c11.22,47.29,22.45,94.66,37.82,140.76"/></g><path class="cls-12" d="M68.51,292c14.56-8.06,62.4-27.12,77.19-34.05,2.93-1.37,6.29-2.52,8.86-4.47,2.34-1.78,3.41-3.8,6.64-4.29a9.36,9.36,0,0,0,2.72-.56,8.66,8.66,0,0,0,2.61-2.65,12.68,12.68,0,0,1,6.88-4.32,21.49,21.49,0,0,0,3.91-1c1.68-.75,2.91-2.24,4.34-3.42,2.54-2.1,5.71-3.19,8.69-4.56,6.91-3.15,12.31-7.76,18.3-12.23,4.48,2.83,7.44,7.32,11.52,10.57,4.78,3.81,11.33,4.77,16.51,8.06a15.14,15.14,0,0,0,3.48,1.87,27.54,27.54,0,0,0,3.29.59,23.88,23.88,0,0,1,7.13,3c4.91,2.74,9.62,5.81,14.37,8.81,3.59,2.27,10.28,8.2,14.54,8.46,3.46.21,6.25-6.22,9-9.18a55.41,55.41,0,0,1,12-9.84c2.46-1.49,5.06-2.81,7.07-4.88s3.29-4.67,5.64-6.15,5.22-1.55,7.48-3c3.57-2.36,4.93-7.76,9-8.9,1.45-.4,3.15-.21,4.31-1.19a10.93,10.93,0,0,0,1.59-2.24c1.15-1.63,3.06-2.47,4.88-3.23l13.1-5.52a3.88,3.88,0,0,0,2.18-1.62c.58-1.21-.16-2.66,0-4,.37-2.29,3.13-3.08,5.36-3.52,10.83-2.15,24.25-13.77,29.91-13.37s13.65,14.26,22,17.77c13.92,5.84,24.38,17.92,37.52,25.4,7.52,4.27,15.78,7,23.75,10.26a170,170,0,0,1,70.12,54.25c3.59,4.74,7,9.93,7.75,15.87,1,8.47-3.92,16.82-10.68,21.85s-15.11,7.28-23.32,8.9c-21.91,4.33-44.35,4.92-66.67,4.73-112.56-1-225.16-21.66-337.18-10.4-20.23,2-40.7,5.1-60.77,1.81"/><path class="cls-13" d="M186.63,242.23a187.63,187.63,0,0,0,21,1c2.82,0,5.61.42,8.31-.32,3.31-.9,6.16-1.72,9.66-1.1,1.8.32,3.55.94,5.37,1.18a28,28,0,0,0,8.59-.71,230.06,230.06,0,0,1,68.44-2c-.26,1.34-2,1.73-3.34,1.83q-11.22.78-22.48,1c-3.54.07-7.78.51-9.37,3.66,3.58,2.35,8.22,2.05,12.5,1.87,19.65-.84,39.27,2.61,58.94,2.33,18.41-.26,36.66-3.79,55.07-4.09,2.33,0,4.86,0,6.65,1.54-7.72.24-15.21,2.46-22.82,3.79-15.41,2.69-31.19,1.71-46.79,2.91-11.29.86-22.57,2.87-33.86,2-10.06-.74-20.24-3.73-30.08-1.47-3.05.7-6,1.9-9.18,1.86-4.26-.06-5.13-2.72-7.94-5-6.26-5-15.93-1-22.78-.3a15.92,15.92,0,0,1-5.57-.24c-1.69-.44-3.22-1.34-4.85-1.94-7.37-2.75-15.48.51-23.34.84-6.26.26-12.62-1.37-18.74,0"/><path class="cls-14" d="M356.18,293.13q21.39-10.57,42.13-22.4c19.45-11.09,38.41-23,57.38-34.9L471.41,226a86,86,0,0,0,11.32-8c8.61-7.58,14.82-19,25.88-22a9,9,0,0,0,5.57,4.49c9,2.38,14.69-5.44,19.42-11.72,11.78-15.65,8.79-5.53,20.36,5,15.67,14.28,43.48,35,55.65,51.82,12.93,17.82,35.7,26.31,49.13,43.77,10.76,14,14.29,32.07,17.5,49.43.34,1.85.66,3.87-.23,5.53-1.24,2.3-4.2,2.92-6.79,3.28a1459.14,1459.14,0,0,1-236.69,13.28"/><path class="cls-15" d="M613.81,200.39a47.78,47.78,0,0,0-18.48-.66,73.39,73.39,0,0,1-7.29,1.12,52.74,52.74,0,0,1-7.38-.35,97.12,97.12,0,0,0-22.49.78c1,2.12,4,2,6.38,2a21.06,21.06,0,0,1,11.38,3.27c-.51,1.44-2.26,1.95-3.78,2.16-9.74,1.4-19.78-.86-29.44,1-2.53.48-5,1.24-7.55,1.61-3.92.57-7.91.21-11.86,0a185.33,185.33,0,0,0-24,.61c-3.92.32-7.84.73-11.76,1.16-3.1.34-6-1.52-8.81.78a142.27,142.27,0,0,0,26.79,2c7.06-.14,13.95-.26,21-.43.84,0,2,.28,1.91,1.12-.06.53-.63.82-1.13,1a19,19,0,0,1-5.1,1,3.54,3.54,0,0,0-1.67.35,1.09,1.09,0,0,0-.44,1.47l21-1c5.63-.28,11.39.17,17-.23,4.76-.33,9-3,14-2.62,4,.31,7.69,2.4,11.6,3.47,4.17,1.15,8.57,1.11,12.9,1.06l38.14-.41"/><path class="cls-16" d="M585.65,274.12c-28.43-15.24-61.94-18.84-94.07-15.92s-63.34,12-94.35,20.87c-51.15,14.66-103.18,29.07-156.39,29.15,36.89,3.1,71.82,17.34,107.94,25.46,24.74,5.56,50,8.23,75.29,10.46,35.51,3.13,71.41,5.4,106.71.38a262.14,262.14,0,0,0,120-49.74"/><path class="cls-17" d="M97.7,301.32c26.21,4.9,55.94-1,82.07-6.28,27.58-5.56,55.92-7.81,84-5.42,23.55,2,46.69,7.27,70.07,10.74,28.52,4.23,57.6,4.48,86.36,6l90.51,4.72c6.95.36,14.11.78,20.36,3.83,2.59,1.26,5.14,3.19,5.89,6,1.22,4.53-2.7,8.71-6.44,11.54-20.49,15.49-46.17,22.69-71.68,25.68-21.67,2.54-45.76,4.56-67.53,2.52-6.51-.61-12.48-3.38-19-4-8.83-.89-18-.09-26.91-.07-37.11.06-74.23-.71-111.31-2.1-64.19-2.41-129-5.55-192.56-15-13.8-2.06-28.43-3.95-41.5-9.09"/><path class="cls-18" d="M509.91,303.73l.08.17c0-.07,0-.14,0-.22Z"/><path class="cls-18" d="M266.22,328.56v0Z"/><path class="cls-18" d="M303.8,327.93c.07-.09.13-.19.2-.29A1.32,1.32,0,0,0,303.8,327.93Z"/><path class="cls-18" d="M355.74,328.52v0S355.73,328.5,355.74,328.52Z"/><path class="cls-18" d="M567.83,293.45a6.49,6.49,0,0,0-.22-.71Z"/><path class="cls-18" d="M591.5,310.86c1.82-1.48-5.37-9.25-4.57-11.42,1.7-4.62-.31-9.68-.38-14.58a39.45,39.45,0,0,1-1.64,5.27c-.23.6-.73,1.31-1.35,1.1-.38-.13-.55-.55-.66-.93l-.93-2.92a9.52,9.52,0,0,1-.7,4.74,20.34,20.34,0,0,1-.79-3.86l-1.18,4.13a21.73,21.73,0,0,1,.31-4.11,31.8,31.8,0,0,1-1.73,5.3,7.4,7.4,0,0,1-.68-4.52l-1.59,4.73c-.15.45-.53,1-1,.81-.26-.12-.33-.44-.36-.71a12.5,12.5,0,0,1,.17-3.69,10.19,10.19,0,0,0-1.43,5.27,11.05,11.05,0,0,1-1.25-3.51,11.51,11.51,0,0,1-1.85,4.72q-.13-2.44-.11-4.88a24.6,24.6,0,0,0-.8,5.41l-1.17-3.74a6.83,6.83,0,0,1-.48,4.67l-.19-2.67-1.32,3.79a6.36,6.36,0,0,1-.61-4,22.22,22.22,0,0,0-1.56,5,9.43,9.43,0,0,1,.21-4.46l-2.58,5.07a9.22,9.22,0,0,1-.49-4.14,18.3,18.3,0,0,0-1.11,4.22,12.08,12.08,0,0,1-.11-4.79,9.49,9.49,0,0,0-1.33,5.52,10.9,10.9,0,0,1-1.16-4.13,13,13,0,0,0,0,4.91,27,27,0,0,0-3-4.45,7.28,7.28,0,0,1,.32,5.77,16.26,16.26,0,0,1-.58-4.33,12.82,12.82,0,0,0-1.33,4.82,7.72,7.72,0,0,1-.13-3.93,5.7,5.7,0,0,0-1,4.77c-.65,0-.92-.8-1-1.43l-.44-3.31a8.47,8.47,0,0,0-.5,4l-.68,0a8.66,8.66,0,0,1-2-4.8,5.62,5.62,0,0,1-.45,3.24l-.57-3.11a15,15,0,0,1-.19,3.94,5.7,5.7,0,0,1-1.29-5,12.07,12.07,0,0,0-1,5,7.71,7.71,0,0,1-.9-4.81,7.82,7.82,0,0,0-.9,5.5,5.31,5.31,0,0,1-2-4.18,17.47,17.47,0,0,0-.42,4,6.35,6.35,0,0,1-1.66-3.46l-.41,3.75a6.53,6.53,0,0,1-.84-4.46,6.54,6.54,0,0,0-1.33,5.23,4.49,4.49,0,0,1-1.61-2.2l-.11,2.14a3.81,3.81,0,0,1-1.65-3.71,5.86,5.86,0,0,0-.71,3.33,8.24,8.24,0,0,1-1.58-4.6,7.27,7.27,0,0,0-.84,4.72,13.51,13.51,0,0,0-3.28-3.35,6,6,0,0,1,1.06,3.62,11.42,11.42,0,0,1-2.42-4.45,33.5,33.5,0,0,0-.21,4.94,6.91,6.91,0,0,1-2.27-4.47l-.33,4.09a5.08,5.08,0,0,1-1.2-4.45,6,6,0,0,0-1.18,4.78,4,4,0,0,1-1.32-3.22l0,2.67a12.54,12.54,0,0,0-3.08-3.67,7.4,7.4,0,0,1,.88,4.1,2.78,2.78,0,0,1-1.28-1.45,7,7,0,0,1,.12,2.32,4.79,4.79,0,0,1-1.82-3.26l.2,4A10.51,10.51,0,0,1,510,303.9a28.22,28.22,0,0,0-.18,4.84l-2.08-5.27c.41,1.86.53,4.06-.83,5.43l-.43-2.65a6.12,6.12,0,0,0-.89,2.43l.9-4.13a18,18,0,0,0-2.55,4.17c-.49-1.88.68-3.75,1.8-5.36a4.75,4.75,0,0,0-2.48,2.75,4.23,4.23,0,0,1-.87,2,21.4,21.4,0,0,1-.28-3.83c-1,.85-.55,2.44-1.09,3.61a.39.39,0,0,1-.2.23c-.23.08-.39-.21-.44-.45a9.68,9.68,0,0,1,0-3.77c-1,1.12-.88,2.91-1.8,4.12a23.7,23.7,0,0,1-.58-4.74c-1.14,1.35-.76,3.37-1.44,5-.38,0-.49-.5-.49-.86q0-1.77,0-3.54c-1.23.9-.51,4-1.6,5.11a32.15,32.15,0,0,1,0-4.94,15.8,15.8,0,0,0-1.34,5.19,14.11,14.11,0,0,1-.59-5.91c-1.3,1.6-1.53,3.75-1.71,5.77a10.59,10.59,0,0,1-1.15-4.82c-.19,1.59-.39,5.17-.59,6.76a13.48,13.48,0,0,1-.87-6.44c-1,1.79-1,3.93-1.07,6a3.67,3.67,0,0,1-.81-2.51q-.09-1.57-.13-3.15a21,21,0,0,0-.73,6.9c-1.3-2.4-1.27-5.36-2.79-7.63q.19,3.06.12,6.13a8,8,0,0,1-1-3.12l-1,3.65a16,16,0,0,1-.46-3.64,12.87,12.87,0,0,0-1.35,3.52c-.21-1.46-.39-3.05.37-4.33A17.93,17.93,0,0,0,477,310.4l.76,1.45a10.3,10.3,0,0,1-1.67-6,3.66,3.66,0,0,0-1.12,2.34,11.38,11.38,0,0,1-.51,2.58c-.62-.22-.82-1-.91-1.59a22.2,22.2,0,0,1-.22-3.3,13.13,13.13,0,0,0-1.38,4.8,6.51,6.51,0,0,1-.68-4.22,8.7,8.7,0,0,0-.74,4.65l-2.19-4.93.05,4.46a1.85,1.85,0,0,1-.24,1.16,1.34,1.34,0,0,1-.5-.89l-.59-2.37a31.55,31.55,0,0,0-.81,3.78,4.08,4.08,0,0,1-.79-2.58,9,9,0,0,1,.55-2.69,6,6,0,0,0-1.44,5.6c-.43.07-.7-.43-.82-.84l-1.1-3.8a3,3,0,0,0-.27,1.59l.07,3.41a11.93,11.93,0,0,1-1.4-5.75,4.62,4.62,0,0,0-1,2.74,13.57,13.57,0,0,0,.25,2.93,6.05,6.05,0,0,1-1.48-4.09,6.63,6.63,0,0,0-.69,4.34,4.27,4.27,0,0,1-1.27-2.56l-.49,2.68a29.67,29.67,0,0,0-1.67-4.33l-.84,4.32a4.82,4.82,0,0,1,.19-3.23c-1.18,1.18-2.41,2.48-2.65,4.1a4.62,4.62,0,0,1,.61-3.16,10.54,10.54,0,0,0-2,3.51,18.27,18.27,0,0,1-.07-4.35,3.62,3.62,0,0,0-1.42,2,16.38,16.38,0,0,1-.82,2.38q-.14-1.45-.17-2.91c-.7,1-.49,2.53-1.36,3.45a8.85,8.85,0,0,1,.1-5.5,5.69,5.69,0,0,0-1.77,3,16.58,16.58,0,0,0-.41,3.46l-2.39-4.62a25.59,25.59,0,0,1,.41,5.52c-.94-.9-.88-2.37-.76-3.65a5.05,5.05,0,0,0-1.17,4.09c-.56,0-.8-.69-.87-1.22a16.23,16.23,0,0,1-.1-3.37c-1.33,1.5-1.38,3.67-1.35,5.65q-1.29-2-2.51-4a11.41,11.41,0,0,1,.53,4.65,2.08,2.08,0,0,1-.88-1.61,16.53,16.53,0,0,0-.17-1.88,7.27,7.27,0,0,0-1.17,4,5.72,5.72,0,0,1-.9-4,2.55,2.55,0,0,0-.93,2.14c0,.8.19,1.6.19,2.4l-2-3.1a13.89,13.89,0,0,1,.68,3.63,9.3,9.3,0,0,1-.77-1.55l.1-.15c-.86-1.2-.67-4.85-.48-6a5.94,5.94,0,0,0-1.09,2.46c-.17.9-.14,1.83-.23,2.74l-.22.36a9.36,9.36,0,0,1-.86-2.57l-.25,3.29a11,11,0,0,0-1.38-3.49,7.21,7.21,0,0,1-.92,4.66c-.91-1.66-.2-2.26-.18-4.14a3.17,3.17,0,0,0-.86,2.06,2.49,2.49,0,0,1-.4,1.23,2,2,0,0,1-.44-1.29,12.57,12.57,0,0,1,.05-2.49,7.7,7.7,0,0,0-1.42,4.33,4.7,4.7,0,0,1-.51-3.69c-1.2,1.32-1.86,2.11-1.8,3.87-1.09-1.59-1-2.36-.62-4.23-1.46,1.41-2.15,2.54-1.79,4.51-.67-.72-1.7-.09-1.26-3.82-.83,1.13-.69,2.66-.52,4a8,8,0,0,1-1-5.57,3.72,3.72,0,0,0-1,2.94c0,1.07.32,2.12.37,3.19-.77-2-2.13-4.68-3.87-5.91a8.09,8.09,0,0,1,1.78,5.34,3.72,3.72,0,0,1-1.34-1.8c-.28-.7-.43-1.45-.68-2.16a3.2,3.2,0,0,0-.47,2.17,16.29,16.29,0,0,1,.18,2.26,2.36,2.36,0,0,1-1.1-1.67,22.31,22.31,0,0,1-.5-2.24,10.08,10.08,0,0,0,.17,4.29,2.6,2.6,0,0,1-1.25-1.87,6.77,6.77,0,0,0-.68-2.2,12.23,12.23,0,0,0,.43,5.08c-.73-1.58-2.44-2.54-3.34-4l.53,3.76c0,.35.1.7.14,1.05-1.08-.57-1.42-2.89-1.65-4.06-.54.89-.11,2-.09,3a2.81,2.81,0,0,1-.8-3.37,3,3,0,0,0-.72,3.81l.8.84a1.82,1.82,0,0,1-1-.83,5.61,5.61,0,0,1-.8-4,7,7,0,0,0-.51,5l0-.2c-.86-1.49-.74-2.95-1-4.64-.35.13-.54,1.49-.7,1.82l-1.1,2.27a5.81,5.81,0,0,1-.15-2.95,6.93,6.93,0,0,0-1.86,3.58,2.57,2.57,0,0,1-.74-2.48,2.09,2.09,0,0,0-1,1.12,6,6,0,0,0-.34,1.47,5,5,0,0,1-.54-2.63,5.25,5.25,0,0,0-.6,2.85,5.59,5.59,0,0,1-.4-4,6.16,6.16,0,0,0-1.89,4.17l-2.09-2.5.37,2.32a1,1,0,0,1-.14.86c-.49-.7-.94-.44-1.34-1.19a8.76,8.76,0,0,0-.26,2.31,5.9,5.9,0,0,1-1-3.91,6.8,6.8,0,0,0-1.48,4.06,2.84,2.84,0,0,1-.2-2.62,3.5,3.5,0,0,0-1.23,3,4.73,4.73,0,0,1-.75-3.33,9,9,0,0,0-1.95,4.32c.42-1.5-.91-1.59-.81-3.15a5.78,5.78,0,0,0-1.84,2.67c-.46-.25-.09-1.07-.51-1.38a5.29,5.29,0,0,1-.43,1.66,5.72,5.72,0,0,1,.15-3.13,5.59,5.59,0,0,0-1.35,3.36l-2-3a18.07,18.07,0,0,1-.24,3.16.35.35,0,0,1-.09.21.26.26,0,0,1-.33,0,.7.7,0,0,1-.15-.33l-.53-1.93A18.53,18.53,0,0,1,369,328c-.06.12-.15.25-.28.24s-.2-.21-.21-.36a9.61,9.61,0,0,1,.35-2.91,5.22,5.22,0,0,0-1.93,2.45c-.1.28-.21.6-.49.72a6.22,6.22,0,0,1-.37-2.25,6.78,6.78,0,0,0-1,2.66,4.32,4.32,0,0,1,.44-4.49,5.64,5.64,0,0,0-2.53,4.24c-.54-.58.06-1.6-.39-2.24l-.93,2.6a5.39,5.39,0,0,0-.81-2,1.31,1.31,0,0,1-.2.94,19.62,19.62,0,0,1-1.19,2v.18a15.7,15.7,0,0,1,.1-3.5,6.54,6.54,0,0,0-1.63,3.11,2.46,2.46,0,0,1-.17-1.64,17.9,17.9,0,0,1,.54-2.47c-1.06.86-2.2,1.85-2.4,3.18,0,0,0,.08-.07.06l-.29.67a23.76,23.76,0,0,0-.88-2.26,5.22,5.22,0,0,1-1.13,2.81,8.48,8.48,0,0,1,.76-4.31,5.32,5.32,0,0,0-2.53,3.63,2.34,2.34,0,0,1-.32-1.58l0-1.09a6.58,6.58,0,0,0-1.7,3.15,5,5,0,0,1,.14-3.95,4,4,0,0,0-1.77,2.64,3.16,3.16,0,0,1-.45,1.56,7.69,7.69,0,0,0-1.27-2.32,4.76,4.76,0,0,1-1.47,3.34c-.4-1.26.38-3,.78-4.26a4.08,4.08,0,0,0-2.08,3.1c0,.16-.11.36-.28.34a12.11,12.11,0,0,1,.24-4.05,3.64,3.64,0,0,0-2.06,2.43,5.9,5.9,0,0,1-.42,1.61,7.08,7.08,0,0,1-.34-2.94c-.58.17-.76.87-.85,1.45l-.27,1.76q-.53-1.55-.92-3.14c-.73.92-.08,2.32-.56,3.38a15,15,0,0,0-1.54-4,15.67,15.67,0,0,1-.46,4.21,5.48,5.48,0,0,1-.28-3.43,6.21,6.21,0,0,0-1.7,3.41,3.24,3.24,0,0,1-.44-2.13,17.86,17.86,0,0,0,.18-2.2,9.62,9.62,0,0,0-2.31,3.9,10.65,10.65,0,0,1-.58-1.81,2.78,2.78,0,0,1-.8,1.67,9.33,9.33,0,0,0-.35-2,5.65,5.65,0,0,1-2.08,2.91c0-1.21.73-2.15,1-3.34a2.12,2.12,0,0,1,.59-1.25,6.89,6.89,0,0,0-2.32,3c-.08.28-.26.65-.54.56s-.23-.31-.23-.51a11.1,11.1,0,0,1,.13-1.77c-.77.51-1,1.52-1.27,2.38,0,.11-.11.24-.23.25a.26.26,0,0,1-.19-.08,1,1,0,0,1-.23-.69,13.54,13.54,0,0,1,.06-1.9l-1.19,2.52a1.45,1.45,0,0,1-.21-1.16,13.73,13.73,0,0,1,.59-2.62,5.15,5.15,0,0,0-1.39,2,7.74,7.74,0,0,1-.74,1.9,6.33,6.33,0,0,1-.64-1.72q-.35,1-.72,1.94a10.35,10.35,0,0,1-.7-2,9.19,9.19,0,0,1-1.17,2.35l0-.71a15.3,15.3,0,0,1,.53-3.23c-1.16.62-1.71,1.91-2.32,3.05,0,.09-.12.19-.22.2s-.22-.21-.21-.37a11.1,11.1,0,0,1,1.35-4.23,10,10,0,0,0-2.66,3.72.81.81,0,0,1-.21.34.28.28,0,0,1-.37,0,.34.34,0,0,1-.07-.2,3.2,3.2,0,0,1,.05-.83,12.64,12.64,0,0,1,.73-2.63,9.89,9.89,0,0,0-2.15,3.76,9.73,9.73,0,0,0-.34-1.12,4,4,0,0,0-.71,2l-1-2.15a5.68,5.68,0,0,1-1,2.84c.1-1.74.4-2.6.62-4.56l-1.25,2.38c-.1.2-.53.85-.73.73s-.14-.26-.13-.41l.15-2.21a11.35,11.35,0,0,0-1.57,3.16,6.63,6.63,0,0,1,.33-4.32,7.54,7.54,0,0,0-2.14,3.91q-.24-.77-.51-1.54a3.59,3.59,0,0,0-.6,1.57,4.72,4.72,0,0,1-.28-1.26,1.82,1.82,0,0,1,.19-.92,7.45,7.45,0,0,0-1.34,3.18,9.57,9.57,0,0,0-.78-4l-1,2.47c-.07.18-.21.39-.41.35l.47-1.59a2.25,2.25,0,0,0-1.35.87,9.2,9.2,0,0,1-1.07,1.23,3.06,3.06,0,0,1,1.31-3.07,5.75,5.75,0,0,0-2.84,2.63,2,2,0,0,1-.08-1.57c.16-.52.41-1,.55-1.53a2.8,2.8,0,0,0-1.7,2.14,3.4,3.4,0,0,1-.22,1.15,8,8,0,0,0-1.8-4.36,3.51,3.51,0,0,1,.11,2.38q-.22,1.1-.53,2.19a3.18,3.18,0,0,1-.58-2.5c.07-.75.21-1.5.34-2.24a10,10,0,0,0-1.46,3.72c0,.19-.12.44-.32.43s-.27-.3-.26-.51l.11-2.06a5.38,5.38,0,0,0-.74,2.58c-.32-.07-.42-.45-.44-.77a12.5,12.5,0,0,1,0-2.28,2.49,2.49,0,0,0-.75,1.72,12,12,0,0,1-.19,1.9,9.17,9.17,0,0,1-1.09-5.89,8.83,8.83,0,0,0-1.95,5.26,6.25,6.25,0,0,1-.57-2.43c-.43.2-.56.73-.63,1.19l-.24,1.44a.94.94,0,0,1-.36-.81,6,6,0,0,1,.26-2.12c-.73,1-1.48,2.16-1.23,3.37V332c-.13-1.05-.69-2.08-.89-3.15a4.82,4.82,0,0,1,.38-2.93,6.61,6.61,0,0,0-2.36,3.23,1.13,1.13,0,0,1-.38.65,5.06,5.06,0,0,1,.54-4.58,6.27,6.27,0,0,0-2.57,4.68c-.25-1.53-1.26-2.86-1.58-4.38a10,10,0,0,1-1.09,4.58,5.06,5.06,0,0,1-.16-2.33,3.11,3.11,0,0,0-.88,1.76.44.44,0,0,1-.1.27.3.3,0,0,1-.42-.09.75.75,0,0,1-.08-.47,7.88,7.88,0,0,1,.44-2.13,8.3,8.3,0,0,0-1.18,2.23c-.15-.08-.15-.28-.14-.45a11.87,11.87,0,0,1,.91-3.7,8.89,8.89,0,0,0-2.84,4.17c-.2,0-.25-.27-.24-.47l.09-1.64a12.14,12.14,0,0,0-1.09,2.24,5.24,5.24,0,0,1-.22-2.55,7,7,0,0,0-1.23,3.81l-1.7-2.23a1.24,1.24,0,0,1,0,.25q0,1.12-.11,2.24l.13,1.35a1.65,1.65,0,0,1-.29-1.14,18.88,18.88,0,0,1,.23-2.72l-.26-.34c.15,0,.23.16.26.31a18.94,18.94,0,0,1,.63-2.71,7.71,7.71,0,0,0-2.42,5.73l.07.71a6.32,6.32,0,0,1-.35-3.9,6.43,6.43,0,0,0-1,1.88,3.74,3.74,0,0,0-.24.74c0-.1,0-.2,0-.29a6.2,6.2,0,0,1,.87-3.68,17.82,17.82,0,0,0-2.19,4.42,1.1,1.1,0,0,0,0,1l-.2.17c-.35-1,.14-2.05.4-3.07a7.29,7.29,0,0,0,.09-3.32c-.31.35-.19.89-.31,1.34a3.16,3.16,0,0,1-.62,1,7.7,7.7,0,0,0-1.34,3c-.22-.15-.22-1.44-.22-1.7,0-.74.06-.49.35-1.17-.91.77-1.54.81-1.9,1.93a1.74,1.74,0,0,1-.16-1.13,9.79,9.79,0,0,1,1-3.39c-.69.56-1.49,3.08-2.07,3.75a4.84,4.84,0,0,0-1.18,2.31c-.39-1-.06-2.26-.68-3.16a5.15,5.15,0,0,1-1.41,2.73,1.81,1.81,0,0,1,.44-2,10.92,10.92,0,0,0-2,2.79l0,1.67A9.6,9.6,0,0,1,253,328a13.47,13.47,0,0,0-2.15,2.1,8.27,8.27,0,0,0-.88,2.77,8,8,0,0,1,1.29-5.75c-1.55,1.77-2.87,4.74-4,6.8l-.27.11a12,12,0,0,1-.5-4.66,6.36,6.36,0,0,0-1.79,4.32c-.46-1.09-.79-2.25-1.29-3.32a45.5,45.5,0,0,1-1.87,4.55,12.21,12.21,0,0,0-.85-3.72,9.82,9.82,0,0,1-1.23,4.1c.49-.76-1.7-4.55-2.2-5.16.22,2.1-.08,2.29-1.07,4.16-.68-1.76-2-2.32-3.64-3.34,1.14,1.81,1.57,2.11,1,4.14l-2.61-4.3c0,1.59.06,2.2.06,3.78l-1.9-5.09a22.19,22.19,0,0,0,.3,4.83,2.13,2.13,0,0,1-1.1,2.53.59.59,0,0,1-.38.13.63.63,0,0,1-.41-.33c-1.1-1.66-1.36-3.91-3-5.08.73,1.91,1.57,2.1.69,3.95-.6-1.6-1.53-1.17-2.54-2.57,1.43,2-.07,4.31-2.05,4.8l-5.21,1.28c0,.29.39.39.68.41,4.55.29,9.07-.11,13.55,1a37.57,37.57,0,0,0,13.39.41,35.41,35.41,0,0,1,5.58-.65c2.79.09,5.38,1.36,8.09,2.06A69,69,0,0,0,274,344.66c6.88,0,13.63,1.45,20.34,3.21,22,7.06,42.84,18.8,64.22,28l229.55,12.79,3.94-68.5C594.07,319.08,589.68,312.34,591.5,310.86Zm-341.31,23,0-.06C250.29,334.07,250.25,334.06,250.19,333.9Zm12.92-2.11.35.35A.92.92,0,0,1,263.1,331.79ZM428.73,321l.4-.58c0,.34,0,.69,0,1A2.77,2.77,0,0,1,428.73,321Z"/></g><circle class="cls-8" cx="537.54" cy="114" r="0.95"/><circle class="cls-8" cx="414.05" cy="129.59" r="0.95"/><circle class="cls-8" cx="530.15" cy="159.98" r="0.95"/><circle class="cls-8" cx="379.69" cy="169.27" r="0.95"/><circle class="cls-8" cx="579.36" cy="180.09" r="0.95"/><circle class="cls-8" cx="341.25" cy="179.14" r="0.95"/><circle class="cls-8" cx="375.3" cy="103.71" r="0.95"/><circle class="cls-8" cx="502.38" cy="123.14" r="0.58"/><circle class="cls-8" cx="363.14" cy="143.48" r="0.58"/><circle class="cls-8" cx="304.39" cy="210.11" r="0.58"/><circle class="cls-8" cx="555.2" cy="139.56" r="0.58"/><circle class="cls-8" cx="350.18" cy="124.85" r="0.58"/><circle class="cls-8" cx="353.94" cy="195.49" r="0.58"/><circle class="cls-8" cx="579.94" cy="113.05" r="0.58"/><circle class="cls-8" cx="434.17" cy="164.21" r="0.58"/><circle class="cls-8" cx="457.48" cy="168.69" r="0.58"/><circle class="cls-8" cx="420.88" cy="194.91" r="0.58"/><path class="cls-18" d="M537.27,283.4l-11.19-32.07a3.84,3.84,0,0,1,.79-3.82,3,3,0,0,0,.73-1.67c0-.89-.42-1.12-1.74-1.62l-.33-.12.72-1.88.31.12c1.22.46,3.07,1.15,3,3.52a4.82,4.82,0,0,1-1.09,2.79c-.58.85-.83,1.25-.53,2.07l11.17,32Z"/><rect class="cls-18" x="483.63" y="256.51" width="4.02" height="39.56" transform="matrix(0.94, -0.33, 0.33, 0.94, -63.8, 174.82)"/><path class="cls-18" d="M458.36,267.83a23.11,23.11,0,1,0,25.29,20.69A23.13,23.13,0,0,0,458.36,267.83ZM463,289.21l12.62-10.76a19.42,19.42,0,0,1,2,2.92Zm14.89-7.29a19.26,19.26,0,0,1,1.12,2.63l-15.23,4.94ZM463,288.38,473.19,276a19.59,19.59,0,0,1,2,2Zm-.83,0,7.54-14.77a19.56,19.56,0,0,1,3,1.94Zm-.29-.78,4.63-15.34a19.38,19.38,0,0,1,2.65,1.08Zm-.75.36,1.31-16.53a19.23,19.23,0,0,1,3.47.67Zm-.57-.6L459,271.47a19.43,19.43,0,0,1,2.86,0Zm-.55.62L455,272.24a19.46,19.46,0,0,1,3.47-.71Zm-.75-.35-7.57-14.11a19.28,19.28,0,0,1,2.63-1.12Zm-.28.78-10.76-12.61a19.42,19.42,0,0,1,2.92-2Zm-.83,0-12.39-10.14a19.6,19.6,0,0,1,2-2Zm0,.83-14.77-7.54a19.58,19.58,0,0,1,1.94-3Zm-.78.29-15.34-4.63a19.38,19.38,0,0,1,1.08-2.65Zm.35.75L441.31,289a19.24,19.24,0,0,1,.67-3.47Zm-.6.57-15.93,1.59a19.45,19.45,0,0,1,0-2.86Zm.62.55-15.78,5.12a19.45,19.45,0,0,1-.71-3.47Zm-.35.75-14.11,7.57a19.27,19.27,0,0,1-1.12-2.63Zm.78.27L445.67,303.2a19.42,19.42,0,0,1-2-2.92Zm0,.83-10.14,12.39a19.55,19.55,0,0,1-2-2Zm.83,0L451.55,308a19.56,19.56,0,0,1-3-1.94Zm.29.78-4.63,15.34a19.38,19.38,0,0,1-2.65-1.08Zm.75-.35-1.31,16.53a19.25,19.25,0,0,1-3.47-.67Zm.57.6,1.59,15.94a19.43,19.43,0,0,1-2.86,0Zm.55-.62,5.11,15.78a19.45,19.45,0,0,1-3.47.71Zm.75.35,7.57,14.11a19.26,19.26,0,0,1-2.63,1.12Zm.28-.78L473,305.8a19.43,19.43,0,0,1-2.92,2Zm.83,0,12.39,10.14a19.55,19.55,0,0,1-2,2Zm0-.83,14.77,7.54a19.56,19.56,0,0,1-1.94,3Zm.78-.29,15.34,4.63a19.37,19.37,0,0,1-1.08,2.65Zm-.36-.75L480,292.67a19.24,19.24,0,0,1-.67,3.47Zm.6-.57L480,289.2a19.46,19.46,0,0,1,0,2.86Zm-.62-.55,15.78-5.11a19.46,19.46,0,0,1,.71,3.47Z"/><circle class="cls-18" cx="460.66" cy="290.82" r="3.98" transform="translate(-26.63 47.24) rotate(-5.71)"/><path class="cls-18" d="M535.92,260.08a23.11,23.11,0,1,0,25.29,20.69A23.13,23.13,0,0,0,535.92,260.08Zm4.66,21.37L553.2,270.7a19.42,19.42,0,0,1,2,2.92Zm14.89-7.29a19.26,19.26,0,0,1,1.12,2.63l-15.23,4.94Zm-14.87,6.47,10.14-12.39a19.57,19.57,0,0,1,2,2Zm-.83,0,7.54-14.77a19.56,19.56,0,0,1,3,1.94Zm-.29-.78,4.63-15.34a19.38,19.38,0,0,1,2.65,1.08Zm-.75.36,1.31-16.53a19.24,19.24,0,0,1,3.47.67Zm-.57-.6-1.59-15.94a19.43,19.43,0,0,1,2.86,0Zm-.55.62-5.11-15.78a19.46,19.46,0,0,1,3.47-.71Zm-.75-.35-7.57-14.11a19.26,19.26,0,0,1,2.63-1.12Zm-.28.78-10.76-12.61a19.42,19.42,0,0,1,2.92-2Zm-.83,0-12.39-10.14a19.6,19.6,0,0,1,2-2Zm0,.83L521.06,274a19.57,19.57,0,0,1,1.94-3Zm-.78.29-15.34-4.63a19.38,19.38,0,0,1,1.08-2.65Zm.35.75-16.53-1.31a19.24,19.24,0,0,1,.66-3.47Zm-.6.57-15.93,1.59a19.46,19.46,0,0,1,0-2.86Zm.62.55-15.78,5.12a19.45,19.45,0,0,1-.72-3.47Zm-.35.75L521,292a19.25,19.25,0,0,1-1.12-2.63Zm.78.27-12.62,10.76a19.42,19.42,0,0,1-2-2.92Zm0,.83-10.14,12.39a19.57,19.57,0,0,1-2-2Zm.83,0-7.54,14.77a19.55,19.55,0,0,1-3-1.94Zm.29.78-4.63,15.34a19.38,19.38,0,0,1-2.65-1.08Zm.75-.35-1.31,16.53a19.24,19.24,0,0,1-3.47-.67Zm.57.6,1.59,15.94a19.45,19.45,0,0,1-2.86,0Zm.55-.62,5.11,15.78a19.46,19.46,0,0,1-3.47.71Zm.75.35,7.57,14.11a19.26,19.26,0,0,1-2.63,1.12Zm.28-.78,10.76,12.62a19.41,19.41,0,0,1-2.92,2Zm.83,0,12.39,10.14a19.56,19.56,0,0,1-2,2Zm0-.83,14.77,7.54a19.55,19.55,0,0,1-1.94,3Zm.78-.29L556.73,289a19.37,19.37,0,0,1-1.08,2.65Zm-.36-.75,16.53,1.31a19.22,19.22,0,0,1-.67,3.47Zm.6-.57,15.94-1.59a19.46,19.46,0,0,1,0,2.86Zm-.62-.55,15.78-5.11a19.46,19.46,0,0,1,.71,3.47Z"/><circle class="cls-18" cx="538.22" cy="283.07" r="3.98" transform="translate(-25.48 54.93) rotate(-5.71)"/><path class="cls-18" d="M492.23,296H492l-31.48-4.15a1,1,0,0,1-.68-1.59L480,262.52a1,1,0,0,1,.63-.4l47-8.76a1,1,0,0,1,.94,1.65l-35.65,40.62A1,1,0,0,1,492.23,296ZM462.46,290l29.27,3.86,33.38-38L481.4,264Z"/><circle class="cls-18" cx="492.09" cy="294.24" r="4.34" transform="translate(-26.82 50.39) rotate(-5.71)"/><path class="cls-18" d="M477.45,300.38a1,1,0,0,1-.43-1.95l14.74-5.14a1,1,0,1,1,.66,1.9l-14.74,5.14Z"/><rect class="cls-18" x="473.87" y="298.04" width="6.98" height="2.68" transform="translate(-27.4 48.95) rotate(-5.71)"/><path class="cls-18" d="M492.19,295.24a1,1,0,0,1-.32-2l11.47-2.55a1,1,0,0,1,1.2.76,1,1,0,0,1-.76,1.2l-11.47,2.55Z"/><rect class="cls-18" x="500.07" y="290.34" width="6.98" height="2.68" transform="translate(-3.89 6.81) rotate(-0.77)"/><path class="cls-18" d="M484.95,256.69c-.26-1-15.73-1-16.6.62s.13,5.74,5,6.07C475.85,263.56,485.47,258.59,484.95,256.69Z"/><path class="cls-18" d="M519.65,252.82l-.48-2c6.77-1.66,8-3.57,8.21-4.31a2.26,2.26,0,0,0-.83-2.16c-.42-.44-3.09-.84-5.59-.86v-2c1.32,0,5.73.14,7,1.47a4.09,4.09,0,0,1,1.32,4.11C528.61,249.53,525.45,251.39,519.65,252.82Z"/><rect class="cls-18" x="518.62" y="249.6" width="5.23" height="2.68" transform="translate(-55.67 208.03) rotate(-21.45)"/><rect class="cls-18" x="517.97" y="241.12" width="5.23" height="2.68" transform="translate(-4.92 10.85) rotate(-1.19)"/><path class="cls-18" d="M527.91,247.68a8.88,8.88,0,0,0-2.43-.12c-.51.15-3.71,2.59-4.25,2.93-1.82.56-9-4.2-11.15-4.64a2.25,2.25,0,0,1-1.12-.44c-.38-.35-.5-1-1-1.18a.78.78,0,0,1-.16-.08c-.18-.14-.11-.42,0-.61s.23-.43.12-.63a.73.73,0,0,0-.26-.22,1.87,1.87,0,0,1-.82-1.28c-.07-.5.06-1,0-1.5-.15-.89-.91-1.48-1.26-2.27s-.67-1.66-1.12-2.47a16.47,16.47,0,0,0-3.68-4.78l-.32-.88a4.34,4.34,0,0,1,1.61-.06l-.51-1.28s2.74-.43,3-.41c.58,0,1.57.88,2.58,1.06.44.08.61-.18.76-.53s.36-.84.52-1.26a.39.39,0,0,0,0-.17c0-.11-.11-.21-.07-.32a.26.26,0,0,1,.12-.12c.1-.06.5-.17.45-.35s-.06-.08-.09-.12.27-.48.34-.63c-.36,0-.31-.5-.12-.68a1.06,1.06,0,0,1,.45-.21,2.23,2.23,0,0,0,1.26-.63c.4-.57-.59-1.41-.76-2.19a2.87,2.87,0,0,1,.16-1.9,11.48,11.48,0,0,0,1.57.15c.23-.05.62-1.27,1-1.91s-1.27-3.62-2.12-5.3-6.12-2.81-7.84-2.52-5.57.88-5.81,1.25.79.57.54,1.06a4.93,4.93,0,0,1-.59.37,4.19,4.19,0,0,0-.59.59,2.47,2.47,0,0,0-.66,1.43.46.46,0,0,0,.07.31.52.52,0,0,0,.38.15l2,.22a23.11,23.11,0,0,0-.43,3.7,1.61,1.61,0,0,0,.11.8c.16.31.5.49.69.79.39.62-.12,1-.82,1.26l-.31-.85a5.15,5.15,0,0,1-4.24,1.13,28.77,28.77,0,0,0-4.54-.64,11.75,11.75,0,0,0-3.61.89,92.44,92.44,0,0,0-11.23,5,26.44,26.44,0,0,0-3,1.77,30.9,30.9,0,0,0-3.68,3.26c-1.9,1.87-4.6,4.18-5.36,6.82,2.2.26.83,2.4.9,3.83s-.1,2.72-.08,4.08a9.26,9.26,0,0,0,.61,3.65,10.14,10.14,0,0,0,2.46,3,12.83,12.83,0,0,0,3.95,2.88c.67.26,1.39.41,2.08.63l.49.18a83.18,83.18,0,0,1,6.58,5.25,3.7,3.7,0,0,1-.29,1.17c-.26.57-.37,1.13-.58,1.73a23.44,23.44,0,0,1-1.85,3.52,17.47,17.47,0,0,0-2.13,4.74c-.58,2.88-1,5.81-1.45,8.72-.35,2.18-.33,8.2-3.12,8.75a2.55,2.55,0,0,0-.72.18c-.7.37-.51,1.41-.2,2.14a3.39,3.39,0,0,0,1.24,1.72,4.79,4.79,0,0,0,1.91.39,6.84,6.84,0,0,1,4,1.9,1.45,1.45,0,0,0,.57.41,1.31,1.31,0,0,0,.55,0l3.21-.45a4.7,4.7,0,0,0,1.62-.43,1.6,1.6,0,0,0,.9-1.32,5.8,5.8,0,0,1-3.36-1.33,10.49,10.49,0,0,1-2.67-2.26c-1.88-2.5.33-5.45,1.42-7.79,1.93-4.14,3.92-8.4,5.54-12.67.3-.82,1.81-3.56,2.44-3.94a3.18,3.18,0,0,0,1.05-1.15,10.55,10.55,0,0,0,1-2.61c.53-1.82-.3-3.59-1.14-5.13-.14-.26-2.08-3-2.22-3.31l8.14,2.48c2.56.15,5,.44,5,.44a3.43,3.43,0,0,1,.47,1.65c-.06.75-2,6.72-1.87,9.15.18,3,.51,6,.84,9,.15,1.35.25,2.73.49,4.07.19,1,.67,2.27.19,3.29-.27.59-.68,1.09-1,1.67a3.36,3.36,0,0,0-.2,2.69,2.34,2.34,0,0,0,2.13,1.51c1,0,1.91-.85,2.94-1a4.91,4.91,0,0,1,1.57.2c1.91.43,6.42-.12,6.78-1.46.12-.46-.76-1.29-1.17-1.54a4,4,0,0,0-1.34-.43,10.67,10.67,0,0,1-4.73-1.83,2.09,2.09,0,0,1-.63-.74,2.41,2.41,0,0,1-.16-.89c-.15-3.39,1.08-6.9,1.45-10.26.44-3.88,1.1-7.83,1.9-11.66a5.58,5.58,0,0,1,.64-2.22c1.06-1.3.44-3.89,0-5.33-.61-1.8-2.31-2.77-3.88-3.54a28.57,28.57,0,0,0-3.54-1.54c-1.62-.54-14.81-5.26-14.81-5.26a2,2,0,0,1,.82-2c2.61-1.62,6-.49,8.73-1.94.94-.5,1.76-1.9,2.9-1.94.35,0,1.19,1.44,1.36,1.67,1,1.29,2,2.53,2.9,3.86a2.28,2.28,0,0,1,.36.67c.11.41.06.95.44,1.15s.69.07.78.35c.22.69.35.64.94,1a5.88,5.88,0,0,1,1.39,1.62,14.4,14.4,0,0,0,1.71,2.27c.38.2,13.77,2.22,15,2.86s3.67-1.38,3.67-1.38,1.28.42,1.45,1,.53.58.53.58L528,253l1-2.66S528.3,247.75,527.91,247.68Z"/><path class="cls-18" d="M493.4,238.21c3.09,2.2,6.18,4.41,9.07,6.85a11.56,11.56,0,0,0,4.31,2.73,9.18,9.18,0,0,0,2.84.17c3.19-.19,10.79-2.26,11.52-2.48s1.46.3,2.22.19a2.68,2.68,0,0,0,.75-.28l2.11-1a2.25,2.25,0,0,0-1.88-.63c.14-.51.34-1.52.88-1.78s1.37.37,1.87.57c.17.07.42.09.49-.08s-.05-.25-.14-.35c-.48-.52-.92-1.21-1.63-1.41s-1.33.31-2.07.28-1.34-.44-2.07-.41a2.16,2.16,0,0,0-1.81.94c-.18.31-.27.69-.57.89a1.35,1.35,0,0,1-.57.17q-3.59.5-7.21.71c-1.68.1-3.55.08-4.79-1.06a8.55,8.55,0,0,1-.82-.95c-2.38-2.95-5.9-4.82-8.22-7.82"/><path class="cls-18" d="M393.74,302.49l-10-32.42a3.83,3.83,0,0,1,.93-3.79,3,3,0,0,0,.79-1.64c0-.89-.38-1.14-1.68-1.68l-.32-.14.79-1.85.31.13c1.2.5,3,1.26,2.91,3.62a4.81,4.81,0,0,1-1.19,2.75c-.61.82-.87,1.22-.6,2l10,32.37Z"/><rect class="cls-18" x="340.44" y="273.75" width="4.01" height="39.52" transform="matrix(0.96, -0.29, 0.29, 0.96, -71.11, 113.55)"/><path class="cls-18" d="M315.53,284.07A23.08,23.08,0,1,0,340,305.65,23.11,23.11,0,0,0,315.53,284.07Zm3.88,21.51,13-10.28a19.38,19.38,0,0,1,1.89,3Zm15.14-6.74a19.24,19.24,0,0,1,1,2.67l-15.39,4.37Zm-15.08,5.91,10.57-12a19.58,19.58,0,0,1,2,2.08Zm-.83,0,8.06-14.47a19.55,19.55,0,0,1,2.88,2Zm-.26-.79,5.18-15.14a19.35,19.35,0,0,1,2.6,1.18Zm-.76.33,1.91-16.45a19.22,19.22,0,0,1,3.44.79Zm-.54-.62-1-16a19.41,19.41,0,0,1,2.86.08Zm-.57.6L312,288.35a19.44,19.44,0,0,1,3.49-.59Zm-.74-.37-7-14.36a19.25,19.25,0,0,1,2.67-1Zm-.3.77-10.28-13a19.4,19.4,0,0,1,3-1.89Zm-.82-.06-12-10.57a19.57,19.57,0,0,1,2.08-2Zm0,.83-14.47-8.06a19.56,19.56,0,0,1,2-2.88Zm-.79.26-15.15-5.18a19.36,19.36,0,0,1,1.18-2.6Zm.33.76-16.45-1.91a19.22,19.22,0,0,1,.79-3.44Zm-.62.54-16,1a19.43,19.43,0,0,1,.08-2.86Zm.6.57-15.94,4.53a19.45,19.45,0,0,1-.59-3.49Zm-.38.74-14.36,7a19.25,19.25,0,0,1-1-2.67Zm.77.3-13,10.28a19.41,19.41,0,0,1-1.89-3Zm-.06.82-10.57,12a19.53,19.53,0,0,1-2-2.08Zm.83,0-8.06,14.47a19.54,19.54,0,0,1-2.88-2Zm.26.79-5.18,15.15a19.35,19.35,0,0,1-2.6-1.18Zm.76-.33-1.91,16.45a19.23,19.23,0,0,1-3.44-.79Zm.54.62,1,16a19.42,19.42,0,0,1-2.86-.08Zm.57-.6L322,325.86a19.43,19.43,0,0,1-3.49.59Zm.74.37,7,14.36a19.23,19.23,0,0,1-2.67,1Zm.3-.77,10.28,13a19.41,19.41,0,0,1-3,1.89Zm.82.06,12,10.57a19.54,19.54,0,0,1-2.08,2Zm0-.83,14.47,8.06a19.54,19.54,0,0,1-2,2.88Zm.79-.26,15.14,5.18a19.36,19.36,0,0,1-1.18,2.6Zm-.33-.76,16.45,1.91a19.22,19.22,0,0,1-.79,3.44Zm.62-.54,16-1a19.44,19.44,0,0,1-.08,2.86Zm-.6-.57,15.94-4.53a19.45,19.45,0,0,1,.59,3.49Z"/><circle class="cls-18" cx="316.98" cy="307.1" r="3.97" transform="translate(-18.75 20.62) rotate(-3.62)"/><path class="cls-18" d="M393.25,279.15a23.08,23.08,0,1,0,24.49,21.58A23.11,23.11,0,0,0,393.25,279.15Zm3.88,21.51,13-10.28a19.4,19.4,0,0,1,1.89,3Zm15.13-6.74a19.23,19.23,0,0,1,1,2.67L397.89,301Zm-15.08,5.91,10.57-12a19.57,19.57,0,0,1,2,2.08Zm-.83,0,8.06-14.47a19.55,19.55,0,0,1,2.88,2Zm-.26-.79,5.18-15.14a19.35,19.35,0,0,1,2.6,1.18Zm-.76.33,1.91-16.45a19.22,19.22,0,0,1,3.44.79Zm-.54-.62-1-16a19.44,19.44,0,0,1,2.86.08Zm-.57.6-4.53-15.94a19.44,19.44,0,0,1,3.49-.59Zm-.74-.37-7-14.36a19.26,19.26,0,0,1,2.67-1Zm-.3.77-10.28-13a19.41,19.41,0,0,1,3-1.89Zm-.82-.06-12-10.57a19.58,19.58,0,0,1,2.08-2Zm0,.83-14.47-8.06a19.54,19.54,0,0,1,2-2.88Zm-.79.26-15.15-5.18a19.36,19.36,0,0,1,1.18-2.6Zm.33.76-16.45-1.91a19.22,19.22,0,0,1,.79-3.44Zm-.62.54-16,1a19.44,19.44,0,0,1,.08-2.86Zm.6.57-15.94,4.53a19.45,19.45,0,0,1-.59-3.49Zm-.38.74-14.36,7a19.25,19.25,0,0,1-1-2.67Zm.77.3-13,10.28a19.41,19.41,0,0,1-1.89-3Zm-.06.82-10.57,12a19.52,19.52,0,0,1-2-2.08Zm.83,0L385,319a19.54,19.54,0,0,1-2.88-2Zm.26.79-5.18,15.15a19.36,19.36,0,0,1-2.6-1.18Zm.76-.33-1.91,16.45a19.22,19.22,0,0,1-3.44-.79Zm.54.62,1,16a19.44,19.44,0,0,1-2.86-.08Zm.57-.6,4.53,15.94a19.44,19.44,0,0,1-3.49.59Zm.74.37,7,14.36a19.25,19.25,0,0,1-2.67,1Zm.3-.77,10.28,13a19.4,19.4,0,0,1-3,1.89Zm.82.06,12,10.57a19.54,19.54,0,0,1-2.08,2Zm0-.83,14.47,8.06a19.54,19.54,0,0,1-2,2.88Zm.79-.26L413,308.76a19.35,19.35,0,0,1-1.18,2.6Zm-.33-.76,16.45,1.91a19.2,19.2,0,0,1-.79,3.44Zm.62-.54,16-1a19.44,19.44,0,0,1-.08,2.86Zm-.6-.57,15.94-4.53a19.44,19.44,0,0,1,.59,3.49Z"/><circle class="cls-18" cx="394.7" cy="302.19" r="3.97" transform="translate(-18.28 25.51) rotate(-3.62)"/><path class="cls-18" d="M348.32,313.4h-.23l-31.27-5.29a1,1,0,0,1-.62-1.61l21.14-26.93a1,1,0,0,1,.64-.37l47.21-7a1,1,0,0,1,.88,1.68L349,313.09A1,1,0,0,1,348.32,313.4Zm-29.51-7,29.08,4.92,34.71-36.76-43.94,6.55Z"/><circle class="cls-18" cx="348.24" cy="311.66" r="4.33" transform="translate(-18.97 22.6) rotate(-3.62)"/><path class="cls-18" d="M333.4,317.26a1,1,0,0,1-.36-2l14.9-4.6a1,1,0,1,1,.59,1.92l-14.9,4.6Z"/><rect class="cls-18" x="329.86" y="314.92" width="6.97" height="2.68" transform="translate(-19.29 21.67) rotate(-3.62)"/><path class="cls-18" d="M347.88,312.63a1,1,0,0,1,.59-1.92l11.41,2.75a1,1,0,0,1,.74,1.21,1,1,0,0,1-1.21.74L348,312.66Z"/><rect class="cls-18" x="358.28" y="310.29" width="2.68" height="6.97" transform="translate(36.61 665.12) rotate(-88.51)"/><path class="cls-18" d="M342.48,273.91c-.22-1-15.67-1.55-16.6,0s-.07,5.73,4.73,6.24C333.15,280.44,342.93,275.83,342.48,273.91Z"/><path class="cls-18" d="M377.26,271.31l-.41-2c6.82-1.41,8.12-3.27,8.36-4a2.26,2.26,0,0,0-.75-2.18c-.4-.45-3-1-5.55-1.06l.09-2c1.32.06,5.72.35,7,1.73a4.08,4.08,0,0,1,1.16,4.15C386.33,268.35,383.11,270.1,377.26,271.31Z"/><rect class="cls-18" x="376.3" y="268.16" width="5.22" height="2.68" transform="translate(-67.92 140.88) rotate(-19.36)"/><rect class="cls-18" x="377.23" y="258.39" width="2.68" height="5.22" transform="translate(111.65 635.43) rotate(-89.1)"/><path class="cls-18" d="M330.82,258l-1.49,2.12a20.89,20.89,0,0,0-3.53,6.58c-.62,2.43-.23,5.28,1.62,7a23.4,23.4,0,0,0,2,1.42,13.05,13.05,0,0,1,3.16,3.66,37,37,0,0,0,3.25,3.57,47.36,47.36,0,0,1,5.68,8.27.69.69,0,0,1-.2,1.06,31.38,31.38,0,0,0-5.81,5.94c-1.57,2.37-2.35,5.15-3.39,7.79a9.11,9.11,0,0,1-1.51,2.93c-.66.69-1.5.69-2.31,1.11a1.8,1.8,0,0,0-.87,2.06,3.44,3.44,0,0,0,.88,1.28,9.68,9.68,0,0,0,1.41,1.3c.86.61,1.88.94,2.76,1.5,1.22.78,2.19,2,3.59,2.37a6.34,6.34,0,0,0,3.78-.54c.36-.13.76-.31.88-.68.19-.6-.48-1.08-1-1.39a12.44,12.44,0,0,1-4.08-3.77c-.46-.66-1.11-1.34-.91-2.17s1.36-1.73,1.92-2.42c.77-.94,1.56-1.87,2.25-2.88a115.29,115.29,0,0,1,8.15-10c1.63-.73,2.4-2,2.31-4.15a6.45,6.45,0,0,0-1.07-3.6c-2-3.9-3.29-9-4.69-13.14"/><path class="cls-18" d="M332.79,259.35a19,19,0,0,0-2.83,3.78,7.51,7.51,0,0,0-.92,4.57,10.57,10.57,0,0,0,1.08,3q.86,1.77,1.82,3.48c1.31,2.34,4.69,3.33,6.91,4.44,4.69,2.34,8,5.46,12,8.79,1.47,1.24,1,2.64.65,4.38a25,25,0,0,0-.35,5.6c0,2.71.91,5.33,1.52,8,.21.9.8,2.76.26,3.61s-1.7.7-.82,2.13a7.4,7.4,0,0,0,1.15,1.43,1.64,1.64,0,0,0,.5.37,1.85,1.85,0,0,0,.74.09l4.6-.06a18.59,18.59,0,0,1,3.46.44,2.48,2.48,0,0,0,2.41-.9c.37-.44,1.1-1.63.06-1.73s-2.2-.84-3.3-1.1c-1.26-.3-2.43-.91-3.71-1.13-1.88-.31-.1-14.76.58-18.18.61-3.07,1.43-6.23-1.46-8.43-3.09-2.84-10.94-13.51-19.3-19.14"/><path class="cls-18" d="M354,252.25a13.44,13.44,0,0,0,3.16-2.58c.91-1,1.85-2.26,3.21-2.35-1.19-1.36-2.13-3.3-3.53-4.44a9.1,9.1,0,0,1-1.5-1.11,10.73,10.73,0,0,0-1.38-1.59.57.57,0,0,0-.35-.15.71.71,0,0,0-.4.22c-1,.85-2.49.86-3.79,1.15-5.52,1.22-10.54,5.07-13.81,9.74-2.32,3.31-4.72,5.27-7.68,8.05-.28.26-.57.59-.5,1a1,1,0,0,0,.24.42c1.92,2.37,5.11,3.23,8.09,4"/><path class="cls-18" d="M356.37,245.71a6.6,6.6,0,0,1,2.92-1.31,4.06,4.06,0,0,1,2.77.24,2.87,2.87,0,0,0,.59.25.66.66,0,0,0,.6-.13.75.75,0,0,0,.19-.4c.11-.53,0-1.17.41-1.53a.74.74,0,0,1-.09-.33.74.74,0,0,0,.28-.17.25.25,0,0,0,0-.3c0-.07-.15-.1-.18-.18s.15-.29.32-.35.83-.25.93-.62c.15-.55-.57-.73-.7-1.19a4.75,4.75,0,0,1-.11-.94c0-.14-.15-1.57.08-1.56a10.07,10.07,0,0,0,1.38,0c.2-.06.42-1.16.67-1.75s-1.44-3-2.33-4.42-5.59-1.89-7.06-1.48-4.77,1.27-4.95,1.63.74.43.57.87a4.33,4.33,0,0,1-.48.37,3.68,3.68,0,0,0-.46.57,2.16,2.16,0,0,0-.44,1.31.4.4,0,0,0,.09.26.46.46,0,0,0,.34.09h1.77a20.24,20.24,0,0,0,0,3.26c.06.88.76,1.41,1.14,2.16.28.55-.65,1.25-2.81,1.71"/><path class="cls-18" d="M350.17,254.86a5,5,0,0,1,2.48.34,12.34,12.34,0,0,1,2.46,2.77,34.33,34.33,0,0,1,3.94,6.26,2.53,2.53,0,0,0,.48.75c.13.12.28.21.41.33.58.5.74,1.34,1.29,1.87a3.46,3.46,0,0,0,1.5.7c2.82.81,3.33,1,6.16,1.81,2.35.67,5.16,1,7.26,2.31,1.21.77,3.78-1,3.78-1s1.23.55,1.34,1.16.47.63.47.63l1.41-1.14,1.25-2.55s-.46-2.6-.84-2.71a8.87,8.87,0,0,0-2.41-.36c-.52.09-3.95,2.19-4.52,2.47-.39.19-1.39-.46-1.72-.61-1-.47-7.09-4.32-7.93-4.75-.51-.26-2.67-.81-2.9-1.29a3.25,3.25,0,0,1-.31-1.8,52.72,52.72,0,0,1-5.39-8c-.77-1.42-1.35-2.94-2.12-4.36a3.92,3.92,0,0,0-1.54-1.28A21.21,21.21,0,0,0,353,245a2.43,2.43,0,0,0-.82-.21l-3-.39"/><path class="cls-18" d="M354.38,234.8a3.38,3.38,0,0,0-2.23,1,9.43,9.43,0,0,1-2.95,2,7.74,7.74,0,0,1-2,.24,19.11,19.11,0,0,0-3.55.36,7.3,7.3,0,0,0-3.2,1.52,4.8,4.8,0,0,1,2.45-.59c.85,0,1.69.12,2.54.19a14.52,14.52,0,0,0,4.78-.35,10,10,0,0,0,4.23-2.21,3.87,3.87,0,0,0,1.51-3"/><path class="cls-18" d="M354.76,234.27a5.34,5.34,0,0,0-2.51.94,21.49,21.49,0,0,1-3,1.37,7.41,7.41,0,0,1-1.52.42,8.94,8.94,0,0,1-1.32.05l-1.95,0a9.07,9.07,0,0,0,6.5-.08,26.92,26.92,0,0,0,2.71-1.61,5.73,5.73,0,0,1,3-1"/><path class="cls-18" d="M353.89,236.54a3.68,3.68,0,0,1-1.38,1.56,9.57,9.57,0,0,1-6.15,2.25,4.7,4.7,0,0,0,2.06.13,12.07,12.07,0,0,0,8.49-4.66"/><path class="cls-18" d="M357,250.25a4.87,4.87,0,0,0-1.45,2.42,7.67,7.67,0,0,1-.48,1.81,3.72,3.72,0,0,1-.95,1.06,20,20,0,0,1-5.62,3.13,10.13,10.13,0,0,0-2.11,1,8.34,8.34,0,0,0-2,2.12c-1,1.35-1.92,3-1.35,4.58a2.85,2.85,0,0,1,.36,1.25c-.06.55-.59.92-1.08,1.18a12,12,0,0,1-4.08,1.28,5.21,5.21,0,0,1-2.7-.25,4.26,4.26,0,0,1-2.33-3.57,9.56,9.56,0,0,1,.85-4.33,33.41,33.41,0,0,1,12-14.63,16.46,16.46,0,0,1,5.46-2.75,2,2,0,0,1,.73-.08,2.22,2.22,0,0,1,.79.32l1.82,1"/><path class="cls-18" d="M350.18,255.27c2.92,2.25,5.84,4.5,8.57,7a11.24,11.24,0,0,0,4.09,2.8,8.92,8.92,0,0,0,2.75.26c3.11-.07,10.57-1.82,11.28-2s1.41.35,2.15.26a2.61,2.61,0,0,0,.74-.25l2.09-.94a2.19,2.19,0,0,0-1.81-.68c.15-.49.38-1.46.92-1.69s1.31.41,1.8.62c.17.07.41.1.48-.06s0-.25-.12-.35c-.45-.53-.85-1.21-1.54-1.43s-1.3.26-2,.2-1.28-.47-2-.47a2.1,2.1,0,0,0-1.8.85c-.19.29-.29.66-.59.84a1.31,1.31,0,0,1-.56.14q-3.51.36-7,.44c-1.63,0-3.45,0-4.61-1.2a8.33,8.33,0,0,1-.76-1c-2.21-3-5.57-4.89-7.71-7.89"/></g></g></g></svg>